STARTFONT 2.1
COMMENT
COMMENT Converted from OpenType font "Helvetica.ttc" by "otf2bdf 3.0".
COMMENT
FONT -FreeType-Unknown-Medium-R-Normal--22-160-100-100-P-114-FontSpecific-0
SIZE 16 100 100
FONTBOUNDINGBOX 53 36 -21 -11
STARTPROPERTIES 19
FOUNDRY "FreeType"
FAMILY_NAME "Unknown"
WEIGHT_NAME "Medium"
SLANT "R"
SETWIDTH_NAME "Normal"
ADD_STYLE_NAME ""
PIXEL_SIZE 22
POINT_SIZE 160
RESOLUTION_X 100
RESOLUTION_Y 100
SPACING "P"
AVERAGE_WIDTH 114
CHARSET_REGISTRY "FontSpecific"
CHARSET_ENCODING "0"
FONT_ASCENT 16
FONT_DESCENT 5
COPYRIGHT "-FreeType-Unknown-Medium-R-Normal--22-160-100-100-P-114-FontSpecific-0"
_OTF_FONTFILE "Helvetica.ttc"
_OTF_PSNAME "-FreeType-Unknown-Medium-R-Normal--22-160-100-100-P-114-FontSpecific-0"
ENDPROPERTIES
CHARS 2251
STARTCHAR 0001
ENCODING 1
SWIDTH 0 0
DWIDTH 0 0
BBX 0 0 0 0
BITMAP
ENDCHAR
STARTCHAR 0002
ENCODING 2
SWIDTH 270 0
DWIDTH 6 0
BBX 0 0 0 0
BITMAP
ENDCHAR
STARTCHAR 0003
ENCODING 3
SWIDTH 270 0
DWIDTH 6 0
BBX 0 0 0 0
BITMAP
ENDCHAR
STARTCHAR 0004
ENCODING 4
SWIDTH 270 0
DWIDTH 6 0
BBX 2 16 3 0
BITMAP
C0
C0
C0
C0
C0
C0
C0
C0
C0
80
80
80
00
00
C0
C0
ENDCHAR
STARTCHAR 0005
ENCODING 5
SWIDTH 360 0
DWIDTH 8 0
BBX 6 6 1 10
BITMAP
CC
C8
C8
C8
C8
C8
ENDCHAR
STARTCHAR 0006
ENCODING 6
SWIDTH 540 0
DWIDTH 12 0
BBX 12 16 0 0
BITMAP
0660
0660
0440
0440
0CC0
3FF0
0880
1880
1980
1980
FFE0
3300
3300
3200
2200
6600
ENDCHAR
STARTCHAR 0007
ENCODING 7
SWIDTH 540 0
DWIDTH 12 0
BBX 11 19 1 -2
BITMAP
0400
3F00
7F80
E5C0
C4C0
C4C0
C400
E400
7E00
1F80
05C0
04C0
C460
C4C0
E5C0
7F80
3F00
0400
0400
ENDCHAR
STARTCHAR 0008
ENCODING 8
SWIDTH 900 0
DWIDTH 20 0
BBX 18 15 1 0
BITMAP
380800
7C0800
C61000
821000
822000
C66000
7C4000
388F00
009F80
0118C0
0330C0
0230C0
0618C0
041F80
080F00
ENDCHAR
STARTCHAR 0009
ENCODING 9
SWIDTH 675 0
DWIDTH 15 0
BBX 13 16 1 0
BITMAP
0F00
3F80
3180
3180
3180
3B80
1F00
1C00
7630
6320
C1E0
C0E0
C0E0
E1F0
7F30
3E38
ENDCHAR
STARTCHAR 000A
ENCODING 10
SWIDTH 180 0
DWIDTH 4 0
BBX 2 6 2 10
BITMAP
C0
C0
C0
80
80
80
ENDCHAR
STARTCHAR 000B
ENCODING 11
SWIDTH 315 0
DWIDTH 7 0
BBX 4 20 2 -4
BITMAP
10
30
20
60
40
C0
C0
C0
C0
C0
C0
C0
C0
C0
C0
40
60
20
30
10
ENDCHAR
STARTCHAR 000C
ENCODING 12
SWIDTH 315 0
DWIDTH 7 0
BBX 5 20 1 -4
BITMAP
80
40
60
60
30
30
30
18
18
18
18
18
18
30
30
30
60
60
40
80
ENDCHAR
STARTCHAR 000D
ENCODING 13
SWIDTH 405 0
DWIDTH 9 0
BBX 6 6 1 10
BITMAP
10
DC
30
38
68
4C
ENDCHAR
STARTCHAR 000E
ENCODING 14
SWIDTH 585 0
DWIDTH 13 0
BBX 11 12 1 0
BITMAP
0600
0600
0600
0600
0600
FFE0
FFE0
0600
0600
0600
0600
0600
ENDCHAR
STARTCHAR 000F
ENCODING 15
SWIDTH 270 0
DWIDTH 6 0
BBX 2 5 2 -3
BITMAP
C0
C0
40
40
80
ENDCHAR
STARTCHAR 0010
ENCODING 16
SWIDTH 315 0
DWIDTH 7 0
BBX 5 2 1 5
BITMAP
F8
F8
ENDCHAR
STARTCHAR 0011
ENCODING 17
SWIDTH 270 0
DWIDTH 6 0
BBX 2 2 2 0
BITMAP
C0
C0
ENDCHAR
STARTCHAR 0012
ENCODING 18
SWIDTH 270 0
DWIDTH 6 0
BBX 7 16 0 0
BITMAP
06
04
0C
0C
08
18
18
10
30
30
20
60
60
40
C0
C0
ENDCHAR
STARTCHAR 0013
ENCODING 19
SWIDTH 540 0
DWIDTH 12 0
BBX 10 16 1 0
BITMAP
1E00
3F80
6180
E0C0
C0C0
C0C0
C0C0
C0C0
C0C0
C0C0
C0C0
C0C0
E0C0
6180
7F80
1E00
ENDCHAR
STARTCHAR 0014
ENCODING 20
SWIDTH 540 0
DWIDTH 12 0
BBX 6 16 2 0
BITMAP
0C
0C
1C
FC
FC
0C
0C
0C
0C
0C
0C
0C
0C
0C
0C
0C
ENDCHAR
STARTCHAR 0015
ENCODING 21
SWIDTH 540 0
DWIDTH 12 0
BBX 10 16 1 0
BITMAP
1F00
7F80
61C0
E0C0
C0C0
C0C0
00C0
01C0
0380
0E00
3C00
7000
E000
C000
FFC0
FFC0
ENDCHAR
STARTCHAR 0016
ENCODING 22
SWIDTH 540 0
DWIDTH 12 0
BBX 10 16 1 0
BITMAP
3F00
7F80
E1C0
C0C0
00C0
0180
0F00
0F80
01C0
00C0
00C0
C0C0
C0C0
E1C0
7F80
3E00
ENDCHAR
STARTCHAR 0017
ENCODING 23
SWIDTH 540 0
DWIDTH 12 0
BBX 11 16 1 0
BITMAP
0300
0300
0700
0F00
1B00
1B00
3300
6300
4300
C300
FFE0
FFE0
0300
0300
0300
0300
ENDCHAR
STARTCHAR 0018
ENCODING 24
SWIDTH 540 0
DWIDTH 12 0
BBX 10 16 1 0
BITMAP
7FC0
7FC0
6000
6000
6000
4000
5F00
FF80
E1C0
00C0
00C0
00C0
C0C0
E1C0
7F80
3F00
ENDCHAR
STARTCHAR 0019
ENCODING 25
SWIDTH 540 0
DWIDTH 12 0
BBX 10 16 1 0
BITMAP
1F00
3F80
71C0
60C0
C000
C000
CF00
FF80
E1C0
C0C0
C0C0
C0C0
E0C0
61C0
3F80
1F00
ENDCHAR
STARTCHAR 001A
ENCODING 26
SWIDTH 540 0
DWIDTH 12 0
BBX 11 16 1 0
BITMAP
FFE0
FFE0
00C0
0180
0180
0300
0600
0600
0C00
0C00
0C00
1800
1800
1800
3000
3000
ENDCHAR
STARTCHAR 001B
ENCODING 27
SWIDTH 540 0
DWIDTH 12 0
BBX 10 16 1 0
BITMAP
1F00
7F80
61C0
C0C0
C0C0
6180
3F00
7F80
E1C0
C0C0
C0C0
C0C0
C0C0
E1C0
7F80
1F00
ENDCHAR
STARTCHAR 001C
ENCODING 28
SWIDTH 540 0
DWIDTH 12 0
BBX 10 16 1 0
BITMAP
3E00
7F80
E180
C0C0
C0C0
C0C0
C0C0
E1C0
7FC0
3EC0
00C0
00C0
C180
E380
7F00
3E00
ENDCHAR
STARTCHAR 001D
ENCODING 29
SWIDTH 270 0
DWIDTH 6 0
BBX 3 12 2 0
BITMAP
E0
E0
00
00
00
00
00
00
00
00
E0
E0
ENDCHAR
STARTCHAR 001E
ENCODING 30
SWIDTH 270 0
DWIDTH 6 0
BBX 3 15 2 -3
BITMAP
E0
E0
00
00
00
00
00
00
00
00
E0
E0
20
60
C0
ENDCHAR
STARTCHAR 001F
ENCODING 31
SWIDTH 585 0
DWIDTH 13 0
BBX 13 12 0 0
BITMAP
0008
0078
03F0
0F80
7E00
F000
F000
7E00
0F80
03F0
0078
0008
ENDCHAR
STARTCHAR 0020
ENCODING 32
SWIDTH 585 0
DWIDTH 13 0
BBX 11 7 1 2
BITMAP
FFE0
FFE0
0000
0000
0000
FFE0
FFE0
ENDCHAR
STARTCHAR 0021
ENCODING 33
SWIDTH 585 0
DWIDTH 13 0
BBX 13 12 0 0
BITMAP
C000
F000
7E00
0FC0
01F0
0078
0078
01F0
0FC0
7E00
F000
C000
ENDCHAR
STARTCHAR 0022
ENCODING 34
SWIDTH 540 0
DWIDTH 12 0
BBX 9 16 2 0
BITMAP
3E00
7F00
E380
C180
C180
0180
0380
0700
0E00
0C00
1800
1800
0000
0000
1C00
1C00
ENDCHAR
STARTCHAR 0023
ENCODING 35
SWIDTH 1035 0
DWIDTH 23 0
BBX 18 16 2 0
BITMAP
03FC00
0E0700
180180
300080
60ECC0
431C40
430840
C61840
C618C0
461880
463900
63CE00
200000
100100
0C0700
03F800
ENDCHAR
STARTCHAR 0024
ENCODING 36
SWIDTH 675 0
DWIDTH 15 0
BBX 13 16 1 0
BITMAP
0700
0700
0D80
0D80
0D80
18C0
18C0
10C0
3060
3FE0
7FF0
6030
6030
C038
C018
C018
ENDCHAR
STARTCHAR 0025
ENCODING 37
SWIDTH 675 0
DWIDTH 15 0
BBX 12 16 2 0
BITMAP
FF80
FFC0
C0E0
C060
C060
C060
C0C0
FF80
FFE0
C060
C030
C030
C030
C060
FFE0
FF80
ENDCHAR
STARTCHAR 0026
ENCODING 38
SWIDTH 720 0
DWIDTH 16 0
BBX 14 16 1 0
BITMAP
0FC0
1FF0
3838
701C
600C
E000
C000
C000
C000
C000
C00C
600C
7018
3838
1FF0
0FC0
ENDCHAR
STARTCHAR 0027
ENCODING 39
SWIDTH 720 0
DWIDTH 16 0
BBX 13 16 2 0
BITMAP
FF80
FFE0
C0E0
C030
C030
C038
C018
C018
C018
C018
C038
C030
C070
C0E0
FFC0
FF80
ENDCHAR
STARTCHAR 0028
ENCODING 40
SWIDTH 675 0
DWIDTH 15 0
BBX 12 16 2 0
BITMAP
FFF0
FFF0
C000
C000
C000
C000
C000
FFE0
FFE0
C000
C000
C000
C000
C000
FFF0
FFF0
ENDCHAR
STARTCHAR 0029
ENCODING 41
SWIDTH 630 0
DWIDTH 14 0
BBX 11 16 2 0
BITMAP
FFE0
FFE0
C000
C000
C000
C000
C000
FFC0
FFC0
C000
C000
C000
C000
C000
C000
C000
ENDCHAR
STARTCHAR 002A
ENCODING 42
SWIDTH 765 0
DWIDTH 17 0
BBX 15 16 1 0
BITMAP
07E0
1FF8
3838
700C
600C
E000
C000
C000
C0FE
C0FE
E006
600E
700E
383E
1FF6
0FC6
ENDCHAR
STARTCHAR 002B
ENCODING 43
SWIDTH 720 0
DWIDTH 16 0
BBX 12 16 2 0
BITMAP
C030
C030
C030
C030
C030
C030
C030
FFF0
FFF0
C030
C030
C030
C030
C030
C030
C030
ENDCHAR
STARTCHAR 002C
ENCODING 44
SWIDTH 270 0
DWIDTH 6 0
BBX 2 16 2 0
BITMAP
C0
C0
C0
C0
C0
C0
C0
C0
C0
C0
C0
C0
C0
C0
C0
C0
ENDCHAR
STARTCHAR 002D
ENCODING 45
SWIDTH 495 0
DWIDTH 11 0
BBX 10 16 0 0
BITMAP
01C0
01C0
01C0
01C0
01C0
01C0
01C0
01C0
01C0
01C0
01C0
C1C0
C180
6180
7F80
3E00
ENDCHAR
STARTCHAR 002E
ENCODING 46
SWIDTH 675 0
DWIDTH 15 0
BBX 12 16 2 0
BITMAP
C070
C0E0
C1C0
C380
C700
CE00
DC00
FE00
F600
E700
C380
C180
C1C0
C0E0
C070
C030
ENDCHAR
STARTCHAR 002F
ENCODING 47
SWIDTH 540 0
DWIDTH 12 0
BBX 10 16 2 0
BITMAP
C000
C000
C000
C000
C000
C000
C000
C000
C000
C000
C000
C000
C000
C000
FFC0
FFC0
ENDCHAR
STARTCHAR 0030
ENCODING 48
SWIDTH 855 0
DWIDTH 19 0
BBX 15 16 2 0
BITMAP
E00E
E01E
F01E
F01E
F036
D836
D836
D866
CC66
CC66
CCC6
C6C6
C6C6
C786
C386
C386
ENDCHAR
STARTCHAR 0031
ENCODING 49
SWIDTH 720 0
DWIDTH 16 0
BBX 12 16 2 0
BITMAP
E030
E030
F030
F030
D830
DC30
CC30
C630
C630
C330
C1B0
C1B0
C0F0
C0F0
C070
C030
ENDCHAR
STARTCHAR 0032
ENCODING 50
SWIDTH 765 0
DWIDTH 17 0
BBX 15 16 1 0
BITMAP
07E0
1FF8
383C
700C
600E
E006
C006
C006
C006
C006
C006
E00E
700C
3838
1FF0
0FE0
ENDCHAR
STARTCHAR 0033
ENCODING 51
SWIDTH 675 0
DWIDTH 15 0
BBX 12 16 2 0
BITMAP
FFC0
FFE0
C060
C070
C030
C070
C060
FFE0
FFC0
C000
C000
C000
C000
C000
C000
C000
ENDCHAR
STARTCHAR 0034
ENCODING 52
SWIDTH 765 0
DWIDTH 17 0
BBX 15 16 1 -1
BITMAP
07E0
1FF8
383C
700C
600E
C006
C006
C006
C006
C006
C006
E04E
70EC
3838
1FFC
0FEE
ENDCHAR
STARTCHAR 0035
ENCODING 53
SWIDTH 720 0
DWIDTH 16 0
BBX 13 16 2 0
BITMAP
FFC0
FFF0
C030
C038
C038
C030
C070
FFE0
FFE0
C070
C030
C030
C030
C030
C038
C038
ENDCHAR
STARTCHAR 0036
ENCODING 54
SWIDTH 675 0
DWIDTH 15 0
BBX 13 16 1 0
BITMAP
1F80
3FE0
7070
6030
6030
6000
7800
3FC0
0FF0
0070
0038
C018
E038
7070
3FE0
1FC0
ENDCHAR
STARTCHAR 0037
ENCODING 55
SWIDTH 630 0
DWIDTH 14 0
BBX 13 16 0 0
BITMAP
FFF8
FFF8
0300
0300
0300
0300
0300
0300
0300
0300
0300
0300
0300
0300
0300
0300
ENDCHAR
STARTCHAR 0038
ENCODING 56
SWIDTH 720 0
DWIDTH 16 0
BBX 12 16 2 0
BITMAP
C030
C030
C030
C030
C030
C030
C030
C030
C030
C030
C030
C030
E070
70E0
3FE0
1F80
ENDCHAR
STARTCHAR 0039
ENCODING 57
SWIDTH 675 0
DWIDTH 15 0
BBX 13 16 1 0
BITMAP
C018
C018
E038
6030
7070
3060
3060
38E0
18C0
18C0
1DC0
0D80
0D80
0F80
0700
0700
ENDCHAR
STARTCHAR 003A
ENCODING 58
SWIDTH 945 0
DWIDTH 21 0
BBX 20 16 1 0
BITMAP
C0E070
C0E060
C0E060
E1B0E0
61B0C0
61B0C0
6398C0
7319C0
331980
331980
360D80
3E0F80
1E0F00
1E0700
1C0700
1C0700
ENDCHAR
STARTCHAR 003B
ENCODING 59
SWIDTH 675 0
DWIDTH 15 0
BBX 13 16 1 0
BITMAP
E038
7030
3060
38E0
1CC0
0D80
0F80
0700
0700
0D80
1DC0
18C0
30E0
7070
E030
C038
ENDCHAR
STARTCHAR 003C
ENCODING 60
SWIDTH 675 0
DWIDTH 15 0
BBX 13 16 1 0
BITMAP
C018
E038
6030
3070
38E0
18C0
1DC0
0D80
0780
0700
0700
0700
0700
0700
0700
0700
ENDCHAR
STARTCHAR 003D
ENCODING 61
SWIDTH 630 0
DWIDTH 14 0
BBX 12 16 1 0
BITMAP
FFF0
FFF0
0070
00E0
01C0
0380
0300
0700
0E00
1C00
3800
3000
6000
E000
FFF0
FFF0
ENDCHAR
STARTCHAR 003E
ENCODING 62
SWIDTH 270 0
DWIDTH 6 0
BBX 5 20 1 -4
BITMAP
F8
F8
C0
C0
C0
C0
C0
C0
C0
C0
C0
C0
C0
C0
C0
C0
C0
C0
F8
F8
ENDCHAR
STARTCHAR 003F
ENCODING 63
SWIDTH 270 0
DWIDTH 6 0
BBX 8 16 -1 0
BITMAP
C0
60
60
20
30
30
10
18
08
0C
0C
04
06
06
03
03
ENDCHAR
STARTCHAR 0040
ENCODING 64
SWIDTH 270 0
DWIDTH 6 0
BBX 4 20 1 -4
BITMAP
F0
F0
30
30
30
30
30
30
30
30
30
30
30
30
30
30
30
30
F0
F0
ENDCHAR
STARTCHAR 0041
ENCODING 65
SWIDTH 450 0
DWIDTH 10 0
BBX 8 9 2 7
BITMAP
18
38
3C
24
66
46
C3
C3
81
ENDCHAR
STARTCHAR 0042
ENCODING 66
SWIDTH 540 0
DWIDTH 12 0
BBX 12 1 0 -3
BITMAP
FFF0
ENDCHAR
STARTCHAR 0043
ENCODING 67
SWIDTH 315 0
DWIDTH 7 0
BBX 3 3 1 13
BITMAP
C0
60
20
ENDCHAR
STARTCHAR 0044
ENCODING 68
SWIDTH 540 0
DWIDTH 12 0
BBX 11 12 1 0
BITMAP
1F00
7F80
6180
40C0
00C0
3FC0
7EC0
E0C0
C1C0
C3C0
FEE0
3CE0
ENDCHAR
STARTCHAR 0045
ENCODING 69
SWIDTH 540 0
DWIDTH 12 0
BBX 11 16 1 0
BITMAP
C000
C000
C000
C000
CF00
DF80
F1C0
E0C0
C0C0
C060
C0C0
C0C0
E0C0
E1C0
DF80
CF00
ENDCHAR
STARTCHAR 0046
ENCODING 70
SWIDTH 495 0
DWIDTH 11 0
BBX 10 12 1 0
BITMAP
1E00
7F80
6180
C0C0
C000
C000
C000
C000
C180
E180
7F80
3E00
ENDCHAR
STARTCHAR 0047
ENCODING 71
SWIDTH 540 0
DWIDTH 12 0
BBX 10 16 1 0
BITMAP
00C0
00C0
00C0
00C0
3EC0
7FC0
E1C0
C0C0
C0C0
C0C0
C0C0
C0C0
C0C0
E1C0
7FC0
3CC0
ENDCHAR
STARTCHAR 0048
ENCODING 72
SWIDTH 540 0
DWIDTH 12 0
BBX 10 12 1 0
BITMAP
1F00
7F80
61C0
C0C0
C0C0
FFC0
FFC0
C000
C0C0
61C0
7F80
1F00
ENDCHAR
STARTCHAR 0049
ENCODING 73
SWIDTH 270 0
DWIDTH 6 0
BBX 6 16 0 0
BITMAP
1C
3C
30
30
FC
FC
30
30
30
30
30
30
30
30
30
30
ENDCHAR
STARTCHAR 004A
ENCODING 74
SWIDTH 540 0
DWIDTH 12 0
BBX 10 17 1 -5
BITMAP
3CC0
7FC0
E1C0
C0C0
C0C0
C0C0
C0C0
C0C0
C1C0
E1C0
7FC0
3EC0
00C0
00C0
C180
7F80
3E00
ENDCHAR
STARTCHAR 004B
ENCODING 75
SWIDTH 540 0
DWIDTH 12 0
BBX 10 16 1 0
BITMAP
C000
C000
C000
C000
CF00
DF80
F1C0
E0C0
E0C0
C0C0
C0C0
C0C0
C0C0
C0C0
C0C0
C0C0
ENDCHAR
STARTCHAR 004C
ENCODING 76
SWIDTH 225 0
DWIDTH 5 0
BBX 2 16 1 0
BITMAP
C0
C0
00
00
C0
C0
C0
C0
C0
C0
C0
C0
C0
C0
C0
C0
ENDCHAR
STARTCHAR 004D
ENCODING 77
SWIDTH 225 0
DWIDTH 5 0
BBX 3 21 0 -5
BITMAP
60
60
00
00
00
60
60
60
60
60
60
60
60
60
60
60
60
60
60
E0
C0
ENDCHAR
STARTCHAR 004E
ENCODING 78
SWIDTH 495 0
DWIDTH 11 0
BBX 10 16 1 0
BITMAP
C000
C000
C000
C000
C180
C300
C600
CC00
D800
FC00
EE00
C600
C700
C300
C180
C1C0
ENDCHAR
STARTCHAR 004F
ENCODING 79
SWIDTH 225 0
DWIDTH 5 0
BBX 2 16 1 0
BITMAP
C0
C0
C0
C0
C0
C0
C0
C0
C0
C0
C0
C0
C0
C0
C0
C0
ENDCHAR
STARTCHAR 0050
ENCODING 80
SWIDTH 855 0
DWIDTH 19 0
BBX 16 12 1 0
BITMAP
CF3E
DFFF
F1C3
E1C3
E183
C183
C183
C183
C183
C183
C183
C183
ENDCHAR
STARTCHAR 0051
ENCODING 81
SWIDTH 540 0
DWIDTH 12 0
BBX 10 12 1 0
BITMAP
CF00
DF80
F1C0
E0C0
C0C0
C0C0
C0C0
C0C0
C0C0
C0C0
C0C0
C0C0
ENDCHAR
STARTCHAR 0052
ENCODING 82
SWIDTH 540 0
DWIDTH 12 0
BBX 10 12 1 0
BITMAP
1F00
7F80
61C0
C0C0
C0C0
C0C0
C0C0
C0C0
C0C0
E1C0
7F80
3E00
ENDCHAR
STARTCHAR 0053
ENCODING 83
SWIDTH 540 0
DWIDTH 12 0
BBX 11 17 1 -5
BITMAP
CF00
DF80
F1C0
E0C0
C0C0
C060
C0C0
C0C0
E0C0
E1C0
DF80
CF00
C000
C000
C000
C000
C000
ENDCHAR
STARTCHAR 0054
ENCODING 84
SWIDTH 540 0
DWIDTH 12 0
BBX 10 17 1 -5
BITMAP
3EC0
7FC0
61C0
C0C0
C0C0
C0C0
C0C0
C0C0
C1C0
E1C0
7FC0
3EC0
00C0
00C0
00C0
00C0
00C0
ENDCHAR
STARTCHAR 0055
ENCODING 85
SWIDTH 315 0
DWIDTH 7 0
BBX 6 12 1 0
BITMAP
CC
DC
F0
E0
C0
C0
C0
C0
C0
C0
C0
C0
ENDCHAR
STARTCHAR 0056
ENCODING 86
SWIDTH 495 0
DWIDTH 11 0
BBX 9 12 1 0
BITMAP
3E00
7F00
C380
C180
E000
7E00
1F80
0180
C180
C180
7F80
3E00
ENDCHAR
STARTCHAR 0057
ENCODING 87
SWIDTH 270 0
DWIDTH 6 0
BBX 6 15 0 0
BITMAP
30
30
30
FC
FC
30
30
30
30
30
30
30
30
3C
3C
ENDCHAR
STARTCHAR 0058
ENCODING 88
SWIDTH 540 0
DWIDTH 12 0
BBX 10 12 1 0
BITMAP
C0C0
C0C0
C0C0
C0C0
C0C0
C0C0
C0C0
C0C0
C1C0
63C0
7EC0
3CC0
ENDCHAR
STARTCHAR 0059
ENCODING 89
SWIDTH 495 0
DWIDTH 11 0
BBX 11 12 0 0
BITMAP
E060
60C0
60C0
60C0
3180
3180
3100
1B00
1B00
0A00
0E00
0E00
ENDCHAR
STARTCHAR 005A
ENCODING 90
SWIDTH 720 0
DWIDTH 16 0
BBX 16 12 0 0
BITMAP
C183
6386
63C6
63C6
62C4
324C
366C
366C
1468
1C38
1C38
1C30
ENDCHAR
STARTCHAR 005B
ENCODING 91
SWIDTH 495 0
DWIDTH 11 0
BBX 10 12 0 0
BITMAP
60C0
71C0
3180
1B00
1F00
0E00
0E00
1F00
3B00
3180
71C0
E0C0
ENDCHAR
STARTCHAR 005C
ENCODING 92
SWIDTH 495 0
DWIDTH 11 0
BBX 11 17 0 -5
BITMAP
E060
60C0
60C0
70C0
3180
3180
3180
1B00
1B00
1B00
0E00
0E00
0C00
0C00
0C00
7800
7000
ENDCHAR
STARTCHAR 005D
ENCODING 93
SWIDTH 495 0
DWIDTH 11 0
BBX 9 12 1 0
BITMAP
FF80
FF80
0380
0700
0E00
0C00
1800
3000
6000
E000
FF80
FF80
ENDCHAR
STARTCHAR 005E
ENCODING 94
SWIDTH 315 0
DWIDTH 7 0
BBX 7 20 0 -4
BITMAP
0E
1E
18
30
30
30
30
70
F0
80
E0
70
30
30
30
30
38
18
1E
06
ENDCHAR
STARTCHAR 005F
ENCODING 95
SWIDTH 270 0
DWIDTH 6 0
BBX 1 16 2 0
BITMAP
80
80
80
80
80
80
80
80
80
80
80
80
80
80
80
80
ENDCHAR
STARTCHAR 0060
ENCODING 96
SWIDTH 315 0
DWIDTH 7 0
BBX 8 20 0 -4
BITMAP
E0
F0
38
18
18
18
18
0C
0F
03
0F
0C
18
18
18
18
18
30
F0
C0
ENDCHAR
STARTCHAR 0061
ENCODING 97
SWIDTH 585 0
DWIDTH 13 0
BBX 13 4 0 3
BITMAP
3C08
7F18
47F0
C0E0
ENDCHAR
STARTCHAR 0062
ENCODING 98
SWIDTH 675 0
DWIDTH 15 0
BBX 13 20 1 0
BITMAP
0D80
0D80
0000
0000
0700
0700
0D80
0D80
0D80
18C0
18C0
10C0
3060
3FE0
7FF0
6030
6030
C038
C018
C018
ENDCHAR
STARTCHAR 0063
ENCODING 99
SWIDTH 675 0
DWIDTH 15 0
BBX 13 21 1 0
BITMAP
0700
0880
0880
0500
0200
0700
0700
0D80
0D80
0D80
18C0
18C0
10C0
3060
3FE0
7FF0
6030
6030
C038
C018
C018
ENDCHAR
STARTCHAR 0064
ENCODING 100
SWIDTH 720 0
DWIDTH 16 0
BBX 14 21 1 -5
BITMAP
0FC0
1FF0
3838
701C
600C
E000
C000
C000
C000
C000
C00C
600C
7018
3838
3FF0
0FC0
0200
0780
0180
0180
0700
ENDCHAR
STARTCHAR 0065
ENCODING 101
SWIDTH 675 0
DWIDTH 15 0
BBX 12 20 2 0
BITMAP
0700
0600
0C00
0000
FFF0
FFF0
C000
C000
C000
C000
C000
FFE0
FFE0
C000
C000
C000
C000
C000
FFF0
FFF0
ENDCHAR
STARTCHAR 0066
ENCODING 102
SWIDTH 720 0
DWIDTH 16 0
BBX 12 20 2 0
BITMAP
1C40
17C0
2180
0000
E030
E030
F030
F030
D830
DC30
CC30
C630
C630
C330
C1B0
C1B0
C0F0
C0F0
C070
C030
ENDCHAR
STARTCHAR 0067
ENCODING 103
SWIDTH 765 0
DWIDTH 17 0
BBX 15 20 1 0
BITMAP
0660
0660
0000
0000
07E0
1FF8
383C
700C
600E
E006
C006
C006
C006
C006
C006
E00E
700C
3838
1FF0
0FE0
ENDCHAR
STARTCHAR 0068
ENCODING 104
SWIDTH 720 0
DWIDTH 16 0
BBX 12 20 2 0
BITMAP
0D80
0D80
0000
0000
C030
C030
C030
C030
C030
C030
C030
C030
C030
C030
C030
C030
E070
70E0
3FE0
1F80
ENDCHAR
STARTCHAR 0069
ENCODING 105
SWIDTH 540 0
DWIDTH 12 0
BBX 11 16 1 0
BITMAP
0600
0C00
1800
0000
1F00
7F80
6180
40C0
00C0
3FC0
7EC0
E0C0
C1C0
C3C0
FEE0
3CE0
ENDCHAR
STARTCHAR 006A
ENCODING 106
SWIDTH 540 0
DWIDTH 12 0
BBX 11 16 1 0
BITMAP
1800
1800
0C00
0000
1F00
7F80
6180
40C0
00C0
3FC0
7EC0
E0C0
C1C0
C3C0
FEE0
3CE0
ENDCHAR
STARTCHAR 006B
ENCODING 107
SWIDTH 540 0
DWIDTH 12 0
BBX 11 16 1 0
BITMAP
0E00
1A00
3300
0000
1F00
7F80
6180
40C0
00C0
3FC0
7EC0
E0C0
C1C0
C3C0
FEE0
3CE0
ENDCHAR
STARTCHAR 006C
ENCODING 108
SWIDTH 540 0
DWIDTH 12 0
BBX 11 16 1 0
BITMAP
3B00
3B00
0000
0000
1F00
7F80
6180
40C0
00C0
3FC0
7EC0
E0C0
C1C0
C3C0
FEE0
3CE0
ENDCHAR
STARTCHAR 006D
ENCODING 109
SWIDTH 540 0
DWIDTH 12 0
BBX 11 16 1 0
BITMAP
1C80
2780
2300
0000
1F00
7F80
6180
40C0
00C0
3FC0
7EC0
E0C0
C1C0
C3C0
FEE0
3CE0
ENDCHAR
STARTCHAR 006E
ENCODING 110
SWIDTH 540 0
DWIDTH 12 0
BBX 11 18 1 0
BITMAP
0E00
1200
1100
1200
0E00
0000
1F00
7F80
6180
40C0
00C0
3FC0
7EC0
E0C0
C1C0
C3C0
FEE0
3CE0
ENDCHAR
STARTCHAR 006F
ENCODING 111
SWIDTH 495 0
DWIDTH 11 0
BBX 10 17 1 -5
BITMAP
1E00
7F80
6180
C0C0
C000
C000
C000
C000
C180
E180
7F80
3E00
0800
1C00
0600
0600
3C00
ENDCHAR
STARTCHAR 0070
ENCODING 112
SWIDTH 540 0
DWIDTH 12 0
BBX 10 16 1 0
BITMAP
0600
0C00
1800
0000
1F00
7F80
61C0
C0C0
C0C0
FFC0
FFC0
C000
C0C0
61C0
7F80
1F00
ENDCHAR
STARTCHAR 0071
ENCODING 113
SWIDTH 540 0
DWIDTH 12 0
BBX 10 16 1 0
BITMAP
1800
0C00
0400
0000
1F00
7F80
61C0
C0C0
C0C0
FFC0
FFC0
C000
C0C0
61C0
7F80
1F00
ENDCHAR
STARTCHAR 0072
ENCODING 114
SWIDTH 540 0
DWIDTH 12 0
BBX 10 16 1 0
BITMAP
0E00
1B00
3300
0000
1F00
7F80
61C0
C0C0
C0C0
FFC0
FFC0
C000
C0C0
61C0
7F80
1F00
ENDCHAR
STARTCHAR 0073
ENCODING 115
SWIDTH 540 0
DWIDTH 12 0
BBX 10 16 1 0
BITMAP
1B00
1B00
0000
0000
1F00
7F80
61C0
C0C0
C0C0
FFC0
FFC0
C000
C0C0
61C0
7F80
1F00
ENDCHAR
STARTCHAR 0074
ENCODING 116
SWIDTH 270 0
DWIDTH 6 0
BBX 4 16 1 0
BITMAP
30
60
C0
00
60
60
60
60
60
60
60
60
60
60
60
60
ENDCHAR
STARTCHAR 0075
ENCODING 117
SWIDTH 270 0
DWIDTH 6 0
BBX 3 16 1 0
BITMAP
C0
40
60
00
60
60
60
60
60
60
60
60
60
60
60
60
ENDCHAR
STARTCHAR 0076
ENCODING 118
SWIDTH 270 0
DWIDTH 6 0
BBX 6 16 0 0
BITMAP
38
68
CC
00
30
30
30
30
30
30
30
30
30
30
30
30
ENDCHAR
STARTCHAR 0077
ENCODING 119
SWIDTH 270 0
DWIDTH 6 0
BBX 6 16 0 0
BITMAP
CC
CC
00
00
30
30
30
30
30
30
30
30
30
30
30
30
ENDCHAR
STARTCHAR 0078
ENCODING 120
SWIDTH 540 0
DWIDTH 12 0
BBX 10 16 1 0
BITMAP
1C80
2780
2300
0000
CF00
DF80
F1C0
E0C0
C0C0
C0C0
C0C0
C0C0
C0C0
C0C0
C0C0
C0C0
ENDCHAR
STARTCHAR 0079
ENCODING 121
SWIDTH 540 0
DWIDTH 12 0
BBX 10 16 1 0
BITMAP
0600
0C00
1800
0000
1F00
7F80
61C0
C0C0
C0C0
C0C0
C0C0
C0C0
C0C0
E1C0
7F80
3E00
ENDCHAR
STARTCHAR 007A
ENCODING 122
SWIDTH 540 0
DWIDTH 12 0
BBX 10 16 1 0
BITMAP
3800
1800
0C00
0000
1F00
7F80
61C0
C0C0
C0C0
C0C0
C0C0
C0C0
C0C0
E1C0
7F80
3E00
ENDCHAR
STARTCHAR 007B
ENCODING 123
SWIDTH 540 0
DWIDTH 12 0
BBX 10 16 1 0
BITMAP
0E00
1A00
3300
0000
1F00
7F80
61C0
C0C0
C0C0
C0C0
C0C0
C0C0
C0C0
E1C0
7F80
3E00
ENDCHAR
STARTCHAR 007C
ENCODING 124
SWIDTH 540 0
DWIDTH 12 0
BBX 10 16 1 0
BITMAP
3300
3300
0000
0000
1F00
7F80
61C0
C0C0
C0C0
C0C0
C0C0
C0C0
C0C0
E1C0
7F80
3E00
ENDCHAR
STARTCHAR 007D
ENCODING 125
SWIDTH 540 0
DWIDTH 12 0
BBX 10 16 1 0
BITMAP
3880
2F80
2300
0000
1F00
7F80
61C0
C0C0
C0C0
C0C0
C0C0
C0C0
C0C0
E1C0
7F80
3E00
ENDCHAR
STARTCHAR 007E
ENCODING 126
SWIDTH 540 0
DWIDTH 12 0
BBX 10 16 1 0
BITMAP
0600
0C00
1800
0000
C0C0
C0C0
C0C0
C0C0
C0C0
C0C0
C0C0
C0C0
C1C0
63C0
7EC0
3CC0
ENDCHAR
STARTCHAR 007F
ENCODING 127
SWIDTH 540 0
DWIDTH 12 0
BBX 10 16 1 0
BITMAP
1800
0800
0C00
0000
C0C0
C0C0
C0C0
C0C0
C0C0
C0C0
C0C0
C0C0
C1C0
63C0
7EC0
3CC0
ENDCHAR
STARTCHAR 0080
ENCODING 128
SWIDTH 540 0
DWIDTH 12 0
BBX 10 16 1 0
BITMAP
0E00
1A00
3300
0000
C0C0
C0C0
C0C0
C0C0
C0C0
C0C0
C0C0
C0C0
C1C0
63C0
7EC0
3CC0
ENDCHAR
STARTCHAR 0081
ENCODING 129
SWIDTH 540 0
DWIDTH 12 0
BBX 10 16 1 0
BITMAP
3300
3300
0000
0000
C0C0
C0C0
C0C0
C0C0
C0C0
C0C0
C0C0
C0C0
C1C0
63C0
7EC0
3CC0
ENDCHAR
STARTCHAR 0082
ENCODING 130
SWIDTH 540 0
DWIDTH 12 0
BBX 10 20 1 -4
BITMAP
0C00
0C00
0C00
0C00
0C00
FFC0
FFC0
0C00
0C00
0C00
0C00
0C00
0C00
0C00
0C00
0C00
0C00
0C00
0C00
0C00
ENDCHAR
STARTCHAR 0083
ENCODING 131
SWIDTH 405 0
DWIDTH 9 0
BBX 7 7 1 9
BITMAP
38
44
C6
82
C6
44
38
ENDCHAR
STARTCHAR 0084
ENCODING 132
SWIDTH 540 0
DWIDTH 12 0
BBX 10 16 1 -2
BITMAP
0100
0100
1F00
3F80
72C0
62C0
C400
C400
C400
C800
E8C0
69C0
3F80
1F00
1000
1000
ENDCHAR
STARTCHAR 0085
ENCODING 133
SWIDTH 540 0
DWIDTH 12 0
BBX 11 16 1 0
BITMAP
1F00
7F80
61C0
E0C0
C0C0
C000
6000
6000
FE00
3000
3000
3000
2000
5E00
FFE0
C3C0
ENDCHAR
STARTCHAR 0086
ENCODING 134
SWIDTH 540 0
DWIDTH 12 0
BBX 10 21 1 -5
BITMAP
1E00
3F00
6180
6180
6000
3800
7C00
4F00
C380
C1C0
C0C0
E0C0
78C0
1CC0
0F80
0380
0180
6180
6180
3F80
1E00
ENDCHAR
STARTCHAR 0087
ENCODING 135
SWIDTH 360 0
DWIDTH 8 0
BBX 4 5 2 5
BITMAP
70
F0
F0
F0
60
ENDCHAR
STARTCHAR 0088
ENCODING 136
SWIDTH 540 0
DWIDTH 12 0
BBX 12 20 0 -4
BITMAP
1FF0
7C40
FC40
FC40
FC40
FC40
FC40
FC40
7C40
3C40
0C40
0C40
0C40
0C40
0C40
0C40
0C40
0C40
0C40
0C40
ENDCHAR
STARTCHAR 0089
ENCODING 137
SWIDTH 630 0
DWIDTH 14 0
BBX 10 16 2 0
BITMAP
3E00
7F80
6180
C180
C180
C180
CF00
CF80
C1C0
C0C0
C0C0
C0C0
C0C0
C180
CF80
CF00
ENDCHAR
STARTCHAR 008A
ENCODING 138
SWIDTH 720 0
DWIDTH 16 0
BBX 16 16 0 0
BITMAP
07E0
0C18
300C
2006
47E2
4631
8631
8621
87C1
8621
4631
4632
2006
300C
0C18
07E0
ENDCHAR
STARTCHAR 008B
ENCODING 139
SWIDTH 720 0
DWIDTH 16 0
BBX 16 16 0 0
BITMAP
07E0
1C18
300C
23C6
4632
4411
CC01
8C01
8C01
CC01
4411
4622
23C6
300C
0C18
07E0
ENDCHAR
STARTCHAR 008C
ENCODING 140
SWIDTH 990 0
DWIDTH 22 0
BBX 16 8 3 8
BITMAP
FCC3
30C7
30E5
30A5
30AD
30B9
3099
3099
ENDCHAR
STARTCHAR 008D
ENCODING 141
SWIDTH 315 0
DWIDTH 7 0
BBX 3 3 2 13
BITMAP
60
C0
80
ENDCHAR
STARTCHAR 008E
ENCODING 142
SWIDTH 315 0
DWIDTH 7 0
BBX 6 2 1 14
BITMAP
DC
DC
ENDCHAR
STARTCHAR 008F
ENCODING 143
SWIDTH 540 0
DWIDTH 12 0
BBX 11 12 1 0
BITMAP
0180
0180
0300
FFE0
FFE0
0600
0C00
0C00
FFE0
FFE0
1800
3000
ENDCHAR
STARTCHAR 0090
ENCODING 144
SWIDTH 990 0
DWIDTH 22 0
BBX 21 16 0 0
BITMAP
03FFF8
03FFF8
033000
063000
063000
0E3000
0C3000
0C3FF0
1C3FF0
183000
3FF000
3FF000
303000
703000
603FF8
E03FF8
ENDCHAR
STARTCHAR 0091
ENCODING 145
SWIDTH 765 0
DWIDTH 17 0
BBX 15 16 1 0
BITMAP
07E2
1FFE
383C
701C
603E
E066
C0C6
C186
C306
C206
C406
E80E
700C
3838
5FF0
8FE0
ENDCHAR
STARTCHAR 0092
ENCODING 146
SWIDTH 720 0
DWIDTH 16 0
BBX 15 9 0 3
BITMAP
3C38
7E7C
66C6
4386
C182
4386
67C6
7E7C
3C38
ENDCHAR
STARTCHAR 0093
ENCODING 147
SWIDTH 540 0
DWIDTH 12 0
BBX 11 13 1 0
BITMAP
0600
0600
0600
0600
FFE0
FFE0
0600
0600
0600
0600
0000
FFE0
FFE0
ENDCHAR
STARTCHAR 0094
ENCODING 148
SWIDTH 540 0
DWIDTH 12 0
BBX 11 12 1 1
BITMAP
00E0
07E0
3F00
F800
C000
F800
3F00
07E0
00E0
0000
FFE0
FFE0
ENDCHAR
STARTCHAR 0095
ENCODING 149
SWIDTH 540 0
DWIDTH 12 0
BBX 11 12 1 1
BITMAP
E000
FC00
1F80
03E0
0060
03E0
1F80
FC00
E000
0000
FFE0
FFE0
ENDCHAR
STARTCHAR 0096
ENCODING 150
SWIDTH 540 0
DWIDTH 12 0
BBX 12 16 0 0
BITMAP
C030
E070
6060
30E0
30C0
79E0
7DE0
0F00
0F00
7FE0
7FE0
0600
0600
0600
0600
0600
ENDCHAR
STARTCHAR 0097
ENCODING 151
SWIDTH 585 0
DWIDTH 13 0
BBX 13 17 -1 -5
BITMAP
0C18
1818
1830
1830
1830
1830
3030
3060
30E0
31E0
3F60
7E60
6000
6000
6000
C000
C000
ENDCHAR
STARTCHAR 0098
ENCODING 152
SWIDTH 495 0
DWIDTH 11 0
BBX 10 16 1 0
BITMAP
0E00
0F80
0180
00C0
00C0
00C0
1EC0
3FC0
71C0
E1C0
C1C0
C1C0
C180
6380
7F00
3C00
ENDCHAR
STARTCHAR 0099
ENCODING 153
SWIDTH 720 0
DWIDTH 16 0
BBX 13 19 0 -3
BITMAP
7FF8
7FF8
7000
3800
1C00
0C00
0600
0300
0380
01C0
0380
0300
0600
0C00
1800
3000
7000
FFF8
FFF8
ENDCHAR
STARTCHAR 009A
ENCODING 154
SWIDTH 810 0
DWIDTH 18 0
BBX 16 19 0 -3
BITMAP
FFFF
FFFF
300C
300C
300C
300C
300C
300C
300C
300C
300C
300C
300C
300C
300C
300C
300C
300C
300C
ENDCHAR
STARTCHAR 009B
ENCODING 155
SWIDTH 540 0
DWIDTH 12 0
BBX 12 12 1 0
BITMAP
FFF0
FFF0
60C0
60C0
60C0
60C0
60C0
60C0
60C0
60C0
6070
6070
ENDCHAR
STARTCHAR 009C
ENCODING 156
SWIDTH 270 0
DWIDTH 6 0
BBX 9 22 -1 -5
BITMAP
0780
0F80
0C00
0C00
1C00
1800
1800
1800
1800
1800
1800
1800
1800
1800
1800
1800
1800
1800
3000
3000
F000
E000
ENDCHAR
STARTCHAR 009D
ENCODING 157
SWIDTH 360 0
DWIDTH 8 0
BBX 7 7 1 9
BITMAP
78
CC
0C
FC
8C
8C
F6
ENDCHAR
STARTCHAR 009E
ENCODING 158
SWIDTH 360 0
DWIDTH 8 0
BBX 7 7 1 9
BITMAP
78
CC
86
86
84
CC
78
ENDCHAR
STARTCHAR 009F
ENCODING 159
SWIDTH 765 0
DWIDTH 17 0
BBX 15 16 1 0
BITMAP
07E0
1FF8
383C
700C
600E
E006
C006
C006
E006
E006
6006
700C
301C
1830
FC7E
FC7E
ENDCHAR
STARTCHAR 00A0
ENCODING 160
SWIDTH 900 0
DWIDTH 20 0
BBX 18 12 1 0
BITMAP
3E1E00
7FFF00
61E380
C0C1C0
0180C0
3FFFC0
7FFFC0
C18000
C1C1C0
C3E180
FE7F00
7C3E00
ENDCHAR
STARTCHAR 00A1
ENCODING 161
SWIDTH 630 0
DWIDTH 14 0
BBX 11 12 1 0
BITMAP
1F20
3FC0
70C0
60E0
C160
C260
C460
C860
70E0
71C0
7F80
9F00
ENDCHAR
STARTCHAR 00A2
ENCODING 162
SWIDTH 630 0
DWIDTH 14 0
BBX 10 16 2 -4
BITMAP
0C00
0C00
0000
0000
0C00
0C00
0C00
1800
3000
6000
C000
C0C0
C0C0
E180
7F80
3E00
ENDCHAR
STARTCHAR 00A3
ENCODING 163
SWIDTH 315 0
DWIDTH 7 0
BBX 2 16 3 -4
BITMAP
C0
C0
00
00
80
80
80
80
C0
C0
C0
C0
C0
C0
C0
C0
ENDCHAR
STARTCHAR 00A4
ENCODING 164
SWIDTH 585 0
DWIDTH 13 0
BBX 11 7 1 2
BITMAP
FFE0
FFE0
0060
0060
0060
0060
0060
ENDCHAR
STARTCHAR 00A5
ENCODING 165
SWIDTH 540 0
DWIDTH 12 0
BBX 14 21 0 0
BITMAP
0004
000C
000C
0008
0018
0018
0010
0030
0030
0020
1060
7040
9840
18C0
1880
0C80
0D80
0500
0700
0700
0200
ENDCHAR
STARTCHAR 00A6
ENCODING 166
SWIDTH 540 0
DWIDTH 12 0
BBX 11 20 1 -4
BITMAP
01E0
03E0
0300
0700
0600
0600
3F80
3F80
0600
0C00
0C00
0C00
0C00
1C00
1800
1800
1800
3000
F000
E000
ENDCHAR
STARTCHAR 00A7
ENCODING 167
SWIDTH 540 0
DWIDTH 12 0
BBX 11 8 1 2
BITMAP
7800
FE20
87E0
03C0
7800
FE20
87E0
03C0
ENDCHAR
STARTCHAR 00A8
ENCODING 168
SWIDTH 630 0
DWIDTH 14 0
BBX 14 16 1 0
BITMAP
0300
0780
0780
0780
0CC0
0CC0
0CC0
1860
1860
3030
3030
3030
6018
6018
7FF8
FFFC
ENDCHAR
STARTCHAR 00A9
ENCODING 169
SWIDTH 540 0
DWIDTH 12 0
BBX 8 7 2 3
BITMAP
31
73
C6
84
C6
73
31
ENDCHAR
STARTCHAR 00AA
ENCODING 170
SWIDTH 540 0
DWIDTH 12 0
BBX 8 7 2 3
BITMAP
84
C6
73
31
73
C6
84
ENDCHAR
STARTCHAR 00AB
ENCODING 171
SWIDTH 990 0
DWIDTH 22 0
BBX 17 2 3 0
BITMAP
C18380
C18380
ENDCHAR
STARTCHAR 00AC
ENCODING 172
SWIDTH 270 0
DWIDTH 6 0
BBX 0 0 0 0
BITMAP
ENDCHAR
STARTCHAR 00AD
ENCODING 173
SWIDTH 675 0
DWIDTH 15 0
BBX 13 20 1 0
BITMAP
0C00
0600
0200
0000
0700
0700
0D80
0D80
0D80
18C0
18C0
10C0
3060
3FE0
7FF0
6030
6030
C038
C018
C018
ENDCHAR
STARTCHAR 00AE
ENCODING 174
SWIDTH 675 0
DWIDTH 15 0
BBX 13 20 1 0
BITMAP
0E40
13C0
1180
0000
0700
0700
0D80
0D80
0D80
18C0
18C0
10C0
3060
3FE0
7FF0
6030
6030
C038
C018
C018
ENDCHAR
STARTCHAR 00AF
ENCODING 175
SWIDTH 765 0
DWIDTH 17 0
BBX 15 20 1 0
BITMAP
07A0
08E0
0840
0000
07E0
1FF8
383C
700C
600E
E006
C006
C006
C006
C006
C006
E00E
700C
3838
1FF0
0FE0
ENDCHAR
STARTCHAR 00B0
ENCODING 176
SWIDTH 990 0
DWIDTH 22 0
BBX 20 16 1 0
BITMAP
0F9FF0
3FDFF0
707800
603800
E03800
C03800
C03800
C03FF0
C03FF0
C03800
C03800
E03800
603800
707800
3FDFF0
0F9FF0
ENDCHAR
STARTCHAR 00B1
ENCODING 177
SWIDTH 945 0
DWIDTH 21 0
BBX 19 12 1 0
BITMAP
1F0F00
7FBFC0
61F0C0
C0E060
C0E060
C07FE0
C07FE0
C0C000
C0E060
61F0C0
7FBFC0
1E1F00
ENDCHAR
STARTCHAR 00B2
ENCODING 178
SWIDTH 540 0
DWIDTH 12 0
BBX 12 2 0 5
BITMAP
FFF0
FFF0
ENDCHAR
STARTCHAR 00B3
ENCODING 179
SWIDTH 990 0
DWIDTH 22 0
BBX 17 2 3 5
BITMAP
FFFF80
FFFF80
ENDCHAR
STARTCHAR 00B4
ENCODING 180
SWIDTH 315 0
DWIDTH 7 0
BBX 6 5 1 11
BITMAP
4C
88
88
DC
DC
ENDCHAR
STARTCHAR 00B5
ENCODING 181
SWIDTH 315 0
DWIDTH 7 0
BBX 6 5 1 11
BITMAP
DC
DC
44
4C
98
ENDCHAR
STARTCHAR 00B6
ENCODING 182
SWIDTH 225 0
DWIDTH 5 0
BBX 3 5 1 11
BITMAP
60
40
C0
E0
E0
ENDCHAR
STARTCHAR 00B7
ENCODING 183
SWIDTH 225 0
DWIDTH 5 0
BBX 2 5 2 11
BITMAP
C0
C0
40
40
80
ENDCHAR
STARTCHAR 00B8
ENCODING 184
SWIDTH 540 0
DWIDTH 12 0
BBX 11 12 1 0
BITMAP
0600
0600
0000
0000
0000
FFE0
FFE0
0000
0000
0000
0600
0600
ENDCHAR
STARTCHAR 00B9
ENCODING 185
SWIDTH 495 0
DWIDTH 11 0
BBX 9 16 1 0
BITMAP
0800
0800
1C00
3600
3600
6300
4100
C180
C180
4100
6300
3600
3600
1C00
0800
0800
ENDCHAR
STARTCHAR 00BA
ENCODING 186
SWIDTH 495 0
DWIDTH 11 0
BBX 11 21 0 -5
BITMAP
1B00
1B00
0000
0000
E060
60C0
60C0
70C0
3180
3180
3180
1B00
1B00
1B00
0E00
0E00
0C00
0C00
0C00
7800
7000
ENDCHAR
STARTCHAR 00BB
ENCODING 187
SWIDTH 675 0
DWIDTH 15 0
BBX 13 20 1 0
BITMAP
0DC0
0DC0
0000
0000
C018
E038
6030
3070
38E0
18C0
1DC0
0D80
0780
0700
0700
0700
0700
0700
0700
0700
ENDCHAR
STARTCHAR 00BC
ENCODING 188
SWIDTH 180 0
DWIDTH 4 0
BBX 10 16 -3 0
BITMAP
0040
0080
0180
0100
0300
0200
0400
0C00
0800
1800
1000
2000
6000
4000
C000
8000
ENDCHAR
STARTCHAR 00BD
ENCODING 189
SWIDTH 765 0
DWIDTH 17 0
BBX 14 16 1 0
BITMAP
03E0
07F8
0E1C
180C
180C
FFE0
FFC0
1000
1000
FFE0
FFC4
180C
180C
0C18
07F0
03E0
ENDCHAR
STARTCHAR 00BE
ENCODING 190
SWIDTH 315 0
DWIDTH 7 0
BBX 3 7 2 3
BITMAP
20
60
C0
80
C0
60
20
ENDCHAR
STARTCHAR 00BF
ENCODING 191
SWIDTH 315 0
DWIDTH 7 0
BBX 3 7 2 3
BITMAP
80
C0
60
20
60
C0
80
ENDCHAR
STARTCHAR 00C0
ENCODING 192
SWIDTH 495 0
DWIDTH 11 0
BBX 10 16 0 0
BITMAP
1CC0
3CC0
3000
3000
FCC0
FCC0
30C0
30C0
30C0
30C0
30C0
30C0
30C0
30C0
30C0
30C0
ENDCHAR
STARTCHAR 00C1
ENCODING 193
SWIDTH 495 0
DWIDTH 11 0
BBX 10 16 0 0
BITMAP
1CC0
3CC0
30C0
30C0
FCC0
FCC0
30C0
30C0
30C0
30C0
30C0
30C0
30C0
30C0
30C0
30C0
ENDCHAR
STARTCHAR 00C2
ENCODING 194
SWIDTH 540 0
DWIDTH 12 0
BBX 10 20 1 -4
BITMAP
0C00
0C00
0C00
0C00
FFC0
FFC0
0C00
0C00
0C00
0C00
0C00
0C00
0C00
FFC0
FFC0
0C00
0C00
0C00
0C00
0C00
ENDCHAR
STARTCHAR 00C3
ENCODING 195
SWIDTH 270 0
DWIDTH 6 0
BBX 2 3 2 6
BITMAP
C0
C0
C0
ENDCHAR
STARTCHAR 00C4
ENCODING 196
SWIDTH 225 0
DWIDTH 5 0
BBX 2 5 2 -3
BITMAP
C0
C0
40
40
80
ENDCHAR
STARTCHAR 00C5
ENCODING 197
SWIDTH 315 0
DWIDTH 7 0
BBX 6 5 1 -3
BITMAP
DC
DC
44
4C
98
ENDCHAR
STARTCHAR 00C6
ENCODING 198
SWIDTH 990 0
DWIDTH 22 0
BBX 22 17 0 -1
BITMAP
381000
7C2000
C62000
C24000
C64000
7C8000
398000
010000
030000
027070
06F8F8
058D8C
090D84
098D8C
10F8F8
107070
200000
ENDCHAR
STARTCHAR 00C7
ENCODING 199
SWIDTH 675 0
DWIDTH 15 0
BBX 13 20 1 0
BITMAP
0700
0D80
08C0
0000
0700
0700
0D80
0D80
0D80
18C0
18C0
10C0
3060
3FE0
7FF0
6030
6030
C038
C018
C018
ENDCHAR
STARTCHAR 00C8
ENCODING 200
SWIDTH 675 0
DWIDTH 15 0
BBX 12 20 2 0
BITMAP
0600
0F00
1980
0000
FFF0
FFF0
C000
C000
C000
C000
C000
FFE0
FFE0
C000
C000
C000
C000
C000
FFF0
FFF0
ENDCHAR
STARTCHAR 00C9
ENCODING 201
SWIDTH 675 0
DWIDTH 15 0
BBX 13 20 1 0
BITMAP
0300
0600
0400
0000
0700
0700
0D80
0D80
0D80
18C0
18C0
10C0
3060
3FE0
7FF0
6030
6030
C038
C018
C018
ENDCHAR
STARTCHAR 00CA
ENCODING 202
SWIDTH 675 0
DWIDTH 15 0
BBX 12 20 2 0
BITMAP
1980
1980
0000
0000
FFF0
FFF0
C000
C000
C000
C000
C000
FFE0
FFE0
C000
C000
C000
C000
C000
FFF0
FFF0
ENDCHAR
STARTCHAR 00CB
ENCODING 203
SWIDTH 675 0
DWIDTH 15 0
BBX 12 20 2 0
BITMAP
1800
0C00
0600
0000
FFF0
FFF0
C000
C000
C000
C000
C000
FFE0
FFE0
C000
C000
C000
C000
C000
FFF0
FFF0
ENDCHAR
STARTCHAR 00CC
ENCODING 204
SWIDTH 270 0
DWIDTH 6 0
BBX 3 20 2 0
BITMAP
60
C0
80
00
C0
C0
C0
C0
C0
C0
C0
C0
C0
C0
C0
C0
C0
C0
C0
C0
ENDCHAR
STARTCHAR 00CD
ENCODING 205
SWIDTH 270 0
DWIDTH 6 0
BBX 6 20 0 0
BITMAP
38
78
CC
00
30
30
30
30
30
30
30
30
30
30
30
30
30
30
30
30
ENDCHAR
STARTCHAR 00CE
ENCODING 206
SWIDTH 270 0
DWIDTH 6 0
BBX 6 20 0 0
BITMAP
CC
CC
00
00
30
30
30
30
30
30
30
30
30
30
30
30
30
30
30
30
ENDCHAR
STARTCHAR 00CF
ENCODING 207
SWIDTH 270 0
DWIDTH 6 0
BBX 4 20 0 0
BITMAP
E0
60
30
00
30
30
30
30
30
30
30
30
30
30
30
30
30
30
30
30
ENDCHAR
STARTCHAR 00D0
ENCODING 208
SWIDTH 765 0
DWIDTH 17 0
BBX 15 20 1 0
BITMAP
0180
0300
0200
0000
07E0
1FF8
383C
700C
600E
E006
C006
C006
C006
C006
C006
E00E
700C
3838
1FF0
0FE0
ENDCHAR
STARTCHAR 00D1
ENCODING 209
SWIDTH 765 0
DWIDTH 17 0
BBX 15 20 1 0
BITMAP
03C0
0640
0460
0000
07E0
1FF8
383C
700C
600E
E006
C006
C006
C006
C006
C006
E00E
700C
3838
1FF0
0FE0
ENDCHAR
STARTCHAR 00D2
ENCODING 210
SWIDTH 810 0
DWIDTH 18 0
BBX 15 19 1 -1
BITMAP
0020
0060
00E0
00C0
3FFC
7FFE
7FFC
FFF8
FFF8
FFF8
FFF8
FFFC
7FFE
7FFE
7FFE
3FFC
3FFC
1E78
0C00
ENDCHAR
STARTCHAR 00D3
ENCODING 211
SWIDTH 765 0
DWIDTH 17 0
BBX 15 20 1 0
BITMAP
0700
0100
0080
0000
07E0
1FF8
383C
700C
600E
E006
C006
C006
C006
C006
C006
E00E
700C
3838
1FF0
0FE0
ENDCHAR
STARTCHAR 00D4
ENCODING 212
SWIDTH 720 0
DWIDTH 16 0
BBX 12 20 2 0
BITMAP
0300
0600
0C00
0000
C030
C030
C030
C030
C030
C030
C030
C030
C030
C030
C030
C030
E070
70E0
3FE0
1F80
ENDCHAR
STARTCHAR 00D5
ENCODING 213
SWIDTH 720 0
DWIDTH 16 0
BBX 12 20 2 0
BITMAP
0700
0D00
1980
0000
C030
C030
C030
C030
C030
C030
C030
C030
C030
C030
C030
C030
E070
70E0
3FE0
1F80
ENDCHAR
STARTCHAR 00D6
ENCODING 214
SWIDTH 720 0
DWIDTH 16 0
BBX 12 20 2 0
BITMAP
0C00
0600
0200
0000
C030
C030
C030
C030
C030
C030
C030
C030
C030
C030
C030
C030
E070
70E0
3FE0
1F80
ENDCHAR
STARTCHAR 00D7
ENCODING 215
SWIDTH 270 0
DWIDTH 6 0
BBX 2 12 2 0
BITMAP
C0
C0
C0
C0
C0
C0
C0
C0
C0
C0
C0
C0
ENDCHAR
STARTCHAR 00D8
ENCODING 216
SWIDTH 315 0
DWIDTH 7 0
BBX 6 3 1 13
BITMAP
70
58
CC
ENDCHAR
STARTCHAR 00D9
ENCODING 217
SWIDTH 315 0
DWIDTH 7 0
BBX 7 3 0 13
BITMAP
72
9E
8C
ENDCHAR
STARTCHAR 00DA
ENCODING 218
SWIDTH 315 0
DWIDTH 7 0
BBX 7 1 0 14
BITMAP
FE
ENDCHAR
STARTCHAR 00DB
ENCODING 219
SWIDTH 315 0
DWIDTH 7 0
BBX 7 3 0 13
BITMAP
C2
46
3C
ENDCHAR
STARTCHAR 00DC
ENCODING 220
SWIDTH 315 0
DWIDTH 7 0
BBX 2 2 3 14
BITMAP
C0
C0
ENDCHAR
STARTCHAR 00DD
ENCODING 221
SWIDTH 315 0
DWIDTH 7 0
BBX 5 5 1 13
BITMAP
70
48
88
48
70
ENDCHAR
STARTCHAR 00DE
ENCODING 222
SWIDTH 315 0
DWIDTH 7 0
BBX 5 5 1 -5
BITMAP
20
78
18
18
F0
ENDCHAR
STARTCHAR 00DF
ENCODING 223
SWIDTH 315 0
DWIDTH 7 0
BBX 7 3 0 13
BITMAP
66
6C
C8
ENDCHAR
STARTCHAR 00E0
ENCODING 224
SWIDTH 315 0
DWIDTH 7 0
BBX 4 5 2 -5
BITMAP
60
C0
C0
F0
F0
ENDCHAR
STARTCHAR 00E1
ENCODING 225
SWIDTH 315 0
DWIDTH 7 0
BBX 6 3 1 13
BITMAP
CC
58
70
ENDCHAR
STARTCHAR 00E2
ENCODING 226
SWIDTH 540 0
DWIDTH 12 0
BBX 12 16 0 0
BITMAP
3000
3000
3000
3000
3000
3600
3E00
3800
F000
B000
3000
3000
3000
3000
3FF0
3FF0
ENDCHAR
STARTCHAR 00E3
ENCODING 227
SWIDTH 225 0
DWIDTH 5 0
BBX 5 16 0 0
BITMAP
60
60
60
60
60
60
68
78
60
E0
E0
60
60
60
60
60
ENDCHAR
STARTCHAR 00E4
ENCODING 228
SWIDTH 675 0
DWIDTH 15 0
BBX 13 20 1 0
BITMAP
0C80
0D80
0700
0000
1F80
3FE0
7070
6030
6030
6000
7800
3FC0
0FF0
0070
0038
C018
E038
7070
3FE0
1FC0
ENDCHAR
STARTCHAR 00E5
ENCODING 229
SWIDTH 495 0
DWIDTH 11 0
BBX 9 16 1 0
BITMAP
3300
3600
1C00
0000
3E00
7F00
C380
C180
E000
7E00
1F80
0180
C180
C180
7F80
3E00
ENDCHAR
STARTCHAR 00E6
ENCODING 230
SWIDTH 630 0
DWIDTH 14 0
BBX 12 20 1 0
BITMAP
1980
0D00
0700
0000
FFF0
FFF0
0070
00E0
01C0
0380
0300
0700
0E00
1C00
3800
3000
6000
E000
FFF0
FFF0
ENDCHAR
STARTCHAR 00E7
ENCODING 231
SWIDTH 495 0
DWIDTH 11 0
BBX 9 16 1 0
BITMAP
3300
1600
1C00
0000
FF80
FF80
0380
0700
0E00
0C00
1800
3000
6000
E000
FF80
FF80
ENDCHAR
STARTCHAR 00E8
ENCODING 232
SWIDTH 270 0
DWIDTH 6 0
BBX 1 16 2 0
BITMAP
80
80
80
80
80
80
00
00
00
00
80
80
80
80
80
80
ENDCHAR
STARTCHAR 00E9
ENCODING 233
SWIDTH 720 0
DWIDTH 16 0
BBX 15 16 0 0
BITMAP
3FE0
3FF8
3038
300C
300C
300E
3006
FF86
FF86
3006
300E
300C
301C
3038
3FF0
3FE0
ENDCHAR
STARTCHAR 00EA
ENCODING 234
SWIDTH 540 0
DWIDTH 12 0
BBX 11 18 1 0
BITMAP
3200
3C00
1C00
2E00
0700
0300
3F80
7F80
E1C0
C0C0
C0C0
C0E0
C0C0
C0C0
C0C0
E1C0
7F80
3E00
ENDCHAR
STARTCHAR 00EB
ENCODING 235
SWIDTH 675 0
DWIDTH 15 0
BBX 13 20 1 0
BITMAP
0300
0200
0400
0000
C018
E038
6030
3070
38E0
18C0
1DC0
0D80
0780
0700
0700
0700
0700
0700
0700
0700
ENDCHAR
STARTCHAR 00EC
ENCODING 236
SWIDTH 495 0
DWIDTH 11 0
BBX 11 21 0 -5
BITMAP
0300
0600
0C00
0000
E060
60C0
60C0
70C0
3180
3180
3180
1B00
1B00
1B00
0E00
0E00
0C00
0C00
0C00
7800
7000
ENDCHAR
STARTCHAR 00ED
ENCODING 237
SWIDTH 675 0
DWIDTH 15 0
BBX 12 16 1 0
BITMAP
E000
E000
E000
FFC0
FFE0
E070
E030
E030
E030
E070
FFE0
FFC0
E000
E000
E000
E000
ENDCHAR
STARTCHAR 00EE
ENCODING 238
SWIDTH 540 0
DWIDTH 12 0
BBX 11 21 1 -5
BITMAP
C000
C000
C000
C000
CF00
DF80
F1C0
E0C0
C0C0
C060
C060
C0C0
E0C0
F1C0
FF80
DF00
C000
C000
C000
C000
C000
ENDCHAR
STARTCHAR 00EF
ENCODING 239
SWIDTH 585 0
DWIDTH 13 0
BBX 11 2 1 5
BITMAP
FFE0
FFE0
ENDCHAR
STARTCHAR 00F0
ENCODING 240
SWIDTH 585 0
DWIDTH 13 0
BBX 10 10 2 1
BITMAP
C0C0
E180
7300
3E00
1C00
1C00
3E00
7300
E180
C0C0
ENDCHAR
STARTCHAR 00F1
ENCODING 241
SWIDTH 315 0
DWIDTH 7 0
BBX 4 9 1 7
BITMAP
10
30
F0
30
30
30
30
30
30
ENDCHAR
STARTCHAR 00F2
ENCODING 242
SWIDTH 315 0
DWIDTH 7 0
BBX 7 9 0 7
BITMAP
3C
46
C6
06
0E
3C
70
40
FE
ENDCHAR
STARTCHAR 00F3
ENCODING 243
SWIDTH 315 0
DWIDTH 7 0
BBX 7 9 0 7
BITMAP
3C
46
C6
06
1C
06
C6
C6
7C
ENDCHAR
STARTCHAR 00F4
ENCODING 244
SWIDTH 855 0
DWIDTH 19 0
BBX 16 16 1 0
BITMAP
1010
3030
F020
3060
3040
3080
3180
311E
3333
0221
0603
0407
081E
1838
1030
307F
ENDCHAR
STARTCHAR 00F5
ENCODING 245
SWIDTH 855 0
DWIDTH 19 0
BBX 16 16 2 0
BITMAP
3018
3010
F030
3020
3040
30C0
3080
3184
310C
0214
0634
0464
0CC4
08FF
1804
3004
ENDCHAR
STARTCHAR 00F6
ENCODING 246
SWIDTH 855 0
DWIDTH 19 0
BBX 17 16 1 0
BITMAP
780400
C40C00
C40800
041800
181000
062000
866000
C64300
78C700
008F00
011B00
033300
022300
063F80
0C0300
080300
ENDCHAR
STARTCHAR 00F7
ENCODING 247
SWIDTH 540 0
DWIDTH 12 0
BBX 12 16 0 0
BITMAP
3FF0
3FF0
3000
3000
3000
3000
3000
3FE0
3FE0
3000
3000
3000
FE00
FE00
3000
3000
ENDCHAR
STARTCHAR 00F8
ENCODING 248
SWIDTH 765 0
DWIDTH 17 0
BBX 15 21 1 0
BITMAP
0C20
0460
03C0
0000
0000
07E0
1FF0
3838
701C
600C
E000
C000
C0FE
C0FE
C006
E00E
600E
700E
383E
1FF6
0FC6
ENDCHAR
STARTCHAR 00F9
ENCODING 249
SWIDTH 540 0
DWIDTH 12 0
BBX 10 21 1 -5
BITMAP
6100
2300
1E00
0000
3EC0
7FC0
E1C0
C0C0
C0C0
C0C0
C0C0
C0C0
C1C0
E1C0
7FC0
3EC0
00C0
00C0
C180
7F80
3E00
ENDCHAR
STARTCHAR 00FA
ENCODING 250
SWIDTH 270 0
DWIDTH 6 0
BBX 2 20 2 0
BITMAP
C0
C0
00
00
C0
C0
C0
C0
C0
C0
C0
C0
C0
C0
C0
C0
C0
C0
C0
C0
ENDCHAR
STARTCHAR 00FB
ENCODING 251
SWIDTH 675 0
DWIDTH 15 0
BBX 13 21 1 -5
BITMAP
1F80
3FE0
7070
6030
6030
6000
7800
3F80
0FE0
00F0
0038
C018
E038
7070
3FF0
1FC0
0400
0700
0180
0100
0F00
ENDCHAR
STARTCHAR 00FC
ENCODING 252
SWIDTH 495 0
DWIDTH 11 0
BBX 9 17 1 -5
BITMAP
3E00
7F00
C380
C180
E000
7E00
0F80
0180
C180
C180
7F80
3E00
1800
1C00
0600
0600
3C00
ENDCHAR
STARTCHAR 00FD
ENCODING 253
SWIDTH 720 0
DWIDTH 16 0
BBX 14 21 1 0
BITMAP
00C0
0180
0300
0000
0000
0FC0
1FF0
3838
701C
600C
E000
C000
C000
C000
C000
C00C
600C
7018
3838
1FF0
0FC0
ENDCHAR
STARTCHAR 00FE
ENCODING 254
SWIDTH 495 0
DWIDTH 11 0
BBX 10 16 1 0
BITMAP
0600
0C00
1800
0000
1E00
7F80
6180
C0C0
C000
C000
C000
C000
C180
E180
7F80
3E00
ENDCHAR
STARTCHAR 00FF
ENCODING 255
SWIDTH 720 0
DWIDTH 16 0
BBX 14 20 1 0
BITMAP
0CC0
0780
0300
0000
0FC0
1FF0
3838
701C
600C
E000
C000
C000
C000
C000
C00C
600C
7018
3838
1FF0
0FC0
ENDCHAR
STARTCHAR 0100
ENCODING 256
SWIDTH 495 0
DWIDTH 11 0
BBX 10 16 1 0
BITMAP
3300
1E00
1C00
0000
1E00
7F80
6180
C0C0
C000
C000
C000
C000
C180
E180
7F80
3E00
ENDCHAR
STARTCHAR 0101
ENCODING 257
SWIDTH 540 0
DWIDTH 12 0
BBX 11 16 1 0
BITMAP
00C0
00C0
0FE0
00C0
3EC0
7FC0
E1C0
C0C0
C0C0
C0C0
C0C0
C0C0
C0C0
E1C0
7FC0
3CC0
ENDCHAR
STARTCHAR 0102
ENCODING 258
SWIDTH 675 0
DWIDTH 15 0
BBX 13 18 1 0
BITMAP
1FC0
0000
0700
0700
0D80
0D80
0D80
18C0
18C0
10C0
3060
3FE0
7FF0
6030
6030
C038
C018
C018
ENDCHAR
STARTCHAR 0103
ENCODING 259
SWIDTH 540 0
DWIDTH 12 0
BBX 11 14 1 0
BITMAP
3F00
0000
1F00
7F80
6180
40C0
00C0
3FC0
7EC0
E0C0
C1C0
C3C0
FEE0
3CE0
ENDCHAR
STARTCHAR 0104
ENCODING 260
SWIDTH 675 0
DWIDTH 15 0
BBX 13 20 1 0
BITMAP
1840
08C0
0780
0000
0700
0700
0D80
0D80
0D80
18C0
18C0
10C0
3060
3FE0
7FF0
6030
6030
C038
C018
C018
ENDCHAR
STARTCHAR 0105
ENCODING 261
SWIDTH 540 0
DWIDTH 12 0
BBX 11 17 1 -1
BITMAP
2100
2100
1E00
0000
1F00
7F80
61C0
40C0
00C0
07C0
7EC0
E0C0
C0C0
C1C0
E3C0
7EE0
3CE0
ENDCHAR
STARTCHAR 0106
ENCODING 262
SWIDTH 675 0
DWIDTH 15 0
BBX 14 21 1 -5
BITMAP
0700
0700
0D80
0D80
0D80
18C0
18C0
10C0
3060
3FE0
7FF0
6030
6030
C038
C018
C018
0018
0030
0030
003C
003C
ENDCHAR
STARTCHAR 0107
ENCODING 263
SWIDTH 540 0
DWIDTH 12 0
BBX 11 17 1 -5
BITMAP
1F00
7F80
6180
40C0
00C0
3FC0
7EC0
E0C0
C1C0
C3C0
FEE0
3CE0
0040
0080
0180
01E0
00E0
ENDCHAR
STARTCHAR 0108
ENCODING 264
SWIDTH 720 0
DWIDTH 16 0
BBX 14 20 1 0
BITMAP
0380
06C0
0440
0000
0FC0
1FF0
3838
701C
600C
E000
C000
C000
C000
C000
C00C
600C
7018
3838
1FF0
0FC0
ENDCHAR
STARTCHAR 0109
ENCODING 265
SWIDTH 495 0
DWIDTH 11 0
BBX 10 16 1 0
BITMAP
0E00
1A00
3300
0000
1E00
7F80
6180
C0C0
C000
C000
C000
C000
C180
E180
7F80
3E00
ENDCHAR
STARTCHAR 010A
ENCODING 266
SWIDTH 720 0
DWIDTH 16 0
BBX 14 21 1 0
BITMAP
0300
0300
0000
0000
0000
0FC0
1FF0
3838
701C
600C
E000
C000
C000
C000
C000
C00C
600C
7018
3838
1FF0
0FC0
ENDCHAR
STARTCHAR 010B
ENCODING 267
SWIDTH 495 0
DWIDTH 11 0
BBX 10 16 1 0
BITMAP
0C00
0C00
0000
0000
1E00
7F80
6180
C0C0
C000
C000
C000
C000
C180
E180
7F80
3E00
ENDCHAR
STARTCHAR 010C
ENCODING 268
SWIDTH 720 0
DWIDTH 16 0
BBX 13 20 2 0
BITMAP
1980
0D00
0700
0000
FF80
FFE0
C0E0
C030
C030
C038
C018
C018
C018
C018
C038
C030
C070
C0E0
FFC0
FF80
ENDCHAR
STARTCHAR 010D
ENCODING 269
SWIDTH 675 0
DWIDTH 15 0
BBX 13 20 1 -1
BITMAP
0018
0018
0008
00C8
00D8
00D0
00C0
3EC0
7FC0
61C0
C0C0
C0C0
C0C0
C0C0
C0C0
C0C0
C1C0
61C0
7FC0
3EC0
ENDCHAR
STARTCHAR 010E
ENCODING 270
SWIDTH 675 0
DWIDTH 15 0
BBX 12 18 2 0
BITMAP
1FC0
0000
FFF0
FFF0
C000
C000
C000
C000
C000
FFE0
FFE0
C000
C000
C000
C000
C000
FFF0
FFF0
ENDCHAR
STARTCHAR 010F
ENCODING 271
SWIDTH 540 0
DWIDTH 12 0
BBX 10 14 1 0
BITMAP
3F80
0000
1F00
7F80
61C0
C0C0
C0C0
FFC0
FFC0
C000
C0C0
61C0
7F80
1F00
ENDCHAR
STARTCHAR 0110
ENCODING 272
SWIDTH 675 0
DWIDTH 15 0
BBX 12 20 2 0
BITMAP
1080
1080
0F00
0000
FFF0
FFF0
C000
C000
C000
C000
C000
FFE0
FFE0
C000
C000
C000
C000
C000
FFF0
FFF0
ENDCHAR
STARTCHAR 0111
ENCODING 273
SWIDTH 540 0
DWIDTH 12 0
BBX 10 17 1 -1
BITMAP
2080
3100
1E00
0000
1E00
3F80
61C0
C0C0
C0C0
FFC0
FFC0
C000
C000
C0C0
6180
7F80
1E00
ENDCHAR
STARTCHAR 0112
ENCODING 274
SWIDTH 675 0
DWIDTH 15 0
BBX 12 20 2 0
BITMAP
0600
0600
0000
0000
FFF0
FFF0
C000
C000
C000
C000
C000
FFE0
FFE0
C000
C000
C000
C000
C000
FFF0
FFF0
ENDCHAR
STARTCHAR 0113
ENCODING 275
SWIDTH 540 0
DWIDTH 12 0
BBX 10 16 1 0
BITMAP
0C00
0C00
0000
0000
1F00
7F80
61C0
C0C0
C0C0
FFC0
FFC0
C000
C0C0
61C0
7F80
1F00
ENDCHAR
STARTCHAR 0114
ENCODING 276
SWIDTH 675 0
DWIDTH 15 0
BBX 12 21 2 -5
BITMAP
FFF0
FFF0
C000
C000
C000
C000
C000
FFE0
FFE0
C000
C000
C000
C000
C000
FFF0
FFF0
0100
0200
0600
0780
0380
ENDCHAR
STARTCHAR 0115
ENCODING 277
SWIDTH 540 0
DWIDTH 12 0
BBX 10 17 1 -5
BITMAP
1F00
7F80
61C0
C0C0
C0C0
FFC0
FFC0
C000
C0C0
61C0
7F80
1F00
0C00
1800
1800
1E00
1E00
ENDCHAR
STARTCHAR 0116
ENCODING 278
SWIDTH 675 0
DWIDTH 15 0
BBX 12 20 2 0
BITMAP
1980
0B00
0E00
0000
FFF0
FFF0
C000
C000
C000
C000
C000
FFE0
FFE0
C000
C000
C000
C000
C000
FFF0
FFF0
ENDCHAR
STARTCHAR 0117
ENCODING 279
SWIDTH 540 0
DWIDTH 12 0
BBX 10 16 1 0
BITMAP
3300
1A00
0E00
0000
1F00
7F80
61C0
C0C0
C0C0
FFC0
FFC0
C000
C0C0
61C0
7F80
1F00
ENDCHAR
STARTCHAR 0118
ENCODING 280
SWIDTH 765 0
DWIDTH 17 0
BBX 15 20 1 0
BITMAP
0380
03C0
0660
0000
07E0
1FF8
3838
700C
600C
E000
C000
C000
C0FE
C0FE
E006
600E
700E
383E
1FF6
0FC6
ENDCHAR
STARTCHAR 0119
ENCODING 281
SWIDTH 540 0
DWIDTH 12 0
BBX 10 21 1 -5
BITMAP
1C00
3600
2200
0000
3CC0
7FC0
E1C0
C0C0
C0C0
C0C0
C0C0
C0C0
C1C0
E1C0
7FC0
3EC0
00C0
00C0
C180
7F80
3E00
ENDCHAR
STARTCHAR 011A
ENCODING 282
SWIDTH 765 0
DWIDTH 17 0
BBX 15 20 1 0
BITMAP
0180
0180
0000
0000
07E0
1FF8
3838
700C
600C
E000
C000
C000
C0FE
C0FE
E006
600E
700E
383E
1FF6
0FC6
ENDCHAR
STARTCHAR 011B
ENCODING 283
SWIDTH 540 0
DWIDTH 12 0
BBX 10 21 1 -5
BITMAP
1C00
1C00
0000
0000
3CC0
7FC0
E1C0
C0C0
C0C0
C0C0
C0C0
C0C0
C1C0
E1C0
7FC0
3EC0
00C0
00C0
C180
7F80
3E00
ENDCHAR
STARTCHAR 011C
ENCODING 284
SWIDTH 765 0
DWIDTH 17 0
BBX 15 21 1 -5
BITMAP
07E0
1FF8
3838
700C
600C
E000
C000
C000
C0FE
C0FE
E006
600E
700E
383E
1FF6
0FC6
0100
03C0
00C0
00C0
0780
ENDCHAR
STARTCHAR 011D
ENCODING 285
SWIDTH 540 0
DWIDTH 12 0
BBX 10 22 1 -10
BITMAP
3CC0
7FC0
E1C0
C0C0
C0C0
C0C0
C0C0
C0C0
C1C0
E1C0
7FC0
3EC0
00C0
00C0
C180
7F80
3E00
0800
0E00
0200
0200
1E00
ENDCHAR
STARTCHAR 011E
ENCODING 286
SWIDTH 540 0
DWIDTH 12 0
BBX 10 21 1 -5
BITMAP
0600
0C00
0800
0000
3CC0
7FC0
E1C0
C0C0
C0C0
C0C0
C0C0
C0C0
C1C0
E1C0
7FC0
3EC0
00C0
00C0
C180
7F80
3E00
ENDCHAR
STARTCHAR 011F
ENCODING 287
SWIDTH 720 0
DWIDTH 16 0
BBX 12 19 2 0
BITMAP
0700
0D00
1980
C030
C030
C030
C030
C030
C030
C030
FFF0
FFF0
C030
C030
C030
C030
C030
C030
C030
ENDCHAR
STARTCHAR 0120
ENCODING 288
SWIDTH 540 0
DWIDTH 12 0
BBX 10 20 1 0
BITMAP
0600
0F00
1980
0000
C000
C000
C000
C000
CF00
DF80
F1C0
E0C0
E0C0
C0C0
C0C0
C0C0
C0C0
C0C0
C0C0
C0C0
ENDCHAR
STARTCHAR 0121
ENCODING 289
SWIDTH 720 0
DWIDTH 16 0
BBX 15 16 1 0
BITMAP
6018
6018
FFFE
FFFE
6018
6018
6018
7FF8
7FF8
6018
6018
6018
6018
6018
6018
6018
ENDCHAR
STARTCHAR 0122
ENCODING 290
SWIDTH 540 0
DWIDTH 12 0
BBX 10 16 1 0
BITMAP
C000
C000
FE00
C000
CF00
DF80
F1C0
E0C0
E0C0
C0C0
C0C0
C0C0
C0C0
C0C0
C0C0
C0C0
ENDCHAR
STARTCHAR 0123
ENCODING 291
SWIDTH 450 0
DWIDTH 10 0
BBX 8 20 1 0
BITMAP
7F
8E
00
00
18
18
18
18
18
18
18
18
18
18
18
18
18
18
18
18
ENDCHAR
STARTCHAR 0124
ENCODING 292
SWIDTH 450 0
DWIDTH 10 0
BBX 7 17 1 0
BITMAP
72
9E
8C
00
00
30
30
30
30
30
30
30
30
30
30
30
30
ENDCHAR
STARTCHAR 0125
ENCODING 293
SWIDTH 405 0
DWIDTH 9 0
BBX 7 18 1 0
BITMAP
FE
00
38
38
38
38
38
38
38
38
38
38
38
38
38
38
38
38
ENDCHAR
STARTCHAR 0126
ENCODING 294
SWIDTH 405 0
DWIDTH 9 0
BBX 7 14 1 0
BITMAP
FE
00
30
30
30
30
30
30
30
30
30
30
30
30
ENDCHAR
STARTCHAR 0127
ENCODING 295
SWIDTH 270 0
DWIDTH 6 0
BBX 3 21 1 -5
BITMAP
60
60
60
60
60
60
60
60
60
60
60
60
60
60
60
60
60
C0
C0
E0
E0
ENDCHAR
STARTCHAR 0128
ENCODING 296
SWIDTH 225 0
DWIDTH 5 0
BBX 4 21 0 -5
BITMAP
60
60
00
00
60
60
60
60
60
60
60
60
60
60
60
60
60
C0
C0
F0
F0
ENDCHAR
STARTCHAR 0129
ENCODING 297
SWIDTH 765 0
DWIDTH 17 0
BBX 14 17 2 -1
BITMAP
C00C
C00C
C00C
C00C
C00C
C00C
C00C
C00C
C00C
C00C
C00C
C60C
C61C
C61C
C618
C7F8
01E0
ENDCHAR
STARTCHAR 012A
ENCODING 298
SWIDTH 450 0
DWIDTH 10 0
BBX 7 21 1 -5
BITMAP
C6
C6
00
00
C0
C6
C6
C6
C6
C6
C6
C6
C6
C6
C6
C6
06
06
06
0E
0C
ENDCHAR
STARTCHAR 012B
ENCODING 299
SWIDTH 495 0
DWIDTH 11 0
BBX 11 20 0 0
BITMAP
01C0
0360
0220
0000
01C0
01C0
01C0
01C0
01C0
01C0
01C0
01C0
01C0
01C0
01C0
C1C0
C180
6180
7F80
3E00
ENDCHAR
STARTCHAR 012C
ENCODING 300
SWIDTH 225 0
DWIDTH 5 0
BBX 6 21 -1 -5
BITMAP
38
68
CC
00
30
30
30
30
30
30
30
30
30
30
30
30
30
30
30
70
60
ENDCHAR
STARTCHAR 012D
ENCODING 301
SWIDTH 675 0
DWIDTH 15 0
BBX 13 21 1 -5
BITMAP
6038
6070
60E0
61C0
6380
6700
6E00
7F00
7B00
7380
61C0
60C0
60E0
6070
6038
6018
4000
7000
1000
3000
F000
ENDCHAR
STARTCHAR 012E
ENCODING 302
SWIDTH 495 0
DWIDTH 11 0
BBX 11 21 0 -5
BITMAP
6000
6000
6000
6000
60C0
6180
6300
6600
6C00
7E00
7700
6300
6380
6180
60C0
60E0
2000
7000
1800
1800
F000
ENDCHAR
STARTCHAR 012F
ENCODING 303
SWIDTH 540 0
DWIDTH 12 0
BBX 10 20 2 0
BITMAP
3000
6000
C000
0000
C000
C000
C000
C000
C000
C000
C000
C000
C000
C000
C000
C000
C000
C000
FFC0
FFC0
ENDCHAR
STARTCHAR 0130
ENCODING 304
SWIDTH 270 0
DWIDTH 6 0
BBX 4 19 1 0
BITMAP
30
60
40
C0
C0
C0
C0
C0
C0
C0
C0
C0
C0
C0
C0
C0
C0
C0
C0
ENDCHAR
STARTCHAR 0131
ENCODING 305
SWIDTH 540 0
DWIDTH 12 0
BBX 10 21 2 -5
BITMAP
C000
C000
C000
C000
C000
C000
C000
C000
C000
C000
C000
C000
C000
C000
FFC0
FFC0
0400
0E00
0300
0200
1E00
ENDCHAR
STARTCHAR 0132
ENCODING 306
SWIDTH 225 0
DWIDTH 5 0
BBX 5 21 0 -5
BITMAP
60
60
60
60
60
60
60
60
60
60
60
60
60
60
60
60
20
70
18
18
F0
ENDCHAR
STARTCHAR 0133
ENCODING 307
SWIDTH 540 0
DWIDTH 12 0
BBX 10 16 2 0
BITMAP
C180
C180
C080
C080
C180
C000
C000
C000
C000
C000
C000
C000
C000
C000
FFC0
FFC0
ENDCHAR
STARTCHAR 0134
ENCODING 308
SWIDTH 270 0
DWIDTH 6 0
BBX 5 16 1 0
BITMAP
C8
C8
C8
C8
C8
C8
C0
C0
C0
C0
C0
C0
C0
C0
C0
C0
ENDCHAR
STARTCHAR 0135
ENCODING 309
SWIDTH 540 0
DWIDTH 12 0
BBX 10 16 2 0
BITMAP
C000
C000
C000
C000
C000
C000
C600
C600
C000
C000
C000
C000
C000
C000
FFC0
FFC0
ENDCHAR
STARTCHAR 0136
ENCODING 310
SWIDTH 315 0
DWIDTH 7 0
BBX 6 16 1 0
BITMAP
C0
C0
C0
C0
C0
C0
CC
CC
C0
C0
C0
C0
C0
C0
C0
C0
ENDCHAR
STARTCHAR 0137
ENCODING 311
SWIDTH 720 0
DWIDTH 16 0
BBX 12 19 2 0
BITMAP
0180
0300
0600
E030
E030
F030
F030
D830
DC30
CC30
C630
C630
C330
C1B0
C1B0
C0F0
C0F0
C070
C030
ENDCHAR
STARTCHAR 0138
ENCODING 312
SWIDTH 540 0
DWIDTH 12 0
BBX 10 16 1 0
BITMAP
0300
0600
0400
0000
CF00
DF80
F1C0
E0C0
C0C0
C0C0
C0C0
C0C0
C0C0
C0C0
C0C0
C0C0
ENDCHAR
STARTCHAR 0139
ENCODING 313
SWIDTH 720 0
DWIDTH 16 0
BBX 14 21 0 -5
BITMAP
380C
380C
3C0C
3C0C
360C
370C
330C
318C
318C
30CC
306C
306C
303C
303C
301C
300C
2000
7800
1800
1800
F000
ENDCHAR
STARTCHAR 013A
ENCODING 314
SWIDTH 540 0
DWIDTH 12 0
BBX 11 17 0 -5
BITMAP
6780
6FC0
78E0
7060
6060
6060
6060
6060
6060
6060
6060
6060
2000
7000
1800
1800
F000
ENDCHAR
STARTCHAR 013B
ENCODING 315
SWIDTH 720 0
DWIDTH 16 0
BBX 12 20 2 0
BITMAP
1980
0D00
0700
0000
E030
E030
F030
F030
D830
DC30
CC30
C630
C630
C330
C1B0
C1B0
C0F0
C0F0
C070
C030
ENDCHAR
STARTCHAR 013C
ENCODING 316
SWIDTH 540 0
DWIDTH 12 0
BBX 10 16 1 0
BITMAP
1980
0B00
0E00
0000
CF00
DF80
F1C0
E0C0
C0C0
C0C0
C0C0
C0C0
C0C0
C0C0
C0C0
C0C0
ENDCHAR
STARTCHAR 013D
ENCODING 317
SWIDTH 540 0
DWIDTH 12 0
BBX 12 18 0 0
BITMAP
C000
C000
4000
4000
8000
0000
13C0
17E0
1C70
1830
1830
1030
1030
1030
1030
1030
1030
1030
ENDCHAR
STARTCHAR 013E
ENCODING 318
SWIDTH 765 0
DWIDTH 17 0
BBX 15 19 1 0
BITMAP
0FE0
0000
0000
07E0
1FF8
383C
700C
600E
E006
C006
C006
C006
C006
C006
E00E
700C
3838
1FF0
0FE0
ENDCHAR
STARTCHAR 013F
ENCODING 319
SWIDTH 540 0
DWIDTH 12 0
BBX 10 14 1 0
BITMAP
7F00
0000
1F00
7F80
61C0
C0C0
C0C0
C0C0
C0C0
C0C0
C0C0
E1C0
7F80
3E00
ENDCHAR
STARTCHAR 0140
ENCODING 320
SWIDTH 765 0
DWIDTH 17 0
BBX 15 21 1 0
BITMAP
0820
0460
07C0
0000
0000
07E0
1FF8
383C
700C
600E
E006
C006
C006
C006
C006
C006
E00E
700C
3838
1FF0
0FE0
ENDCHAR
STARTCHAR 0141
ENCODING 321
SWIDTH 540 0
DWIDTH 12 0
BBX 10 17 1 -1
BITMAP
2080
3100
1E00
0000
1E00
7F80
61C0
C0C0
C0C0
C0C0
C0C0
C0C0
C0C0
C0C0
6180
7F80
1E00
ENDCHAR
STARTCHAR 0142
ENCODING 322
SWIDTH 765 0
DWIDTH 17 0
BBX 15 20 1 0
BITMAP
0330
0260
0640
0000
07E0
1FF8
383C
700C
600E
E006
C006
C006
C006
C006
C006
E00E
700C
3838
1FF0
0FE0
ENDCHAR
STARTCHAR 0143
ENCODING 323
SWIDTH 540 0
DWIDTH 12 0
BBX 10 16 1 0
BITMAP
1980
1B00
3200
0000
1F00
7F80
61C0
C0C0
C0C0
C0C0
C0C0
C0C0
C0C0
E1C0
7F80
3E00
ENDCHAR
STARTCHAR 0144
ENCODING 324
SWIDTH 720 0
DWIDTH 16 0
BBX 13 20 2 0
BITMAP
0600
0400
0C00
0000
FFC0
FFF0
C030
C038
C038
C030
C070
FFE0
FFE0
C070
C030
C030
C030
C030
C038
C038
ENDCHAR
STARTCHAR 0145
ENCODING 325
SWIDTH 315 0
DWIDTH 7 0
BBX 6 16 1 0
BITMAP
30
30
60
00
CC
DC
F0
E0
C0
C0
C0
C0
C0
C0
C0
C0
ENDCHAR
STARTCHAR 0146
ENCODING 326
SWIDTH 720 0
DWIDTH 16 0
BBX 14 21 1 -5
BITMAP
7FE0
7FF8
6018
601C
601C
6018
6038
7FF0
7FF0
6038
6018
6018
6018
6018
601C
601C
2000
7000
1800
1000
F000
ENDCHAR
STARTCHAR 0147
ENCODING 327
SWIDTH 315 0
DWIDTH 7 0
BBX 7 17 0 -5
BITMAP
66
6E
78
70
60
60
60
60
60
60
60
60
20
78
18
18
F0
ENDCHAR
STARTCHAR 0148
ENCODING 328
SWIDTH 720 0
DWIDTH 16 0
BBX 13 20 2 0
BITMAP
1900
1B00
0E00
0000
FFC0
FFF0
C030
C038
C038
C030
C070
FFE0
FFE0
C070
C030
C030
C030
C030
C038
C038
ENDCHAR
STARTCHAR 0149
ENCODING 329
SWIDTH 315 0
DWIDTH 7 0
BBX 6 16 1 0
BITMAP
CC
78
30
00
CC
DC
F0
E0
C0
C0
C0
C0
C0
C0
C0
C0
ENDCHAR
STARTCHAR 014A
ENCODING 330
SWIDTH 675 0
DWIDTH 15 0
BBX 13 20 1 0
BITMAP
0380
0300
0600
0000
1F80
3FE0
7070
6030
6030
6000
7800
3FC0
0FF0
0070
0038
C018
E038
7070
3FE0
1FC0
ENDCHAR
STARTCHAR 014B
ENCODING 331
SWIDTH 495 0
DWIDTH 11 0
BBX 9 16 1 0
BITMAP
0600
0C00
1800
0000
3E00
7F00
C380
C180
E000
7E00
1F80
0180
C180
C180
7F80
3E00
ENDCHAR
STARTCHAR 014C
ENCODING 332
SWIDTH 675 0
DWIDTH 15 0
BBX 13 20 1 0
BITMAP
0700
0D80
1980
0000
1F80
3FE0
7070
6030
6030
6000
7800
3FC0
0FF0
0070
0038
C018
E038
7070
3FE0
1FC0
ENDCHAR
STARTCHAR 014D
ENCODING 333
SWIDTH 495 0
DWIDTH 11 0
BBX 9 16 1 0
BITMAP
1C00
3600
3300
0000
3E00
7F00
C380
C180
E000
7E00
1F80
0180
C180
C180
7F80
3E00
ENDCHAR
STARTCHAR 014E
ENCODING 334
SWIDTH 630 0
DWIDTH 14 0
BBX 13 21 0 -5
BITMAP
FFF8
FFF8
0300
0300
0300
0300
0300
0300
0300
0300
0300
0300
0300
0300
0300
0300
0200
0380
0080
0180
0780
ENDCHAR
STARTCHAR 014F
ENCODING 335
SWIDTH 270 0
DWIDTH 6 0
BBX 7 20 0 -5
BITMAP
30
30
30
FC
FC
30
30
30
30
30
30
30
30
3C
3C
08
1C
06
06
3C
ENDCHAR
STARTCHAR 0150
ENCODING 336
SWIDTH 630 0
DWIDTH 14 0
BBX 13 20 0 0
BITMAP
0CC0
0780
0700
0000
FFF8
FFF8
0300
0300
0300
0300
0300
0300
0300
0300
0300
0300
0300
0300
0300
0300
ENDCHAR
STARTCHAR 0151
ENCODING 337
SWIDTH 360 0
DWIDTH 8 0
BBX 8 18 0 0
BITMAP
03
03
01
31
32
30
FC
FC
30
30
30
30
30
30
30
30
3C
3C
ENDCHAR
STARTCHAR 0152
ENCODING 338
SWIDTH 630 0
DWIDTH 14 0
BBX 13 16 0 0
BITMAP
FFF8
FFF8
0300
0300
0300
0300
0300
0FC0
0300
0300
0300
0300
0300
0300
0300
0300
ENDCHAR
STARTCHAR 0153
ENCODING 339
SWIDTH 315 0
DWIDTH 7 0
BBX 7 15 0 0
BITMAP
30
30
30
FC
FC
30
30
FE
30
30
30
30
30
3C
3C
ENDCHAR
STARTCHAR 0154
ENCODING 340
SWIDTH 720 0
DWIDTH 16 0
BBX 12 20 2 0
BITMAP
1C40
17C0
2180
0000
C030
C030
C030
C030
C030
C030
C030
C030
C030
C030
C030
C030
E070
70E0
3FE0
1F80
ENDCHAR
STARTCHAR 0155
ENCODING 341
SWIDTH 540 0
DWIDTH 12 0
BBX 10 16 1 0
BITMAP
3980
4F00
4700
0000
C0C0
C0C0
C0C0
C0C0
C0C0
C0C0
C0C0
C0C0
C1C0
63C0
7EC0
3CC0
ENDCHAR
STARTCHAR 0156
ENCODING 342
SWIDTH 720 0
DWIDTH 16 0
BBX 12 18 2 0
BITMAP
1FC0
0000
C030
C030
C030
C030
C030
C030
C030
C030
C030
C030
C030
C030
E070
70E0
3FE0
1F80
ENDCHAR
STARTCHAR 0157
ENCODING 343
SWIDTH 540 0
DWIDTH 12 0
BBX 10 14 1 0
BITMAP
3F80
0000
C0C0
C0C0
C0C0
C0C0
C0C0
C0C0
C0C0
C0C0
C1C0
63C0
7EC0
3CC0
ENDCHAR
STARTCHAR 0158
ENCODING 344
SWIDTH 720 0
DWIDTH 16 0
BBX 12 20 2 0
BITMAP
10C0
1880
0F00
0000
C030
C030
C030
C030
C030
C030
C030
C030
C030
C030
C030
C030
E070
70E0
3FE0
1F80
ENDCHAR
STARTCHAR 0159
ENCODING 345
SWIDTH 540 0
DWIDTH 12 0
BBX 10 16 1 0
BITMAP
2180
3100
1E00
0000
C0C0
C0C0
C0C0
C0C0
C0C0
C0C0
C0C0
C0C0
E1C0
63C0
7EC0
3CC0
ENDCHAR
STARTCHAR 015A
ENCODING 346
SWIDTH 720 0
DWIDTH 16 0
BBX 12 22 2 0
BITMAP
0700
0900
0880
0900
0700
0000
C030
C030
C030
C030
C030
C030
C030
C030
C030
C030
C030
C030
E070
70E0
3FE0
1F80
ENDCHAR
STARTCHAR 015B
ENCODING 347
SWIDTH 540 0
DWIDTH 12 0
BBX 10 17 1 0
BITMAP
0E00
1200
1200
1200
0E00
C0C0
C0C0
C0C0
C0C0
C0C0
C0C0
C0C0
C0C0
C1C0
63C0
7EC0
3CC0
ENDCHAR
STARTCHAR 015C
ENCODING 348
SWIDTH 720 0
DWIDTH 16 0
BBX 12 20 2 0
BITMAP
0CC0
0D80
1900
0000
C030
C030
C030
C030
C030
C030
C030
C030
C030
C030
C030
C030
E070
70E0
3FE0
1F80
ENDCHAR
STARTCHAR 015D
ENCODING 349
SWIDTH 540 0
DWIDTH 12 0
BBX 10 16 1 0
BITMAP
1980
1B00
3200
0000
C0C0
C0C0
C0C0
C0C0
C0C0
C0C0
C0C0
C0C0
C1C0
63C0
7EC0
3CC0
ENDCHAR
STARTCHAR 015E
ENCODING 350
SWIDTH 720 0
DWIDTH 16 0
BBX 12 21 2 -5
BITMAP
C030
C030
C030
C030
C030
C030
C030
C030
C030
C030
C030
C030
E070
70E0
3FE0
1F80
0400
0800
1800
1E00
0E00
ENDCHAR
STARTCHAR 015F
ENCODING 351
SWIDTH 540 0
DWIDTH 12 0
BBX 10 17 1 -5
BITMAP
C0C0
C0C0
C0C0
C0C0
C0C0
C0C0
C0C0
C0C0
C1C0
63C0
7EC0
3CC0
0180
0300
0300
03C0
01C0
ENDCHAR
STARTCHAR 0160
ENCODING 352
SWIDTH 945 0
DWIDTH 21 0
BBX 20 20 1 0
BITMAP
00E000
00B000
019800
000000
C0E070
C0E060
C0E060
E1B0E0
61B0C0
61B0C0
6398C0
7319C0
331980
331980
360D80
3E0F80
1E0F00
1E0700
1C0700
1C0700
ENDCHAR
STARTCHAR 0161
ENCODING 353
SWIDTH 720 0
DWIDTH 16 0
BBX 16 16 0 0
BITMAP
0180
03C0
0660
0000
C183
6386
63C6
63C6
62C4
324C
366C
366C
1468
1C38
1C38
1C30
ENDCHAR
STARTCHAR 0162
ENCODING 354
SWIDTH 675 0
DWIDTH 15 0
BBX 13 20 1 0
BITMAP
0700
0580
0CC0
0000
C018
E038
6030
3070
38E0
18C0
1DC0
0D80
0780
0700
0700
0700
0700
0700
0700
0700
ENDCHAR
STARTCHAR 0163
ENCODING 355
SWIDTH 495 0
DWIDTH 11 0
BBX 11 21 0 -5
BITMAP
0E00
0B00
1980
0000
E060
60C0
60C0
70C0
3180
3180
3180
1B00
1B00
1B00
0E00
0E00
0C00
0C00
0C00
7800
7000
ENDCHAR
STARTCHAR 0164
ENCODING 356
SWIDTH 630 0
DWIDTH 14 0
BBX 12 20 1 0
BITMAP
0180
0300
0200
0000
FFF0
FFF0
0070
00E0
01C0
0380
0300
0700
0E00
1C00
3800
3000
6000
E000
FFF0
FFF0
ENDCHAR
STARTCHAR 0165
ENCODING 357
SWIDTH 495 0
DWIDTH 11 0
BBX 9 16 1 0
BITMAP
0600
0C00
0800
0000
FF80
FF80
0380
0700
0E00
0C00
1800
3000
6000
E000
FF80
FF80
ENDCHAR
STARTCHAR 0166
ENCODING 358
SWIDTH 630 0
DWIDTH 14 0
BBX 12 20 1 0
BITMAP
0600
0600
0000
0000
FFF0
FFF0
0070
00E0
01C0
0380
0300
0700
0E00
1C00
3800
3000
6000
E000
FFF0
FFF0
ENDCHAR
STARTCHAR 0167
ENCODING 359
SWIDTH 495 0
DWIDTH 11 0
BBX 9 16 1 0
BITMAP
0C00
0C00
0000
0000
FF80
FF80
0380
0700
0E00
0C00
1800
3000
6000
E000
FF80
FF80
ENDCHAR
STARTCHAR 0168
ENCODING 360
SWIDTH 675 0
DWIDTH 15 0
BBX 13 22 1 -6
BITMAP
1F80
3FE0
7070
6030
6030
6000
7000
3F00
1FE0
00F0
0038
C018
C018
E038
7070
3FE0
0F80
0000
0600
0600
0200
0600
ENDCHAR
STARTCHAR 0169
ENCODING 361
SWIDTH 495 0
DWIDTH 11 0
BBX 9 18 1 -6
BITMAP
3E00
7F00
E380
C180
C000
7800
3F00
0380
0180
C180
C180
7F00
3E00
0000
0800
0800
0800
0800
ENDCHAR
STARTCHAR 016A
ENCODING 362
SWIDTH 630 0
DWIDTH 14 0
BBX 13 22 0 -6
BITMAP
FFF8
FFF8
0300
0300
0300
0300
0300
0300
0300
0300
0300
0300
0300
0300
0300
0300
0000
0300
0300
0100
0200
0200
ENDCHAR
STARTCHAR 016B
ENCODING 363
SWIDTH 270 0
DWIDTH 6 0
BBX 6 21 0 -6
BITMAP
30
30
30
FC
FC
30
30
30
30
30
30
30
30
3C
3C
00
30
30
10
10
20
ENDCHAR
STARTCHAR 016C
ENCODING 364
SWIDTH 540 0
DWIDTH 12 0
BBX 10 11 1 2
BITMAP
8040
DEC0
7380
4080
C0C0
C0C0
C0C0
4080
7180
DEC0
8040
ENDCHAR
STARTCHAR 016D
ENCODING 365
SWIDTH 0 0
DWIDTH 0 0
BBX 4 3 -8 13
BITMAP
C0
60
30
ENDCHAR
STARTCHAR 016E
ENCODING 366
SWIDTH 0 0
DWIDTH 0 0
BBX 4 3 -8 13
BITMAP
70
60
C0
ENDCHAR
STARTCHAR 016F
ENCODING 367
SWIDTH 0 0
DWIDTH 0 0
BBX 6 3 -9 13
BITMAP
70
58
CC
ENDCHAR
STARTCHAR 0170
ENCODING 368
SWIDTH 0 0
DWIDTH 0 0
BBX 8 3 -10 13
BITMAP
73
9E
8E
ENDCHAR
STARTCHAR 0171
ENCODING 369
SWIDTH 0 0
DWIDTH 0 0
BBX 7 1 -10 14
BITMAP
FE
ENDCHAR
STARTCHAR 0172
ENCODING 370
SWIDTH 0 0
DWIDTH 0 0
BBX 7 3 -10 13
BITMAP
C2
46
3C
ENDCHAR
STARTCHAR 0173
ENCODING 371
SWIDTH 0 0
DWIDTH 0 0
BBX 2 2 -7 14
BITMAP
C0
C0
ENDCHAR
STARTCHAR 0174
ENCODING 372
SWIDTH 0 0
DWIDTH 0 0
BBX 6 2 -9 14
BITMAP
CC
CC
ENDCHAR
STARTCHAR 0175
ENCODING 373
SWIDTH 0 0
DWIDTH 0 0
BBX 4 5 -8 13
BITMAP
E0
90
90
90
E0
ENDCHAR
STARTCHAR 0176
ENCODING 374
SWIDTH 0 0
DWIDTH 0 0
BBX 7 3 -10 13
BITMAP
76
6C
CC
ENDCHAR
STARTCHAR 0177
ENCODING 375
SWIDTH 0 0
DWIDTH 0 0
BBX 6 3 -9 13
BITMAP
CC
58
70
ENDCHAR
STARTCHAR 0178
ENCODING 376
SWIDTH 0 0
DWIDTH 0 0
BBX 2 6 -7 -7
BITMAP
C0
C0
C0
40
C0
80
ENDCHAR
STARTCHAR 0179
ENCODING 377
SWIDTH 0 0
DWIDTH 0 0
BBX 5 5 -9 -5
BITMAP
20
78
18
18
F0
ENDCHAR
STARTCHAR 017A
ENCODING 378
SWIDTH 0 0
DWIDTH 0 0
BBX 4 5 -8 -5
BITMAP
60
C0
C0
F0
70
ENDCHAR
STARTCHAR 017B
ENCODING 379
SWIDTH 0 0
DWIDTH 0 0
BBX 6 16 -9 0
BITMAP
0C
0C
08
18
18
10
30
30
20
20
60
60
40
C0
C0
80
ENDCHAR
STARTCHAR 017C
ENCODING 380
SWIDTH 720 0
DWIDTH 16 0
BBX 15 16 0 0
BITMAP
3FE0
3FF8
3038
300C
300C
300E
3006
FF86
FF86
3006
300E
300C
301C
3038
3FF0
3FE0
ENDCHAR
STARTCHAR 017D
ENCODING 381
SWIDTH 765 0
DWIDTH 17 0
BBX 15 23 1 -7
BITMAP
07E0
1FF8
3838
700C
600C
E000
C000
C000
C0FE
C0FE
E006
600E
700E
383E
1FF6
0FC6
0000
0000
0380
0380
0080
0180
0300
ENDCHAR
STARTCHAR 017E
ENCODING 382
SWIDTH 540 0
DWIDTH 12 0
BBX 10 24 1 -5
BITMAP
0400
0800
0800
0C00
0C00
0000
0000
3CC0
7FC0
E1C0
C0C0
C0C0
C0C0
C0C0
C0C0
C1C0
E1C0
7FC0
3EC0
00C0
00C0
C180
7F80
3E00
ENDCHAR
STARTCHAR 017F
ENCODING 383
SWIDTH 540 0
DWIDTH 12 0
BBX 10 23 2 -7
BITMAP
C000
C000
C000
C000
C000
C000
C000
C000
C000
C000
C000
C000
C000
C000
FFC0
FFC0
0000
0000
0C00
0C00
0400
0C00
0800
ENDCHAR
STARTCHAR 0180
ENCODING 384
SWIDTH 225 0
DWIDTH 5 0
BBX 3 23 1 -7
BITMAP
C0
C0
C0
C0
C0
C0
C0
C0
C0
C0
C0
C0
C0
C0
C0
C0
00
00
60
60
20
60
40
ENDCHAR
STARTCHAR 0181
ENCODING 385
SWIDTH 675 0
DWIDTH 15 0
BBX 12 22 2 -6
BITMAP
C070
C0E0
C1C0
C380
C700
CE00
DC00
FE00
F600
E700
C380
C180
C1C0
C0E0
C070
C030
0000
0C00
0C00
0400
0C00
0800
ENDCHAR
STARTCHAR 0182
ENCODING 386
SWIDTH 495 0
DWIDTH 11 0
BBX 10 22 1 -6
BITMAP
C000
C000
C000
C000
C180
C300
C600
CC00
D800
FC00
EE00
C600
C700
C300
C180
C1C0
0000
0C00
0C00
0400
0C00
0800
ENDCHAR
STARTCHAR 0183
ENCODING 387
SWIDTH 720 0
DWIDTH 16 0
BBX 12 23 2 -7
BITMAP
E030
E030
F030
F030
D830
DC30
CC30
C630
C630
C330
C1B0
C1B0
C0F0
C0F0
C070
C030
0000
0000
0E00
0E00
0200
0400
0C00
ENDCHAR
STARTCHAR 0184
ENCODING 388
SWIDTH 540 0
DWIDTH 12 0
BBX 10 18 1 -6
BITMAP
CF00
DF80
F1C0
E0C0
C0C0
C0C0
C0C0
C0C0
C0C0
C0C0
C0C0
C0C0
0000
0C00
0C00
0400
0400
0800
ENDCHAR
STARTCHAR 0185
ENCODING 389
SWIDTH 720 0
DWIDTH 16 0
BBX 13 22 2 -6
BITMAP
FFC0
FFF0
C030
C038
C038
C030
C070
FFE0
FFE0
C070
C030
C030
C030
C030
C038
C038
0000
0600
0600
0200
0200
0400
ENDCHAR
STARTCHAR 0186
ENCODING 390
SWIDTH 315 0
DWIDTH 7 0
BBX 6 18 1 -6
BITMAP
CC
DC
F0
E0
C0
C0
C0
C0
C0
C0
C0
C0
00
60
60
20
60
40
ENDCHAR
STARTCHAR 0187
ENCODING 391
SWIDTH 225 0
DWIDTH 5 0
BBX 3 20 0 -4
BITMAP
60
60
00
00
60
60
60
60
60
60
60
60
60
60
60
60
60
60
60
C0
ENDCHAR
STARTCHAR 0188
ENCODING 392
SWIDTH 270 0
DWIDTH 6 0
BBX 3 14 2 -3
BITMAP
E0
E0
00
00
00
00
00
00
E0
E0
E0
20
40
80
ENDCHAR
STARTCHAR 0189
ENCODING 393
SWIDTH 315 0
DWIDTH 7 0
BBX 5 2 1 5
BITMAP
F8
F8
ENDCHAR
STARTCHAR 018A
ENCODING 394
SWIDTH 225 0
DWIDTH 5 0
BBX 3 17 0 -5
BITMAP
60
60
60
60
60
60
60
60
60
60
60
60
60
60
60
E0
C0
ENDCHAR
STARTCHAR 018B
ENCODING 395
SWIDTH 495 0
DWIDTH 11 0
BBX 10 12 1 0
BITMAP
C180
C300
C600
CC00
D800
FC00
FE00
C600
C700
C300
C180
C1C0
ENDCHAR
STARTCHAR 018C
ENCODING 396
SWIDTH 270 0
DWIDTH 6 0
BBX 6 16 0 0
BITMAP
1C
3C
30
30
F0
F0
30
30
30
30
30
30
30
30
30
30
ENDCHAR
STARTCHAR 018D
ENCODING 397
SWIDTH 540 0
DWIDTH 12 0
BBX 10 13 1 -1
BITMAP
1E00
7F80
6180
C0C0
C0C0
FFC0
FFC0
00C0
00C0
C0C0
6180
7F80
1E00
ENDCHAR
STARTCHAR 018E
ENCODING 398
SWIDTH 540 0
DWIDTH 12 0
BBX 10 13 1 -1
BITMAP
1E00
7F80
6180
C0C0
00C0
00C0
FFC0
FFC0
C0C0
C0C0
6180
7F80
1E00
ENDCHAR
STARTCHAR 018F
ENCODING 399
SWIDTH 495 0
DWIDTH 11 0
BBX 10 12 1 0
BITMAP
3E00
7F00
E380
C180
C180
01C0
01C0
0180
C180
E380
7F00
3E00
ENDCHAR
STARTCHAR 0190
ENCODING 400
SWIDTH 540 0
DWIDTH 12 0
BBX 11 13 1 -1
BITMAP
E780
FFC0
78E0
7060
6060
60C0
7F80
7C00
6000
60C0
70C0
3F80
1F00
ENDCHAR
STARTCHAR 0191
ENCODING 401
SWIDTH 0 0
DWIDTH 0 0
BBX 3 4 -8 14
BITMAP
E0
20
20
40
ENDCHAR
STARTCHAR 0192
ENCODING 402
SWIDTH 0 0
DWIDTH 0 0
BBX 8 1 -10 14
BITMAP
FF
ENDCHAR
STARTCHAR 0193
ENCODING 403
SWIDTH 0 0
DWIDTH 0 0
BBX 7 3 -10 13
BITMAP
3C
46
C2
ENDCHAR
STARTCHAR 0194
ENCODING 404
SWIDTH 270 0
DWIDTH 6 0
BBX 7 20 0 0
BITMAP
82
C4
78
00
30
30
30
30
30
30
30
30
30
30
30
30
30
30
30
30
ENDCHAR
STARTCHAR 0195
ENCODING 405
SWIDTH 270 0
DWIDTH 6 0
BBX 7 16 0 0
BITMAP
82
C4
78
00
30
30
30
30
30
30
30
30
30
30
30
30
ENDCHAR
STARTCHAR 0196
ENCODING 406
SWIDTH 720 0
DWIDTH 16 0
BBX 12 21 2 -5
BITMAP
E030
E030
F030
F030
D830
DC30
CC30
CE30
C630
C330
C3B0
C1B0
C0F0
C0F0
C070
C070
0030
0030
0030
0070
0060
ENDCHAR
STARTCHAR 0197
ENCODING 407
SWIDTH 540 0
DWIDTH 12 0
BBX 10 17 1 -5
BITMAP
CF00
DF80
F1C0
E0C0
C0C0
C0C0
C0C0
C0C0
C0C0
C0C0
C0C0
C0C0
00C0
00C0
00C0
03C0
0380
ENDCHAR
STARTCHAR 0198
ENCODING 408
SWIDTH 0 0
DWIDTH 0 0
BBX 5 3 -9 11
BITMAP
08
18
F8
ENDCHAR
STARTCHAR 0199
ENCODING 409
SWIDTH 675 0
DWIDTH 15 0
BBX 14 16 1 0
BITMAP
0700
0780
0D80
0D80
0CC0
18C0
18C0
1860
3060
3FE0
7FF0
6030
6030
E018
C018
C01C
ENDCHAR
STARTCHAR 019A
ENCODING 410
SWIDTH 675 0
DWIDTH 15 0
BBX 12 16 2 0
BITMAP
FFE0
FFE0
C000
C000
C000
C000
C000
FF80
FFE0
C0E0
C070
C070
C070
C060
FFE0
FF80
ENDCHAR
STARTCHAR 019B
ENCODING 411
SWIDTH 675 0
DWIDTH 15 0
BBX 12 16 2 0
BITMAP
FF80
FFC0
C0E0
C060
C060
C060
C0C0
FF80
FFE0
C060
C030
C030
C030
C060
FFE0
FF80
ENDCHAR
STARTCHAR 019C
ENCODING 412
SWIDTH 540 0
DWIDTH 12 0
BBX 9 16 2 0
BITMAP
FF80
FF80
C000
C000
C000
C000
C000
C000
C000
C000
C000
C000
C000
C000
C000
C000
ENDCHAR
STARTCHAR 019D
ENCODING 413
SWIDTH 720 0
DWIDTH 16 0
BBX 16 19 0 -3
BITMAP
0FFC
0FFC
0C0C
0C0C
0C0C
1C0C
180C
180C
180C
180C
180C
180C
380C
300C
FFFF
FFFF
C003
C003
C003
ENDCHAR
STARTCHAR 019E
ENCODING 414
SWIDTH 675 0
DWIDTH 15 0
BBX 11 16 2 0
BITMAP
FFE0
FFE0
C000
C000
C000
C000
C000
FFE0
FFE0
C000
C000
C000
C000
C000
FFE0
FFE0
ENDCHAR
STARTCHAR 019F
ENCODING 415
SWIDTH 990 0
DWIDTH 22 0
BBX 21 16 1 0
BITMAP
C06038
E06070
7060E0
3861C0
1C6180
0C6300
066600
07FE00
07FE00
0E6700
1C6380
1C6380
3861C0
7060E0
E06070
C06038
ENDCHAR
STARTCHAR 01A0
ENCODING 416
SWIDTH 675 0
DWIDTH 15 0
BBX 13 16 1 0
BITMAP
1FC0
3FE0
7070
E030
C030
0030
0070
07E0
07F0
0030
0018
C018
C038
F070
7FE0
1FC0
ENDCHAR
STARTCHAR 01A1
ENCODING 417
SWIDTH 720 0
DWIDTH 16 0
BBX 12 16 2 0
BITMAP
C030
C070
C0F0
C0F0
C1B0
C3B0
C330
C630
C630
CC30
DC30
D830
F030
F030
E030
C030
ENDCHAR
STARTCHAR 01A2
ENCODING 418
SWIDTH 720 0
DWIDTH 16 0
BBX 12 20 2 0
BITMAP
30C0
39C0
0F00
0000
C030
C070
C0F0
C0F0
C1B0
C3B0
C330
C630
C630
CC30
DC30
D830
F030
F030
E030
C030
ENDCHAR
STARTCHAR 01A3
ENCODING 419
SWIDTH 675 0
DWIDTH 15 0
BBX 12 16 2 0
BITMAP
C070
C0E0
C1C0
C380
C700
CE00
DC00
FE00
F600
E700
C380
C1C0
C0C0
C0E0
C070
C030
ENDCHAR
STARTCHAR 01A4
ENCODING 420
SWIDTH 675 0
DWIDTH 15 0
BBX 14 16 0 0
BITMAP
0FFC
0FFC
0C1C
0C1C
0C1C
0C1C
0C1C
0C1C
1C1C
181C
181C
181C
181C
381C
F01C
E01C
ENDCHAR
STARTCHAR 01A5
ENCODING 421
SWIDTH 855 0
DWIDTH 19 0
BBX 15 16 2 0
BITMAP
E00E
E01E
F01E
F016
F036
D836
D826
D866
CC66
CC46
CCC6
C6C6
C686
C786
C386
C306
ENDCHAR
STARTCHAR 01A6
ENCODING 422
SWIDTH 720 0
DWIDTH 16 0
BBX 12 16 2 0
BITMAP
C030
C030
C030
C030
C030
C030
C030
FFF0
FFF0
C030
C030
C030
C030
C030
C030
C030
ENDCHAR
STARTCHAR 01A7
ENCODING 423
SWIDTH 765 0
DWIDTH 17 0
BBX 15 16 1 0
BITMAP
07E0
1FF8
383C
700C
E00E
C006
C006
C006
C006
C006
C006
600E
700C
383C
1FF0
07E0
ENDCHAR
STARTCHAR 01A8
ENCODING 424
SWIDTH 720 0
DWIDTH 16 0
BBX 12 16 2 0
BITMAP
FFF0
FFF0
C030
C030
C030
C030
C030
C030
C030
C030
C030
C030
C030
C030
C030
C030
ENDCHAR
STARTCHAR 01A9
ENCODING 425
SWIDTH 675 0
DWIDTH 15 0
BBX 11 16 2 0
BITMAP
FF80
FFC0
C0E0
C060
C060
C060
C0E0
FFC0
FF80
C000
C000
C000
C000
C000
C000
C000
ENDCHAR
STARTCHAR 01AA
ENCODING 426
SWIDTH 720 0
DWIDTH 16 0
BBX 14 16 1 0
BITMAP
0FC0
1FF0
3838
7018
E00C
C000
C000
C000
C000
C000
C00C
E01C
7018
3870
1FE0
0FC0
ENDCHAR
STARTCHAR 01AB
ENCODING 427
SWIDTH 630 0
DWIDTH 14 0
BBX 13 16 0 0
BITMAP
FFF8
FFF8
0300
0300
0300
0300
0300
0300
0300
0300
0300
0300
0300
0300
0300
0300
ENDCHAR
STARTCHAR 01AC
ENCODING 428
SWIDTH 675 0
DWIDTH 15 0
BBX 13 16 1 0
BITMAP
C018
E018
6038
7030
3030
3860
1860
1CC0
0CC0
06C0
0780
0380
0300
0700
3E00
3C00
ENDCHAR
STARTCHAR 01AD
ENCODING 429
SWIDTH 855 0
DWIDTH 19 0
BBX 17 16 1 0
BITMAP
01C000
0FF800
3FFE00
71CF00
E1C380
C1C180
C1C180
C1C180
C1C180
C1C180
C1C180
E1C380
71C700
3FFE00
0FF800
01C000
ENDCHAR
STARTCHAR 01AE
ENCODING 430
SWIDTH 675 0
DWIDTH 15 0
BBX 13 16 1 0
BITMAP
E038
6070
7060
38E0
19C0
1D80
0F80
0700
0700
0F80
1DC0
18C0
30E0
7070
E030
C038
ENDCHAR
STARTCHAR 01AF
ENCODING 431
SWIDTH 720 0
DWIDTH 16 0
BBX 14 19 2 -3
BITMAP
C030
C030
C030
C030
C030
C030
C030
C030
C030
C030
C030
C030
C030
C030
FFFC
FFFC
000C
000C
000C
ENDCHAR
STARTCHAR 01B0
ENCODING 432
SWIDTH 630 0
DWIDTH 14 0
BBX 12 16 1 0
BITMAP
C030
C030
C030
C030
C030
C030
C030
E070
7FF0
1FB0
0030
0030
0030
0030
0030
0030
ENDCHAR
STARTCHAR 01B1
ENCODING 433
SWIDTH 945 0
DWIDTH 21 0
BBX 17 16 2 0
BITMAP
C1C180
C1C180
C1C180
C1C180
C1C180
C1C180
C1C180
C1C180
C1C180
C1C180
C1C180
C1C180
C1C180
C1C180
FFFF80
FFFF80
ENDCHAR
STARTCHAR 01B2
ENCODING 434
SWIDTH 945 0
DWIDTH 21 0
BBX 19 19 2 -3
BITMAP
C1C180
C1C180
C1C180
C1C180
C1C180
C1C180
C1C180
C1C180
C1C180
C1C180
C1C180
C1C180
C1C180
C1C180
FFFFE0
FFFFE0
000060
000060
000060
ENDCHAR
STARTCHAR 01B3
ENCODING 435
SWIDTH 855 0
DWIDTH 19 0
BBX 18 16 0 0
BITMAP
FF0000
FF0000
030000
030000
030000
030000
030000
03FE00
03FF80
030380
0301C0
0301C0
0301C0
030380
03FF80
03FE00
ENDCHAR
STARTCHAR 01B4
ENCODING 436
SWIDTH 900 0
DWIDTH 20 0
BBX 16 16 2 0
BITMAP
C003
C003
C003
C003
C003
C003
C003
FF83
FFE3
C0E3
C073
C073
C073
C0E3
FFE3
FF83
ENDCHAR
STARTCHAR 01B5
ENCODING 437
SWIDTH 630 0
DWIDTH 14 0
BBX 12 16 2 0
BITMAP
C000
C000
C000
C000
C000
C000
C000
FF80
FFE0
C0E0
C070
C070
C070
C0E0
FFE0
FF80
ENDCHAR
STARTCHAR 01B6
ENCODING 438
SWIDTH 720 0
DWIDTH 16 0
BBX 14 16 1 0
BITMAP
0FC0
3FF0
7078
6018
E01C
000C
000C
03FC
03FC
000C
C00C
E01C
6018
7870
3FE0
0FC0
ENDCHAR
STARTCHAR 01B7
ENCODING 439
SWIDTH 990 0
DWIDTH 22 0
BBX 19 16 2 0
BITMAP
C07E00
C1FF80
C383C0
C700C0
C600E0
C60060
CC0060
FC0060
FC0060
CC0060
C60060
C600E0
C700C0
C383C0
C1FF80
C07E00
ENDCHAR
STARTCHAR 01B8
ENCODING 440
SWIDTH 720 0
DWIDTH 16 0
BBX 13 16 1 0
BITMAP
1FF8
3FF8
7018
6018
6018
6018
7018
3FF8
3FF8
3018
6018
6018
6018
6018
6018
E018
ENDCHAR
STARTCHAR 01B9
ENCODING 441
SWIDTH 540 0
DWIDTH 12 0
BBX 11 13 1 -1
BITMAP
1F00
7F80
61C0
C0C0
00C0
03C0
7EC0
E0C0
C0C0
C1C0
E3C0
FEE0
3C60
ENDCHAR
STARTCHAR 01BA
ENCODING 442
SWIDTH 540 0
DWIDTH 12 0
BBX 11 17 1 -1
BITMAP
1F80
3F80
7000
6000
DF00
FF80
E1C0
E0C0
C0C0
C060
C060
C060
C0C0
C0C0
61C0
7F80
1F00
ENDCHAR
STARTCHAR 01BB
ENCODING 443
SWIDTH 540 0
DWIDTH 12 0
BBX 10 12 1 0
BITMAP
FF00
FF80
C1C0
C0C0
C0C0
C180
FF80
C0C0
C0C0
C0C0
FFC0
FF80
ENDCHAR
STARTCHAR 01BC
ENCODING 444
SWIDTH 405 0
DWIDTH 9 0
BBX 8 12 1 0
BITMAP
FF
FF
C0
C0
C0
C0
C0
C0
C0
C0
C0
C0
ENDCHAR
STARTCHAR 01BD
ENCODING 445
SWIDTH 585 0
DWIDTH 13 0
BBX 13 15 0 -3
BITMAP
1FE0
1FE0
1860
1860
1860
1860
1860
1860
3060
3060
FFF8
FFF8
C018
C018
C018
ENDCHAR
STARTCHAR 01BE
ENCODING 446
SWIDTH 540 0
DWIDTH 12 0
BBX 10 12 1 0
BITMAP
1F00
3F80
61C0
C0C0
C0C0
FFC0
FFC0
C000
C0C0
61C0
7F80
1F00
ENDCHAR
STARTCHAR 01BF
ENCODING 447
SWIDTH 765 0
DWIDTH 17 0
BBX 16 12 1 0
BITMAP
C187
618E
718C
3998
19B0
0FE0
1FF0
19B8
3198
718C
E18E
C187
ENDCHAR
STARTCHAR 01C0
ENCODING 448
SWIDTH 495 0
DWIDTH 11 0
BBX 9 12 1 0
BITMAP
3E00
7F00
E380
C180
0380
1F00
1F80
0180
C180
E180
7F00
3E00
ENDCHAR
STARTCHAR 01C1
ENCODING 449
SWIDTH 585 0
DWIDTH 13 0
BBX 11 12 1 0
BITMAP
C0E0
C1E0
C1E0
C3E0
C6E0
C6E0
CCE0
CCE0
D8E0
F0E0
F0E0
E0E0
ENDCHAR
STARTCHAR 01C2
ENCODING 450
SWIDTH 585 0
DWIDTH 13 0
BBX 11 16 1 0
BITMAP
3180
3180
1F00
0000
C0E0
C1E0
C1E0
C3E0
C3E0
C6E0
CCE0
CCE0
D8E0
F0E0
F0E0
E0E0
ENDCHAR
STARTCHAR 01C3
ENCODING 451
SWIDTH 540 0
DWIDTH 12 0
BBX 11 12 1 0
BITMAP
C0C0
C180
C300
C600
CC00
DC00
FC00
E600
C700
C380
C1C0
C0E0
ENDCHAR
STARTCHAR 01C4
ENCODING 452
SWIDTH 585 0
DWIDTH 13 0
BBX 11 12 0 0
BITMAP
1FE0
1FE0
1860
1860
1860
1860
1860
1860
3060
3060
F060
E060
ENDCHAR
STARTCHAR 01C5
ENCODING 453
SWIDTH 675 0
DWIDTH 15 0
BBX 12 12 1 0
BITMAP
F070
F070
F070
D0F0
D8F0
D8B0
C8B0
CDB0
CD30
C530
C730
C730
ENDCHAR
STARTCHAR 01C6
ENCODING 454
SWIDTH 540 0
DWIDTH 12 0
BBX 10 12 1 0
BITMAP
C0C0
C0C0
C0C0
C0C0
C0C0
FFC0
FFC0
C0C0
C0C0
C0C0
C0C0
C0C0
ENDCHAR
STARTCHAR 01C7
ENCODING 455
SWIDTH 540 0
DWIDTH 12 0
BBX 11 12 1 0
BITMAP
1F00
7F80
61C0
C0C0
C0C0
C060
C060
C0C0
C0C0
61C0
7F80
1F00
ENDCHAR
STARTCHAR 01C8
ENCODING 456
SWIDTH 540 0
DWIDTH 12 0
BBX 10 12 1 0
BITMAP
FFC0
FFC0
C0C0
C0C0
C0C0
C0C0
C0C0
C0C0
C0C0
C0C0
C0C0
C0C0
ENDCHAR
STARTCHAR 01C9
ENCODING 457
SWIDTH 540 0
DWIDTH 12 0
BBX 11 17 1 -5
BITMAP
0F00
DF80
F1C0
E0C0
C0E0
C060
C060
C0C0
E0C0
F1C0
DF80
CF00
C000
C000
C000
C000
C000
ENDCHAR
STARTCHAR 01CA
ENCODING 458
SWIDTH 495 0
DWIDTH 11 0
BBX 10 13 1 -1
BITMAP
1E00
3F80
6180
C0C0
C000
C000
C000
C000
C000
C0C0
6180
7F80
1E00
ENDCHAR
STARTCHAR 01CB
ENCODING 459
SWIDTH 495 0
DWIDTH 11 0
BBX 10 12 1 0
BITMAP
FFC0
FFC0
0C00
0C00
0C00
0C00
0C00
0C00
0C00
0C00
0C00
0C00
ENDCHAR
STARTCHAR 01CC
ENCODING 460
SWIDTH 495 0
DWIDTH 11 0
BBX 11 17 0 -5
BITMAP
E060
60C0
60C0
70C0
3180
3180
1980
1B00
1B00
0F00
0E00
0E00
0C00
0C00
0C00
7800
7000
ENDCHAR
STARTCHAR 01CD
ENCODING 461
SWIDTH 810 0
DWIDTH 18 0
BBX 17 21 1 -5
BITMAP
018000
018000
018000
018000
3D9C00
7FBE00
63C700
C1C300
C18180
C18180
C18180
C18180
C18380
C1C300
63C700
7FBE00
3DBC00
018000
018000
018000
018000
ENDCHAR
STARTCHAR 01CE
ENCODING 462
SWIDTH 495 0
DWIDTH 11 0
BBX 10 12 1 0
BITMAP
C180
E380
7300
3600
3E00
1C00
1C00
3E00
3700
6300
E380
C1C0
ENDCHAR
STARTCHAR 01CF
ENCODING 463
SWIDTH 585 0
DWIDTH 13 0
BBX 11 15 1 -3
BITMAP
C0C0
C0C0
C0C0
C0C0
C0C0
C0C0
C0C0
C0C0
C0C0
C0C0
FFE0
FFE0
0060
0060
0060
ENDCHAR
STARTCHAR 01D0
ENCODING 464
SWIDTH 540 0
DWIDTH 12 0
BBX 9 12 1 0
BITMAP
C180
C180
C180
C180
C180
E180
7F80
3F80
0180
0180
0180
0180
ENDCHAR
STARTCHAR 01D1
ENCODING 465
SWIDTH 765 0
DWIDTH 17 0
BBX 15 12 1 0
BITMAP
C186
C186
C186
C186
C186
C186
C186
C186
C186
C186
FFFE
FFFE
ENDCHAR
STARTCHAR 01D2
ENCODING 466
SWIDTH 810 0
DWIDTH 18 0
BBX 16 15 1 -3
BITMAP
C186
C186
C186
C186
C186
C186
C186
C186
C186
C186
FFFF
FFFF
0003
0003
0003
ENDCHAR
STARTCHAR 01D3
ENCODING 467
SWIDTH 630 0
DWIDTH 14 0
BBX 13 12 0 0
BITMAP
FC00
FC00
0C00
0C00
0C00
0FE0
0FF8
0C18
0C18
0C18
0FF8
0FE0
ENDCHAR
STARTCHAR 01D4
ENCODING 468
SWIDTH 720 0
DWIDTH 16 0
BBX 14 12 1 0
BITMAP
C00C
C00C
C00C
C00C
C00C
FF0C
FF8C
C0CC
C0CC
C0CC
FF8C
FF0C
ENDCHAR
STARTCHAR 01D5
ENCODING 469
SWIDTH 495 0
DWIDTH 11 0
BBX 10 12 1 0
BITMAP
C000
C000
C000
C000
C000
FF00
FF80
C1C0
C0C0
C1C0
FF80
FF00
ENDCHAR
STARTCHAR 01D6
ENCODING 470
SWIDTH 495 0
DWIDTH 11 0
BBX 10 12 1 0
BITMAP
3E00
7F00
E380
C180
0180
1FC0
1FC0
0180
C180
E380
7F00
3E00
ENDCHAR
STARTCHAR 01D7
ENCODING 471
SWIDTH 765 0
DWIDTH 17 0
BBX 16 12 1 0
BITMAP
C0F8
C3FC
C70E
C606
C606
FE07
FE07
C606
C606
C70E
C3FC
C0F8
ENDCHAR
STARTCHAR 01D8
ENCODING 472
SWIDTH 540 0
DWIDTH 12 0
BBX 10 12 1 0
BITMAP
3FC0
7FC0
E0C0
C0C0
C0C0
60C0
7FC0
7FC0
60C0
C0C0
C0C0
C0C0
ENDCHAR
STARTCHAR 01D9
ENCODING 473
SWIDTH 675 0
DWIDTH 15 0
BBX 11 19 2 0
BITMAP
1B00
1B00
0000
FFE0
FFE0
C000
C000
C000
C000
C000
FFE0
FFE0
C000
C000
C000
C000
C000
FFE0
FFE0
ENDCHAR
STARTCHAR 01DA
ENCODING 474
SWIDTH 540 0
DWIDTH 12 0
BBX 10 16 1 0
BITMAP
3300
3300
0000
0000
1F00
3F80
61C0
C0C0
C0C0
FFC0
FFC0
C000
C0C0
61C0
7F80
1F00
ENDCHAR
STARTCHAR 01DB
ENCODING 475
SWIDTH 540 0
DWIDTH 12 0
BBX 9 20 2 0
BITMAP
0600
0C00
0800
0000
FF80
FF80
C000
C000
C000
C000
C000
C000
C000
C000
C000
C000
C000
C000
C000
C000
ENDCHAR
STARTCHAR 01DC
ENCODING 476
SWIDTH 405 0
DWIDTH 9 0
BBX 8 16 1 0
BITMAP
06
0C
18
00
FF
FF
C0
C0
C0
C0
C0
C0
C0
C0
C0
C0
ENDCHAR
STARTCHAR 01DD
ENCODING 477
SWIDTH 270 0
DWIDTH 6 0
BBX 2 16 2 0
BITMAP
C0
C0
C0
C0
C0
C0
C0
C0
C0
C0
C0
C0
C0
C0
C0
C0
ENDCHAR
STARTCHAR 01DE
ENCODING 478
SWIDTH 225 0
DWIDTH 5 0
BBX 2 16 1 0
BITMAP
C0
C0
00
00
C0
C0
C0
C0
C0
C0
C0
C0
C0
C0
C0
C0
ENDCHAR
STARTCHAR 01DF
ENCODING 479
SWIDTH 495 0
DWIDTH 11 0
BBX 9 17 0 -1
BITMAP
0180
0180
0180
0180
0180
0180
0180
0180
0180
0180
0180
C180
C180
E180
6380
7F00
1E00
ENDCHAR
STARTCHAR 01E0
ENCODING 480
SWIDTH 720 0
DWIDTH 16 0
BBX 14 16 1 0
BITMAP
0FC0
1FF0
3838
7018
E00C
C000
C000
FF80
FF80
C000
C00C
E01C
6018
3870
1FE0
0FC0
ENDCHAR
STARTCHAR 01E1
ENCODING 481
SWIDTH 495 0
DWIDTH 11 0
BBX 10 12 1 0
BITMAP
1E00
7F80
6180
C0C0
C000
FC00
FC00
C000
C0C0
6180
7F80
1E00
ENDCHAR
STARTCHAR 01E2
ENCODING 482
SWIDTH 270 0
DWIDTH 6 0
BBX 6 19 0 0
BITMAP
CC
CC
00
30
30
30
30
30
30
30
30
30
30
30
30
30
30
30
30
ENDCHAR
STARTCHAR 01E3
ENCODING 483
SWIDTH 270 0
DWIDTH 6 0
BBX 5 16 0 0
BITMAP
D8
D8
00
00
30
30
30
30
30
30
30
30
30
30
30
30
ENDCHAR
STARTCHAR 01E4
ENCODING 484
SWIDTH 990 0
DWIDTH 22 0
BBX 21 16 0 0
BITMAP
0FF800
0FF800
0C1800
0C1800
0C1800
0C1800
0C1800
0C1FE0
1C1FF0
181838
181818
181818
181818
381838
F01FF0
E01FE0
ENDCHAR
STARTCHAR 01E5
ENCODING 485
SWIDTH 855 0
DWIDTH 19 0
BBX 18 12 0 0
BITMAP
1FE000
1FE000
186000
186000
186000
187F00
187F80
1860C0
3060C0
3060C0
F07F80
E07F00
ENDCHAR
STARTCHAR 01E6
ENCODING 486
SWIDTH 990 0
DWIDTH 22 0
BBX 19 16 2 0
BITMAP
C06000
C06000
C06000
C06000
C06000
C06000
C06000
FFFF00
FFFFC0
C060E0
C06060
C06060
C06060
C060E0
C07FC0
C07F80
ENDCHAR
STARTCHAR 01E7
ENCODING 487
SWIDTH 810 0
DWIDTH 18 0
BBX 17 12 1 0
BITMAP
C0C000
C0C000
C0C000
C0C000
C0C000
FFFE00
FFFF00
C0C380
C0C180
C0C380
C0FF00
C0FE00
ENDCHAR
STARTCHAR 01E8
ENCODING 488
SWIDTH 225 0
DWIDTH 5 0
BBX 3 21 0 -5
BITMAP
60
60
00
00
00
60
60
60
60
60
60
60
60
60
60
60
60
60
60
E0
C0
ENDCHAR
STARTCHAR 01E9
ENCODING 489
SWIDTH 675 0
DWIDTH 15 0
BBX 13 16 1 0
BITMAP
1F80
3FE0
7070
6030
6030
6000
7800
3F80
03E0
0070
C038
C018
E038
7070
3FE0
1FC0
ENDCHAR
STARTCHAR 01EA
ENCODING 490
SWIDTH 765 0
DWIDTH 17 0
BBX 15 16 1 0
BITMAP
FFF0
FFF0
0C00
0C00
0C00
0C00
0C00
0FF8
0FFC
0C0E
0C06
0C06
0C06
0C06
0C06
0C06
ENDCHAR
STARTCHAR 01EB
ENCODING 491
SWIDTH 540 0
DWIDTH 12 0
BBX 11 16 0 0
BITMAP
3000
3000
3000
FFC0
FFC0
3000
3000
33C0
3FE0
3860
3060
3060
3060
3060
3060
3060
ENDCHAR
STARTCHAR 01EC
ENCODING 492
SWIDTH 675 0
DWIDTH 15 0
BBX 12 20 2 0
BITMAP
0300
0600
0C00
0000
C070
C0E0
C1C0
C380
C700
CE00
DC00
FE00
F600
E700
C380
C180
C0C0
C0E0
C070
C030
ENDCHAR
STARTCHAR 01ED
ENCODING 493
SWIDTH 540 0
DWIDTH 12 0
BBX 11 16 1 0
BITMAP
0300
0600
0C00
0000
C000
C1C0
C380
C700
CE00
DC00
FC00
E600
C700
C380
C1C0
C0E0
ENDCHAR
STARTCHAR 01EE
ENCODING 494
SWIDTH 495 0
DWIDTH 11 0
BBX 9 13 1 -1
BITMAP
3E00
7F00
E380
C180
C000
7000
3F00
0380
0180
C180
C180
7F00
3E00
ENDCHAR
STARTCHAR 01EF
ENCODING 495
SWIDTH 765 0
DWIDTH 17 0
BBX 16 21 0 -5
BITMAP
FFF0
FFF0
0600
0600
0600
0600
06F8
07FC
070E
0607
0603
0603
0603
0603
0603
0607
0006
000E
001C
00F8
00E0
ENDCHAR
STARTCHAR 01F0
ENCODING 496
SWIDTH 540 0
DWIDTH 12 0
BBX 11 21 0 -5
BITMAP
3000
3000
3000
FFC0
FFC0
3000
3000
3780
3FC0
38E0
3060
3060
3060
3060
3060
3060
0060
0060
00C0
03C0
0300
ENDCHAR
STARTCHAR 01F1
ENCODING 497
SWIDTH 675 0
DWIDTH 15 0
BBX 13 20 1 0
BITMAP
1860
18C0
0F80
0000
C018
E018
6030
7030
3070
1860
1860
0CC0
0CC0
06C0
0780
0380
0300
0700
3E00
3C00
ENDCHAR
STARTCHAR 01F2
ENCODING 498
SWIDTH 495 0
DWIDTH 11 0
BBX 11 21 0 -5
BITMAP
3180
3180
1F00
0000
C060
60C0
60C0
60C0
3180
3180
3180
1B00
1B00
0B00
0E00
0E00
0C00
0C00
0C00
7800
7000
ENDCHAR
STARTCHAR 01F3
ENCODING 499
SWIDTH 720 0
DWIDTH 16 0
BBX 12 19 2 -3
BITMAP
C030
C030
C030
C030
C030
C030
C030
C030
C030
C030
C030
C030
C030
C030
FFF0
FFF0
0600
0600
0600
ENDCHAR
STARTCHAR 01F4
ENCODING 500
SWIDTH 540 0
DWIDTH 12 0
BBX 10 15 1 -3
BITMAP
C0C0
C0C0
C0C0
C0C0
C0C0
C0C0
C0C0
C0C0
C0C0
C0C0
FFC0
FFC0
0C00
0C00
0C00
ENDCHAR
STARTCHAR 01F5
ENCODING 501
SWIDTH 540 0
DWIDTH 12 0
BBX 10 19 2 0
BITMAP
00C0
00C0
00C0
FFC0
FFC0
C000
C000
C000
C000
C000
C000
C000
C000
C000
C000
C000
C000
C000
C000
ENDCHAR
STARTCHAR 01F6
ENCODING 502
SWIDTH 405 0
DWIDTH 9 0
BBX 7 14 1 0
BITMAP
02
02
FE
FE
C0
C0
C0
C0
C0
C0
C0
C0
C0
C0
ENDCHAR
STARTCHAR 01F7
ENCODING 503
SWIDTH 0 0
DWIDTH 0 0
BBX 2 6 -7 10
BITMAP
40
80
80
C0
C0
C0
ENDCHAR
STARTCHAR 01F8
ENCODING 504
SWIDTH 0 0
DWIDTH 0 0
BBX 2 6 -7 10
BITMAP
C0
C0
C0
40
C0
80
ENDCHAR
STARTCHAR 01F9
ENCODING 505
SWIDTH 0 0
DWIDTH 0 0
BBX 2 6 -7 10
BITMAP
C0
C0
C0
40
C0
80
ENDCHAR
STARTCHAR 01FA
ENCODING 506
SWIDTH 0 0
DWIDTH 0 0
BBX 2 6 -7 10
BITMAP
C0
C0
C0
80
80
40
ENDCHAR
STARTCHAR 01FB
ENCODING 507
SWIDTH 0 0
DWIDTH 0 0
BBX 6 3 -9 13
BITMAP
D8
CC
64
ENDCHAR
STARTCHAR 01FC
ENCODING 508
SWIDTH 0 0
DWIDTH 0 0
BBX 1 4 -7 12
BITMAP
80
80
80
80
ENDCHAR
STARTCHAR 01FD
ENCODING 509
SWIDTH 0 0
DWIDTH 0 0
BBX 4 3 -8 13
BITMAP
B0
B0
B0
ENDCHAR
STARTCHAR 01FE
ENCODING 510
SWIDTH 0 0
DWIDTH 0 0
BBX 7 5 -10 13
BITMAP
18
18
C2
46
3C
ENDCHAR
STARTCHAR 01FF
ENCODING 511
SWIDTH 0 0
DWIDTH 0 0
BBX 4 3 -8 -4
BITMAP
C0
60
30
ENDCHAR
STARTCHAR 0200
ENCODING 512
SWIDTH 0 0
DWIDTH 0 0
BBX 4 3 -8 -4
BITMAP
70
60
C0
ENDCHAR
STARTCHAR 0201
ENCODING 513
SWIDTH 0 0
DWIDTH 0 0
BBX 7 1 -10 -3
BITMAP
FE
ENDCHAR
STARTCHAR 0202
ENCODING 514
SWIDTH 0 0
DWIDTH 0 0
BBX 2 2 -7 -4
BITMAP
C0
C0
ENDCHAR
STARTCHAR 0203
ENCODING 515
SWIDTH 0 0
DWIDTH 0 0
BBX 6 2 -9 -4
BITMAP
CC
CC
ENDCHAR
STARTCHAR 0204
ENCODING 516
SWIDTH 0 0
DWIDTH 0 0
BBX 4 4 -8 -4
BITMAP
E0
90
90
E0
ENDCHAR
STARTCHAR 0205
ENCODING 517
SWIDTH 0 0
DWIDTH 0 0
BBX 1 3 -7 -5
BITMAP
80
80
80
ENDCHAR
STARTCHAR 0206
ENCODING 518
SWIDTH 0 0
DWIDTH 0 0
BBX 6 3 -9 -4
BITMAP
CC
58
70
ENDCHAR
STARTCHAR 0207
ENCODING 519
SWIDTH 0 0
DWIDTH 0 0
BBX 6 3 -9 -4
BITMAP
70
58
CC
ENDCHAR
STARTCHAR 0208
ENCODING 520
SWIDTH 0 0
DWIDTH 0 0
BBX 7 3 -10 -4
BITMAP
C2
46
3C
ENDCHAR
STARTCHAR 0209
ENCODING 521
SWIDTH 0 0
DWIDTH 0 0
BBX 7 3 -10 -4
BITMAP
3C
46
C2
ENDCHAR
STARTCHAR 020A
ENCODING 522
SWIDTH 0 0
DWIDTH 0 0
BBX 8 3 -10 -4
BITMAP
03
7E
8E
ENDCHAR
STARTCHAR 020B
ENCODING 523
SWIDTH 0 0
DWIDTH 0 0
BBX 7 1 -10 -3
BITMAP
FE
ENDCHAR
STARTCHAR 020C
ENCODING 524
SWIDTH 0 0
DWIDTH 0 0
BBX 8 1 -10 -3
BITMAP
FF
ENDCHAR
STARTCHAR 020D
ENCODING 525
SWIDTH 0 0
DWIDTH 0 0
BBX 8 3 -10 4
BITMAP
73
9E
8E
ENDCHAR
STARTCHAR 020E
ENCODING 526
SWIDTH 0 0
DWIDTH 0 0
BBX 7 1 -10 5
BITMAP
FE
ENDCHAR
STARTCHAR 020F
ENCODING 527
SWIDTH 0 0
DWIDTH 0 0
BBX 8 1 -10 5
BITMAP
FF
ENDCHAR
STARTCHAR 0210
ENCODING 528
SWIDTH 0 0
DWIDTH 0 0
BBX 8 4 -10 -6
BITMAP
FF
00
00
FF
ENDCHAR
STARTCHAR 0211
ENCODING 529
SWIDTH 0 0
DWIDTH 0 0
BBX 2 7 -7 11
BITMAP
40
80
80
C0
C0
C0
80
ENDCHAR
STARTCHAR 0212
ENCODING 530
SWIDTH 0 0
DWIDTH 0 0
BBX 8 3 -10 12
BITMAP
FF
00
FF
ENDCHAR
STARTCHAR 0213
ENCODING 531
SWIDTH 0 0
DWIDTH 0 0
BBX 2 6 -7 10
BITMAP
C0
C0
C0
40
C0
80
ENDCHAR
STARTCHAR 0214
ENCODING 532
SWIDTH 0 0
DWIDTH 0 0
BBX 7 3 -10 13
BITMAP
3C
46
C2
ENDCHAR
STARTCHAR 0215
ENCODING 533
SWIDTH 0 0
DWIDTH 0 0
BBX 7 3 -10 13
BITMAP
18
D2
10
ENDCHAR
STARTCHAR 0216
ENCODING 534
SWIDTH 0 0
DWIDTH 0 0
BBX 4 3 -8 -5
BITMAP
B0
B0
B0
ENDCHAR
STARTCHAR 0217
ENCODING 535
SWIDTH 0 0
DWIDTH 0 0
BBX 0 0 0 0
BITMAP
ENDCHAR
STARTCHAR 0218
ENCODING 536
SWIDTH 270 0
DWIDTH 6 0
BBX 6 16 0 -5
BITMAP
30
30
30
30
30
30
30
30
30
FC
FC
30
30
30
F0
E0
ENDCHAR
STARTCHAR 0219
ENCODING 537
SWIDTH 540 0
DWIDTH 12 0
BBX 10 16 1 -5
BITMAP
C0C0
C0C0
C0C0
C0C0
C0C0
C0C0
C0C0
C0C0
E1C0
61C0
7FC0
3CC0
00C0
00C0
00C0
00C0
ENDCHAR
STARTCHAR 021A
ENCODING 538
SWIDTH 855 0
DWIDTH 19 0
BBX 16 12 1 0
BITMAP
C183
C183
C183
C183
C183
C183
C183
C183
C183
63C7
7EFF
3C7B
ENDCHAR
STARTCHAR 021B
ENCODING 539
SWIDTH 315 0
DWIDTH 7 0
BBX 6 12 1 0
BITMAP
0C
0C
0C
0C
0C
0C
0C
0C
0C
1C
FC
EC
ENDCHAR
STARTCHAR 021C
ENCODING 540
SWIDTH 855 0
DWIDTH 19 0
BBX 16 17 1 -5
BITMAP
C183
C183
C183
C183
C183
C183
C183
C183
C183
63C7
7EFF
3C7B
0003
0003
0003
0003
0003
ENDCHAR
STARTCHAR 021D
ENCODING 541
SWIDTH 315 0
DWIDTH 7 0
BBX 6 15 1 -3
BITMAP
CC
DC
F0
E0
C0
C0
C0
C0
C0
C0
C0
C0
C0
C0
C0
ENDCHAR
STARTCHAR 021E
ENCODING 542
SWIDTH 315 0
DWIDTH 7 0
BBX 6 16 1 0
BITMAP
0C
0C
0C
0C
0C
0C
0C
0C
0C
0C
0C
0C
0C
1C
FC
EC
ENDCHAR
STARTCHAR 021F
ENCODING 543
SWIDTH 540 0
DWIDTH 12 0
BBX 10 12 1 0
BITMAP
3E00
7F00
6180
C180
6000
3C00
7C00
C000
C0C0
C180
FF00
3E00
ENDCHAR
STARTCHAR 0220
ENCODING 544
SWIDTH 540 0
DWIDTH 12 0
BBX 10 12 1 0
BITMAP
3E00
7F80
6180
C180
0180
0F00
0F00
0180
C0C0
E1C0
7F80
3F00
ENDCHAR
STARTCHAR 0221
ENCODING 545
SWIDTH 270 0
DWIDTH 6 0
BBX 4 12 1 0
BITMAP
C0
C0
C0
C0
C0
C0
C0
C0
C0
C0
70
70
ENDCHAR
STARTCHAR 0222
ENCODING 546
SWIDTH 405 0
DWIDTH 9 0
BBX 9 22 0 -5
BITMAP
0380
0780
0E00
0C00
0C00
0C00
0C00
0C00
0C00
0C00
0C00
1C00
1800
1800
1800
1800
1800
1800
1800
3800
F000
E000
ENDCHAR
STARTCHAR 0223
ENCODING 547
SWIDTH 270 0
DWIDTH 6 0
BBX 6 15 0 0
BITMAP
E0
F0
30
30
30
30
30
30
30
30
FC
FC
30
30
30
ENDCHAR
STARTCHAR 0224
ENCODING 548
SWIDTH 270 0
DWIDTH 6 0
BBX 6 20 0 -5
BITMAP
30
30
30
FC
FC
30
30
30
30
30
30
30
30
30
30
30
30
30
3C
3C
ENDCHAR
STARTCHAR 0225
ENCODING 549
SWIDTH 495 0
DWIDTH 11 0
BBX 11 12 0 0
BITMAP
0E00
0E00
0A00
1B00
1B00
3180
3180
3180
61C0
60C0
60C0
C0E0
ENDCHAR
STARTCHAR 0226
ENCODING 550
SWIDTH 720 0
DWIDTH 16 0
BBX 15 12 0 0
BITMAP
1C30
1C38
1C38
1478
366C
366C
364C
63CC
63C6
63C6
6386
C186
ENDCHAR
STARTCHAR 0227
ENCODING 551
SWIDTH 495 0
DWIDTH 11 0
BBX 11 16 0 0
BITMAP
01C0
03C0
0600
0600
0600
0E00
0E00
1B00
1B00
1B00
3180
3180
31C0
60C0
60C0
E0E0
ENDCHAR
STARTCHAR 0228
ENCODING 552
SWIDTH 540 0
DWIDTH 12 0
BBX 9 16 2 0
BITMAP
3E00
7F00
E380
C180
C180
C180
0380
0700
0E00
0C00
0C00
1800
1800
1800
1800
1800
ENDCHAR
STARTCHAR 0229
ENCODING 553
SWIDTH 540 0
DWIDTH 12 0
BBX 9 16 2 0
BITMAP
3E00
7F00
E380
C180
C180
C180
E000
7000
3800
1800
0800
0C00
0C00
0C00
0C00
0C00
ENDCHAR
STARTCHAR 022A
ENCODING 554
SWIDTH 540 0
DWIDTH 12 0
BBX 9 16 2 0
BITMAP
1800
1800
1800
1800
1800
0C00
0C00
0E00
0700
0380
C180
C180
C180
E380
7F00
3E00
ENDCHAR
STARTCHAR 022B
ENCODING 555
SWIDTH 495 0
DWIDTH 11 0
BBX 9 16 2 -4
BITMAP
C180
E180
6180
3180
3980
1B80
0F80
0D80
1980
3180
6180
C180
0180
0180
0180
0180
ENDCHAR
STARTCHAR 022C
ENCODING 556
SWIDTH 585 0
DWIDTH 13 0
BBX 12 13 1 -1
BITMAP
3E40
7F40
61C0
C0C0
C0C0
C0C0
C0C0
C0C0
C0C0
C0C0
61C0
7F70
1E70
ENDCHAR
STARTCHAR 022D
ENCODING 557
SWIDTH 585 0
DWIDTH 13 0
BBX 12 13 1 -1
BITMAP
CF80
DFC0
70E0
6060
6060
6020
6030
6020
6060
6060
70E0
7FC0
6F80
ENDCHAR
STARTCHAR 022E
ENCODING 558
SWIDTH 720 0
DWIDTH 16 0
BBX 14 16 1 0
BITMAP
0FC0
3FE0
3870
6018
E01C
C00C
000C
000C
000C
000C
000C
C01C
6038
7070
3FE0
0FC0
ENDCHAR
STARTCHAR 022F
ENCODING 559
SWIDTH 720 0
DWIDTH 16 0
BBX 15 16 0 0
BITMAP
3FE0
3FF8
3038
300C
300C
300E
3006
FF86
FF86
3006
300E
300C
301C
3038
3FF0
3FE0
ENDCHAR
STARTCHAR 0230
ENCODING 560
SWIDTH 585 0
DWIDTH 13 0
BBX 11 16 1 0
BITMAP
1F00
7F80
E1C0
C0C0
C060
C060
C040
C040
40C0
6180
3F00
0C00
0600
0380
7F80
7F80
ENDCHAR
STARTCHAR 0231
ENCODING 561
SWIDTH 675 0
DWIDTH 15 0
BBX 12 16 2 0
BITMAP
FFF0
FFF0
0030
0030
0030
0030
0030
7FF0
7FF0
0030
0030
0030
0030
0030
FFF0
FFF0
ENDCHAR
STARTCHAR 0232
ENCODING 562
SWIDTH 675 0
DWIDTH 15 0
BBX 13 17 1 -1
BITMAP
0F80
3FE0
7070
6030
6030
0030
0070
07E0
3F80
7800
E000
C018
C018
C030
7070
7FE0
1F80
ENDCHAR
STARTCHAR 0233
ENCODING 563
SWIDTH 495 0
DWIDTH 11 0
BBX 9 13 1 -1
BITMAP
3E00
7F00
E180
C180
0180
0F00
7E00
E000
C000
C180
C380
7F00
3E00
ENDCHAR
STARTCHAR 0234
ENCODING 564
SWIDTH 585 0
DWIDTH 13 0
BBX 11 16 1 0
BITMAP
FFE0
FFE0
6000
3000
1800
0C00
0E00
0700
0300
0600
0C00
1800
7000
E000
FFE0
FFE0
ENDCHAR
STARTCHAR 0235
ENCODING 565
SWIDTH 855 0
DWIDTH 19 0
BBX 16 17 2 0
BITMAP
0003
C033
C03F
C030
C030
C030
C030
C030
C030
C030
C030
C030
C030
E070
70E0
3FE0
1F80
ENDCHAR
STARTCHAR 0236
ENCODING 566
SWIDTH 720 0
DWIDTH 16 0
BBX 14 12 1 0
BITMAP
C008
C0DC
C0F8
C0C0
C0C0
C0C0
C0C0
C0C0
E1C0
63C0
7FC0
3CC0
ENDCHAR
STARTCHAR 0237
ENCODING 567
SWIDTH 765 0
DWIDTH 17 0
BBX 15 16 1 0
BITMAP
FC7E
FC7E
1830
3018
600C
600C
C006
C006
C006
C006
C006
E00C
601C
7838
3FF0
0FC0
ENDCHAR
STARTCHAR 0238
ENCODING 568
SWIDTH 270 0
DWIDTH 6 0
BBX 2 16 2 0
BITMAP
C0
C0
C0
C0
C0
C0
C0
C0
C0
C0
C0
C0
C0
C0
C0
C0
ENDCHAR
STARTCHAR 0239
ENCODING 569
SWIDTH 450 0
DWIDTH 10 0
BBX 6 16 2 0
BITMAP
CC
CC
CC
CC
CC
CC
CC
CC
CC
CC
CC
CC
CC
CC
CC
CC
ENDCHAR
STARTCHAR 023A
ENCODING 570
SWIDTH 270 0
DWIDTH 6 0
BBX 2 16 2 0
BITMAP
C0
C0
C0
C0
C0
C0
C0
C0
C0
C0
40
40
00
00
C0
C0
ENDCHAR
STARTCHAR 023B
ENCODING 571
SWIDTH 585 0
DWIDTH 13 0
BBX 12 16 0 0
BITMAP
0600
0600
0600
0600
0600
FFF0
FFF0
0600
0600
0600
FFF0
FFF0
0600
0600
0600
0600
ENDCHAR
STARTCHAR 023C
ENCODING 572
SWIDTH 495 0
DWIDTH 11 0
BBX 10 13 1 -1
BITMAP
1E00
7F80
6180
C180
C000
C000
C000
C000
C0C0
C180
6380
7F00
3E00
ENDCHAR
STARTCHAR 023D
ENCODING 573
SWIDTH 135 0
DWIDTH 3 0
BBX 2 6 1 -7
BITMAP
80
80
80
80
80
C0
ENDCHAR
STARTCHAR 023E
ENCODING 574
SWIDTH 315 0
DWIDTH 7 0
BBX 4 6 2 10
BITMAP
30
30
60
60
40
C0
ENDCHAR
STARTCHAR 023F
ENCODING 575
SWIDTH 315 0
DWIDTH 7 0
BBX 4 6 2 10
BITMAP
E0
60
60
30
30
10
ENDCHAR
STARTCHAR 0240
ENCODING 576
SWIDTH 1395 0
DWIDTH 31 0
BBX 30 16 0 0
BITMAP
38100000
44200000
C2200000
C2400000
C2C00000
44800000
39000000
01000000
02000000
02707070
04888888
0D0D8584
090D8584
110D8584
10888888
20707070
ENDCHAR
STARTCHAR 0241
ENCODING 577
SWIDTH 675 0
DWIDTH 15 0
BBX 9 2 3 0
BITMAP
C180
C180
ENDCHAR
STARTCHAR 0242
ENCODING 578
SWIDTH 315 0
DWIDTH 7 0
BBX 2 2 3 0
BITMAP
C0
C0
ENDCHAR
STARTCHAR 0243
ENCODING 579
SWIDTH 315 0
DWIDTH 7 0
BBX 6 6 1 10
BITMAP
DC
DC
88
88
C8
44
ENDCHAR
STARTCHAR 0244
ENCODING 580
SWIDTH 225 0
DWIDTH 5 0
BBX 2 6 2 10
BITMAP
C0
C0
C0
80
80
40
ENDCHAR
STARTCHAR 0245
ENCODING 581
SWIDTH 315 0
DWIDTH 7 0
BBX 5 2 1 5
BITMAP
F8
F8
ENDCHAR
STARTCHAR 0246
ENCODING 582
SWIDTH 540 0
DWIDTH 12 0
BBX 12 20 0 -4
BITMAP
FF80
67C0
67E0
67E0
67F0
67F0
67E0
67E0
67E0
67C0
6600
6600
6600
6600
6600
6600
6600
6600
6600
6600
ENDCHAR
STARTCHAR 0247
ENCODING 583
SWIDTH 540 0
DWIDTH 12 0
BBX 8 6 2 10
BITMAP
33
37
66
66
4C
CC
ENDCHAR
STARTCHAR 0248
ENCODING 584
SWIDTH 540 0
DWIDTH 12 0
BBX 8 6 2 10
BITMAP
EC
66
66
32
33
11
ENDCHAR
STARTCHAR 0249
ENCODING 585
SWIDTH 675 0
DWIDTH 15 0
BBX 12 6 2 10
BITMAP
3330
3760
6660
6640
4CC0
CC80
ENDCHAR
STARTCHAR 024A
ENCODING 586
SWIDTH 675 0
DWIDTH 15 0
BBX 12 6 2 10
BITMAP
ECC0
66E0
6660
3260
3330
1130
ENDCHAR
STARTCHAR 024B
ENCODING 587
SWIDTH 315 0
DWIDTH 7 0
BBX 5 2 1 5
BITMAP
F8
F8
ENDCHAR
STARTCHAR 024C
ENCODING 588
SWIDTH 315 0
DWIDTH 7 0
BBX 2 2 3 7
BITMAP
C0
C0
ENDCHAR
STARTCHAR 024D
ENCODING 589
SWIDTH 315 0
DWIDTH 7 0
BBX 5 2 1 5
BITMAP
F8
F8
ENDCHAR
STARTCHAR 024E
ENCODING 590
SWIDTH 990 0
DWIDTH 22 0
BBX 17 2 3 5
BITMAP
FFFF80
FFFF80
ENDCHAR
STARTCHAR 024F
ENCODING 591
SWIDTH 360 0
DWIDTH 8 0
BBX 5 5 2 6
BITMAP
80
E0
F8
E0
80
ENDCHAR
STARTCHAR 0250
ENCODING 592
SWIDTH 135 0
DWIDTH 3 0
BBX 0 0 0 0
BITMAP
ENDCHAR
STARTCHAR 0251
ENCODING 593
SWIDTH 0 0
DWIDTH 0 0
BBX 0 0 0 0
BITMAP
ENDCHAR
STARTCHAR 0252
ENCODING 594
SWIDTH 0 0
DWIDTH 0 0
BBX 0 0 0 0
BITMAP
ENDCHAR
STARTCHAR 0253
ENCODING 595
SWIDTH 0 0
DWIDTH 0 0
BBX 0 0 0 0
BITMAP
ENDCHAR
STARTCHAR 0254
ENCODING 596
SWIDTH 0 0
DWIDTH 0 0
BBX 0 0 0 0
BITMAP
ENDCHAR
STARTCHAR 0255
ENCODING 597
SWIDTH 0 0
DWIDTH 0 0
BBX 0 0 0 0
BITMAP
ENDCHAR
STARTCHAR 0256
ENCODING 598
SWIDTH 0 0
DWIDTH 0 0
BBX 0 0 0 0
BITMAP
ENDCHAR
STARTCHAR 0257
ENCODING 599
SWIDTH 0 0
DWIDTH 0 0
BBX 0 0 0 0
BITMAP
ENDCHAR
STARTCHAR 0258
ENCODING 600
SWIDTH 270 0
DWIDTH 6 0
BBX 0 0 0 0
BITMAP
ENDCHAR
STARTCHAR 0259
ENCODING 601
SWIDTH 270 0
DWIDTH 6 0
BBX 0 0 0 0
BITMAP
ENDCHAR
STARTCHAR 025A
ENCODING 602
SWIDTH 270 0
DWIDTH 6 0
BBX 0 0 0 0
BITMAP
ENDCHAR
STARTCHAR 025B
ENCODING 603
SWIDTH 270 0
DWIDTH 6 0
BBX 0 0 0 0
BITMAP
ENDCHAR
STARTCHAR 025C
ENCODING 604
SWIDTH 270 0
DWIDTH 6 0
BBX 0 0 0 0
BITMAP
ENDCHAR
STARTCHAR 025D
ENCODING 605
SWIDTH 270 0
DWIDTH 6 0
BBX 0 0 0 0
BITMAP
ENDCHAR
STARTCHAR 025E
ENCODING 606
SWIDTH 270 0
DWIDTH 6 0
BBX 0 0 0 0
BITMAP
ENDCHAR
STARTCHAR 025F
ENCODING 607
SWIDTH 270 0
DWIDTH 6 0
BBX 0 0 0 0
BITMAP
ENDCHAR
STARTCHAR 0260
ENCODING 608
SWIDTH 270 0
DWIDTH 6 0
BBX 0 0 0 0
BITMAP
ENDCHAR
STARTCHAR 0261
ENCODING 609
SWIDTH 0 0
DWIDTH 0 0
BBX 0 0 0 0
BITMAP
ENDCHAR
STARTCHAR 0262
ENCODING 610
SWIDTH 0 0
DWIDTH 0 0
BBX 0 0 0 0
BITMAP
ENDCHAR
STARTCHAR 0263
ENCODING 611
SWIDTH 0 0
DWIDTH 0 0
BBX 0 0 0 0
BITMAP
ENDCHAR
STARTCHAR 0264
ENCODING 612
SWIDTH 0 0
DWIDTH 0 0
BBX 0 0 0 0
BITMAP
ENDCHAR
STARTCHAR 0265
ENCODING 613
SWIDTH 0 0
DWIDTH 0 0
BBX 0 0 0 0
BITMAP
ENDCHAR
STARTCHAR 0266
ENCODING 614
SWIDTH 135 0
DWIDTH 3 0
BBX 0 0 0 0
BITMAP
ENDCHAR
STARTCHAR 0267
ENCODING 615
SWIDTH 90 0
DWIDTH 2 0
BBX 0 0 0 0
BITMAP
ENDCHAR
STARTCHAR 0268
ENCODING 616
SWIDTH 315 0
DWIDTH 7 0
BBX 8 4 0 -6
BITMAP
FF
00
00
FF
ENDCHAR
STARTCHAR 0269
ENCODING 617
SWIDTH 450 0
DWIDTH 10 0
BBX 5 16 2 0
BITMAP
C8
C8
C8
C8
C8
C8
C8
C8
C8
C8
C8
C8
C8
C8
C8
C8
ENDCHAR
STARTCHAR 026A
ENCODING 618
SWIDTH 540 0
DWIDTH 12 0
BBX 9 16 2 0
BITMAP
3E00
7F00
D980
D980
D980
1980
1B80
1F00
1E00
0C00
0800
1800
0000
0000
1C00
1C00
ENDCHAR
STARTCHAR 026B
ENCODING 619
SWIDTH 315 0
DWIDTH 7 0
BBX 5 2 1 5
BITMAP
F8
F8
ENDCHAR
STARTCHAR 026C
ENCODING 620
SWIDTH 315 0
DWIDTH 7 0
BBX 8 1 0 14
BITMAP
FF
ENDCHAR
STARTCHAR 026D
ENCODING 621
SWIDTH 540 0
DWIDTH 12 0
BBX 11 10 1 3
BITMAP
FF00
CF80
CFC0
CFC0
CFE0
CFE0
CFC0
CFC0
CF80
FF00
ENDCHAR
STARTCHAR 026E
ENCODING 622
SWIDTH 540 0
DWIDTH 12 0
BBX 11 10 1 3
BITMAP
1FE0
3C60
7C60
FC60
FC60
FC60
FC60
7C60
7C60
1FE0
ENDCHAR
STARTCHAR 026F
ENCODING 623
SWIDTH 675 0
DWIDTH 15 0
BBX 13 21 1 0
BITMAP
0700
0880
0880
0580
0200
0700
0700
0D80
0D80
0D80
18C0
18C0
10C0
3060
3FE0
7FF0
6030
6030
C038
C018
C018
ENDCHAR
STARTCHAR 0270
ENCODING 624
SWIDTH 630 0
DWIDTH 14 0
BBX 11 16 2 0
BITMAP
0060
0060
0060
0060
0060
0060
0060
7FE0
7FE0
0060
0060
0060
0060
0060
FFE0
FFE0
ENDCHAR
STARTCHAR 0271
ENCODING 625
SWIDTH 540 0
DWIDTH 12 0
BBX 10 13 1 -1
BITMAP
1E00
7F80
6180
C0C0
00C0
00C0
FFC0
FFC0
C0C0
C0C0
6180
7F80
1E00
ENDCHAR
STARTCHAR 0272
ENCODING 626
SWIDTH 900 0
DWIDTH 20 0
BBX 18 16 1 0
BITMAP
07E080
1FF9C0
383F80
700C00
600E00
E00600
C00600
C00600
C00600
C00600
C00600
E00E00
700C00
383800
1FF000
0FE000
ENDCHAR
STARTCHAR 0273
ENCODING 627
SWIDTH 675 0
DWIDTH 15 0
BBX 13 13 1 -1
BITMAP
1E18
7F98
61F8
C0C0
C0C0
C0C0
C0C0
C0C0
C0C0
C0C0
61C0
7F80
1E00
ENDCHAR
STARTCHAR 0274
ENCODING 628
SWIDTH 0 0
DWIDTH 0 0
BBX 2 5 -7 13
BITMAP
80
40
40
40
80
ENDCHAR
STARTCHAR 0275
ENCODING 629
SWIDTH 0 0
DWIDTH 0 0
BBX 2 5 -7 13
BITMAP
40
80
80
80
40
ENDCHAR
STARTCHAR 0276
ENCODING 630
SWIDTH 0 0
DWIDTH 0 0
BBX 2 4 -7 -4
BITMAP
C0
80
80
C0
ENDCHAR
STARTCHAR 0277
ENCODING 631
SWIDTH 0 0
DWIDTH 0 0
BBX 2 4 -7 -4
BITMAP
80
40
40
80
ENDCHAR
STARTCHAR 0278
ENCODING 632
SWIDTH 0 0
DWIDTH 0 0
BBX 6 6 -9 11
BITMAP
70
88
18
E8
88
7C
ENDCHAR
STARTCHAR 0279
ENCODING 633
SWIDTH 0 0
DWIDTH 0 0
BBX 5 6 -9 11
BITMAP
70
C8
88
F8
88
70
ENDCHAR
STARTCHAR 027A
ENCODING 634
SWIDTH 0 0
DWIDTH 0 0
BBX 1 8 -7 11
BITMAP
80
00
80
80
80
80
80
80
ENDCHAR
STARTCHAR 027B
ENCODING 635
SWIDTH 0 0
DWIDTH 0 0
BBX 6 6 -9 11
BITMAP
70
C8
8C
88
C8
70
ENDCHAR
STARTCHAR 027C
ENCODING 636
SWIDTH 0 0
DWIDTH 0 0
BBX 5 6 -9 11
BITMAP
88
88
88
88
48
78
ENDCHAR
STARTCHAR 027D
ENCODING 637
SWIDTH 0 0
DWIDTH 0 0
BBX 5 6 -9 11
BITMAP
78
48
80
80
48
70
ENDCHAR
STARTCHAR 027E
ENCODING 638
SWIDTH 0 0
DWIDTH 0 0
BBX 5 8 -9 11
BITMAP
08
08
78
48
88
88
48
70
ENDCHAR
STARTCHAR 027F
ENCODING 639
SWIDTH 0 0
DWIDTH 0 0
BBX 5 8 -9 11
BITMAP
80
80
B8
C8
88
88
88
88
ENDCHAR
STARTCHAR 0280
ENCODING 640
SWIDTH 0 0
DWIDTH 0 0
BBX 8 6 -10 11
BITMAP
F6
99
91
91
91
91
ENDCHAR
STARTCHAR 0281
ENCODING 641
SWIDTH 0 0
DWIDTH 0 0
BBX 3 6 -8 11
BITMAP
A0
C0
80
80
80
80
ENDCHAR
STARTCHAR 0282
ENCODING 642
SWIDTH 0 0
DWIDTH 0 0
BBX 3 7 -8 11
BITMAP
40
E0
40
40
40
40
60
ENDCHAR
STARTCHAR 0283
ENCODING 643
SWIDTH 0 0
DWIDTH 0 0
BBX 5 6 -9 11
BITMAP
88
48
48
50
30
20
ENDCHAR
STARTCHAR 0284
ENCODING 644
SWIDTH 0 0
DWIDTH 0 0
BBX 5 6 -9 11
BITMAP
48
50
30
30
50
C8
ENDCHAR
STARTCHAR 0285
ENCODING 645
SWIDTH 0 0
DWIDTH 0 0
BBX 7 4 -10 -6
BITMAP
FE
00
00
FE
ENDCHAR
STARTCHAR 0286
ENCODING 646
SWIDTH 0 0
DWIDTH 0 0
BBX 6 8 -9 4
BITMAP
0C
08
18
30
20
60
C0
80
ENDCHAR
STARTCHAR 0287
ENCODING 647
SWIDTH 0 0
DWIDTH 0 0
BBX 6 6 -9 -7
BITMAP
20
20
FC
20
20
20
ENDCHAR
STARTCHAR 0288
ENCODING 648
SWIDTH 0 0
DWIDTH 0 0
BBX 6 6 -9 -7
BITMAP
FC
20
20
20
20
20
ENDCHAR
STARTCHAR 0289
ENCODING 649
SWIDTH 0 0
DWIDTH 0 0
BBX 6 6 -9 -7
BITMAP
20
20
20
20
20
FC
ENDCHAR
STARTCHAR 028A
ENCODING 650
SWIDTH 0 0
DWIDTH 0 0
BBX 6 6 -9 -7
BITMAP
04
04
FC
04
04
04
ENDCHAR
STARTCHAR 028B
ENCODING 651
SWIDTH 0 0
DWIDTH 0 0
BBX 6 6 -9 -7
BITMAP
80
80
FC
80
80
80
ENDCHAR
STARTCHAR 028C
ENCODING 652
SWIDTH 0 0
DWIDTH 0 0
BBX 7 5 -10 13
BITMAP
3C
46
C2
18
18
ENDCHAR
STARTCHAR 028D
ENCODING 653
SWIDTH 180 0
DWIDTH 4 0
BBX 2 6 1 10
BITMAP
40
40
40
80
80
80
ENDCHAR
STARTCHAR 028E
ENCODING 654
SWIDTH 315 0
DWIDTH 7 0
BBX 5 6 1 10
BITMAP
48
48
50
90
90
90
ENDCHAR
STARTCHAR 028F
ENCODING 655
SWIDTH 180 0
DWIDTH 4 0
BBX 2 6 1 10
BITMAP
40
40
40
80
80
80
ENDCHAR
STARTCHAR 0290
ENCODING 656
SWIDTH 180 0
DWIDTH 4 0
BBX 2 7 1 -6
BITMAP
40
40
40
40
40
80
80
ENDCHAR
STARTCHAR 0291
ENCODING 657
SWIDTH 540 0
DWIDTH 12 0
BBX 11 12 1 0
BITMAP
3000
3000
1800
FFE0
FFE0
0C00
0C00
0600
FFE0
FFE0
0300
0180
ENDCHAR
STARTCHAR 0292
ENCODING 658
SWIDTH 540 0
DWIDTH 12 0
BBX 12 12 0 0
BITMAP
0080
0180
0180
FFF0
FFF0
0600
0600
0400
FFF0
FFF0
1800
1800
ENDCHAR
STARTCHAR 0293
ENCODING 659
SWIDTH 495 0
DWIDTH 11 0
BBX 10 16 0 0
BITMAP
1E00
3E00
7000
6000
6000
6000
6F00
FF80
71C0
60C0
60C0
60C0
30C0
39C0
1F80
0F00
ENDCHAR
STARTCHAR 0294
ENCODING 660
SWIDTH 495 0
DWIDTH 11 0
BBX 10 16 1 0
BITMAP
1E00
1F00
0380
0180
0180
0180
3D80
7FC0
E380
C180
C180
C180
C300
E700
7E00
3C00
ENDCHAR
STARTCHAR 0295
ENCODING 661
SWIDTH 720 0
DWIDTH 16 0
BBX 12 19 3 -3
BITMAP
FFF0
FFF0
0070
00E0
01C0
0380
0300
0600
0C00
1800
0C00
0600
0300
0180
01C0
00E0
0070
FFF0
FFF0
ENDCHAR
STARTCHAR 0296
ENCODING 662
SWIDTH 720 0
DWIDTH 16 0
BBX 13 19 0 -3
BITMAP
7FF8
7FF8
7000
3800
1C00
0C00
0600
0300
0380
01C0
0380
0300
0600
0C00
1800
3000
7000
FFF8
FFF8
ENDCHAR
STARTCHAR 0297
ENCODING 663
SWIDTH 270 0
DWIDTH 6 0
BBX 9 22 1 -5
BITMAP
F000
F000
1800
1800
1800
1800
1800
1800
1C00
0C00
0C00
0C00
0C00
0C00
0C00
0C00
0C00
0C00
0C00
0600
0780
0380
ENDCHAR
STARTCHAR 0298
ENCODING 664
SWIDTH 270 0
DWIDTH 6 0
BBX 9 22 -4 -5
BITMAP
0380
0780
0C00
0C00
0C00
0C00
0C00
0C00
0C00
1C00
1800
1800
1800
1800
1800
1800
1800
1800
1800
3800
F000
E000
ENDCHAR
STARTCHAR 0299
ENCODING 665
SWIDTH 540 0
DWIDTH 12 0
BBX 14 21 -2 0
BITMAP
C000
C000
4000
6000
6000
2000
3000
3000
1000
1800
1830
0838
0C34
0C60
0460
0640
06C0
02C0
0380
0380
0180
ENDCHAR
STARTCHAR 029A
ENCODING 666
SWIDTH 540 0
DWIDTH 12 0
BBX 14 21 0 0
BITMAP
0004
000C
000C
0008
0018
0018
0010
0030
0030
0020
1060
7040
9840
18C0
1880
0C80
0D80
0500
0700
0700
0200
ENDCHAR
STARTCHAR 029B
ENCODING 667
SWIDTH 540 0
DWIDTH 12 0
BBX 12 8 0 2
BITMAP
81E0
C7F0
FE30
3810
81E0
C7F0
FE30
3810
ENDCHAR
STARTCHAR 029C
ENCODING 668
SWIDTH 540 0
DWIDTH 12 0
BBX 12 8 0 2
BITMAP
3810
7E30
C7F0
81E0
3810
7E30
C7F0
81E0
ENDCHAR
STARTCHAR 029D
ENCODING 669
SWIDTH 1125 0
DWIDTH 25 0
BBX 23 16 1 0
BITMAP
3807E0
440FF8
C61C1C
82380C
C67006
446000
386000
006000
006000
006000
006006
00700E
00300C
003C1C
001FF8
0007E0
ENDCHAR
STARTCHAR 029E
ENCODING 670
SWIDTH 990 0
DWIDTH 22 0
BBX 21 16 1 0
BITMAP
383FF8
443FF8
C63000
823000
C63000
443000
383000
003FF0
003FF0
003000
003000
003000
003000
003000
003000
003000
ENDCHAR
STARTCHAR 029F
ENCODING 671
SWIDTH 675 0
DWIDTH 15 0
BBX 12 16 2 0
BITMAP
C070
C0E0
C1C0
C380
C700
CE00
DC00
FE00
F600
E700
C380
C180
C1C0
C0E0
C070
C030
ENDCHAR
STARTCHAR 02A0
ENCODING 672
SWIDTH 270 0
DWIDTH 6 0
BBX 2 16 2 0
BITMAP
C0
C0
C0
C0
C0
C0
C0
C0
C0
C0
C0
C0
C0
C0
C0
C0
ENDCHAR
STARTCHAR 02A1
ENCODING 673
SWIDTH 540 0
DWIDTH 12 0
BBX 9 16 2 0
BITMAP
C380
C380
C380
C380
C380
C380
C380
C380
C380
C380
C380
C380
C380
C380
C380
C380
ENDCHAR
STARTCHAR 02A2
ENCODING 674
SWIDTH 855 0
DWIDTH 19 0
BBX 15 16 2 0
BITMAP
C386
C386
C386
C386
C386
C386
C386
C386
C386
C386
C386
C386
C386
C386
C386
C386
ENDCHAR
STARTCHAR 02A3
ENCODING 675
SWIDTH 945 0
DWIDTH 21 0
BBX 18 16 2 0
BITMAP
C600C0
C700C0
C301C0
C30180
C38180
C18380
C18300
C1C300
C0C700
C0E600
C06600
C06C00
C07C00
C03C00
C03800
C03800
ENDCHAR
STARTCHAR 02A4
ENCODING 676
SWIDTH 675 0
DWIDTH 15 0
BBX 13 16 1 0
BITMAP
C018
C018
E038
6030
7070
3060
3060
38E0
18C0
18C0
1DC0
0D80
0D80
0F80
0700
0700
ENDCHAR
STARTCHAR 02A5
ENCODING 677
SWIDTH 945 0
DWIDTH 21 0
BBX 18 16 1 0
BITMAP
C018C0
C018C0
E038C0
6030C0
7070C0
3060C0
3060C0
38E0C0
18C0C0
18C0C0
1DC0C0
0D80C0
0D80C0
0F80C0
0700C0
0700C0
ENDCHAR
STARTCHAR 02A6
ENCODING 678
SWIDTH 1215 0
DWIDTH 27 0
BBX 24 16 1 0
BITMAP
C018C3
C018C3
E038C3
6030C3
7070C3
3060C3
3060C3
38E0C3
18C0C3
18C0C3
1DC0C3
0D80C3
0D80C3
0F80C3
0700C3
0700C3
ENDCHAR
STARTCHAR 02A7
ENCODING 679
SWIDTH 1485 0
DWIDTH 33 0
BBX 31 16 1 0
BITMAP
C018C30E
C018C30E
E038C30E
6030C30E
7070C30E
3060C30E
3060C30E
38E0C30E
18C0C30E
18C0C30E
1DC0C30E
0D80C30E
0D80C30E
0F80C30E
0700C30E
0700C30E
ENDCHAR
STARTCHAR 02A8
ENCODING 680
SWIDTH 945 0
DWIDTH 21 0
BBX 18 16 2 0
BITMAP
C701C0
C38180
C18380
C1C700
C0E600
C06E00
C07C00
C03800
C03800
C07C00
C0EE00
C0C700
C1C300
C38380
C301C0
C700C0
ENDCHAR
STARTCHAR 02A9
ENCODING 681
SWIDTH 675 0
DWIDTH 15 0
BBX 13 16 1 0
BITMAP
E038
7030
3060
38E0
1CC0
0D80
0F80
0700
0700
0D80
1DC0
18C0
30E0
7070
E030
C038
ENDCHAR
STARTCHAR 02AA
ENCODING 682
SWIDTH 945 0
DWIDTH 21 0
BBX 18 16 1 0
BITMAP
E038C0
7030C0
3060C0
38E0C0
1CC0C0
0D80C0
0F80C0
0700C0
0700C0
0D80C0
1DC0C0
18C0C0
30E0C0
7070C0
E030C0
C038C0
ENDCHAR
STARTCHAR 02AB
ENCODING 683
SWIDTH 1215 0
DWIDTH 27 0
BBX 24 16 1 0
BITMAP
E038C3
7030C3
3060C3
38E0C3
1CC0C3
0D80C3
0F80C3
0700C3
0700C3
0D80C3
1DC0C3
18C0C3
30E0C3
7070C3
E030C3
C038C3
ENDCHAR
STARTCHAR 02AC
ENCODING 684
SWIDTH 540 0
DWIDTH 12 0
BBX 10 16 2 0
BITMAP
C000
C000
C000
C000
C000
C000
C000
C000
C000
C000
C000
C000
C000
C000
FFC0
FFC0
ENDCHAR
STARTCHAR 02AD
ENCODING 685
SWIDTH 720 0
DWIDTH 16 0
BBX 14 16 1 0
BITMAP
0FC0
1FF0
3838
701C
600C
E000
C000
C000
C000
C000
C00C
600C
7018
3838
1FF0
0FC0
ENDCHAR
STARTCHAR 02AE
ENCODING 686
SWIDTH 720 0
DWIDTH 16 0
BBX 13 16 2 0
BITMAP
FF80
FFE0
C0E0
C030
C030
C038
C018
C018
C018
C018
C038
C030
C070
C0E0
FFC0
FF80
ENDCHAR
STARTCHAR 02AF
ENCODING 687
SWIDTH 855 0
DWIDTH 19 0
BBX 15 16 2 0
BITMAP
E00E
E01E
F01E
F01E
F036
D836
D836
D866
CC66
CC66
CCC6
C6C6
C6C6
C786
C386
C386
ENDCHAR
STARTCHAR 02B0
ENCODING 688
SWIDTH 225 0
DWIDTH 5 0
BBX 2 16 1 0
BITMAP
C0
C0
00
00
C0
C0
C0
C0
C0
C0
C0
C0
C0
C0
C0
C0
ENDCHAR
STARTCHAR 02B1
ENCODING 689
SWIDTH 450 0
DWIDTH 10 0
BBX 7 16 1 0
BITMAP
C6
C6
00
00
C6
C6
C6
C6
C6
C6
C6
C6
C6
C6
C6
C6
ENDCHAR
STARTCHAR 02B2
ENCODING 690
SWIDTH 675 0
DWIDTH 15 0
BBX 12 16 1 0
BITMAP
C630
C630
0000
0000
C630
C630
C630
C630
C630
C630
C630
C630
C630
C630
C630
C630
ENDCHAR
STARTCHAR 02B3
ENCODING 691
SWIDTH 720 0
DWIDTH 16 0
BBX 15 16 1 0
BITMAP
C000
C000
0000
0000
CC06
C60C
C60C
C60C
C318
C318
C310
C1B0
C1B0
C1A0
C0E0
C0E0
ENDCHAR
STARTCHAR 02B4
ENCODING 692
SWIDTH 495 0
DWIDTH 11 0
BBX 11 12 0 0
BITMAP
E060
60C0
60C0
60C0
3180
3180
3100
1B00
1B00
0A00
0E00
0E00
ENDCHAR
STARTCHAR 02B5
ENCODING 693
SWIDTH 720 0
DWIDTH 16 0
BBX 15 16 0 0
BITMAP
0006
0006
0000
0000
E066
60C6
60C6
60C6
3186
3186
3106
1B06
1B06
0A06
0E06
0E06
ENDCHAR
STARTCHAR 02B6
ENCODING 694
SWIDTH 945 0
DWIDTH 21 0
BBX 19 16 0 0
BITMAP
000660
000660
000000
000000
E06660
60C660
60C660
60C660
318660
318660
310660
1B0660
1B0660
0A0660
0E0660
0E0660
ENDCHAR
STARTCHAR 02B7
ENCODING 695
SWIDTH 1170 0
DWIDTH 26 0
BBX 24 16 0 0
BITMAP
000663
000663
000000
000000
E06663
60C663
60C663
60C663
318663
318663
310663
1B0663
1B0663
0A0663
0E0663
0E0663
ENDCHAR
STARTCHAR 02B8
ENCODING 696
SWIDTH 720 0
DWIDTH 16 0
BBX 14 16 1 0
BITMAP
C000
C000
0000
0000
C60C
C71C
C318
C1B0
C1F0
C0E0
C0E0
C1F0
C3B0
C318
C61C
CE0C
ENDCHAR
STARTCHAR 02B9
ENCODING 697
SWIDTH 495 0
DWIDTH 11 0
BBX 10 12 0 0
BITMAP
60C0
71C0
3180
1B00
1F00
0E00
0E00
1F00
3B00
3180
71C0
E0C0
ENDCHAR
STARTCHAR 02BA
ENCODING 698
SWIDTH 720 0
DWIDTH 16 0
BBX 15 16 0 0
BITMAP
0006
0006
0000
0000
60C6
71C6
3186
1B06
1F06
0E06
0E06
1F06
3B06
3186
71C6
E0C6
ENDCHAR
STARTCHAR 02BB
ENCODING 699
SWIDTH 945 0
DWIDTH 21 0
BBX 19 16 0 0
BITMAP
000660
000660
000000
000000
60C660
71C660
318660
1B0660
1F0660
0E0660
0E0660
1F0660
3B0660
318660
71C660
E0C660
ENDCHAR
STARTCHAR 02BC
ENCODING 700
SWIDTH 225 0
DWIDTH 5 0
BBX 2 16 1 0
BITMAP
C0
C0
C0
C0
C0
C0
C0
C0
C0
C0
C0
C0
C0
C0
C0
C0
ENDCHAR
STARTCHAR 02BD
ENCODING 701
SWIDTH 495 0
DWIDTH 11 0
BBX 10 12 1 0
BITMAP
1E00
7F80
6180
C0C0
C000
C000
C000
C000
C180
E180
7F80
3E00
ENDCHAR
STARTCHAR 02BE
ENCODING 702
SWIDTH 540 0
DWIDTH 12 0
BBX 10 16 1 0
BITMAP
00C0
00C0
00C0
00C0
3EC0
7FC0
E1C0
C0C0
C0C0
C0C0
C0C0
C0C0
C0C0
E1C0
7FC0
3CC0
ENDCHAR
STARTCHAR 02BF
ENCODING 703
SWIDTH 855 0
DWIDTH 19 0
BBX 16 12 1 0
BITMAP
CF3E
DFFF
F1C3
E1C3
E183
C183
C183
C183
C183
C183
C183
C183
ENDCHAR
STARTCHAR 02C0
ENCODING 704
SWIDTH 1215 0
DWIDTH 27 0
BBX 26 20 1 0
BITMAP
00004C00
00006C00
00003800
00000000
FF83FFC0
FFE3FFC0
C0700180
C0380300
C0180700
C0180E00
C0181C00
C0181800
C0183000
C0187000
C018E000
C019C000
C0338000
C0730000
FFE7FFC0
FF87FFC0
ENDCHAR
STARTCHAR 02C1
ENCODING 705
SWIDTH 1080 0
DWIDTH 24 0
BBX 23 16 1 0
BITMAP
FF8198
FFE0D0
C0F070
C03000
C03BFE
C01BFE
C0180C
C01818
C01838
C01870
C038E0
C030C0
C03180
C0E300
FFE7FE
FF87FE
ENDCHAR
STARTCHAR 02C2
ENCODING 706
SWIDTH 990 0
DWIDTH 22 0
BBX 20 16 1 0
BITMAP
00C660
00C3C0
00C180
00C000
3EDFF0
7FDFF0
E1C070
C0C0E0
C0C0C0
C0C180
C0C300
C0C700
C0CE00
E1DC00
7FDFF0
3CDFF0
ENDCHAR
STARTCHAR 02C3
ENCODING 707
SWIDTH 990 0
DWIDTH 22 0
BBX 20 16 1 0
BITMAP
C00030
C00030
C00030
C00030
C00030
C00030
C00030
C00030
C00030
C00030
C00030
C01830
C01830
C01C70
FFCFE0
FFC7C0
ENDCHAR
STARTCHAR 02C4
ENCODING 708
SWIDTH 720 0
DWIDTH 16 0
BBX 14 21 1 -5
BITMAP
C00C
C00C
C000
C000
C000
C00C
C00C
C00C
C00C
C00C
C00C
C00C
C00C
C00C
FFCC
FFCC
000C
000C
000C
003C
0038
ENDCHAR
STARTCHAR 02C5
ENCODING 709
SWIDTH 360 0
DWIDTH 8 0
BBX 7 21 1 -5
BITMAP
C6
C6
C0
C0
C0
C6
C6
C6
C6
C6
C6
C6
C6
C6
C6
C6
06
06
06
1E
1C
ENDCHAR
STARTCHAR 02C6
ENCODING 710
SWIDTH 1125 0
DWIDTH 25 0
BBX 23 16 1 0
BITMAP
E01806
F01806
F01806
D81806
DC1806
CC1806
C61806
C61806
C31806
C39806
C19806
C0DB06
C0DB0E
C07B0C
C03BFC
C038F8
ENDCHAR
STARTCHAR 02C7
ENCODING 711
SWIDTH 855 0
DWIDTH 19 0
BBX 18 21 1 -5
BITMAP
E018C0
F018C0
F01800
D81800
D81800
CC18C0
C618C0
C618C0
C318C0
C398C0
C198C0
C0D8C0
C0D8C0
C078C0
C078C0
C038C0
0000C0
0000C0
0000C0
0003C0
000380
ENDCHAR
STARTCHAR 02C8
ENCODING 712
SWIDTH 720 0
DWIDTH 16 0
BBX 14 21 1 -5
BITMAP
000C
000C
0000
0000
DF00
FF8C
E18C
C18C
C18C
C18C
C18C
C18C
C18C
C18C
C18C
C18C
000C
000C
000C
003C
0038
ENDCHAR
STARTCHAR 02C9
ENCODING 713
SWIDTH 675 0
DWIDTH 15 0
BBX 13 20 1 0
BITMAP
0CC0
0780
0700
0000
0700
0700
0D80
0D80
0D80
18C0
18C0
10C0
3060
3FE0
7FF0
6030
6030
C038
C018
C018
ENDCHAR
STARTCHAR 02CA
ENCODING 714
SWIDTH 540 0
DWIDTH 12 0
BBX 11 16 1 0
BITMAP
1100
1B00
0E00
0000
1F00
7F80
6180
40C0
00C0
3FC0
7EC0
E0C0
C1C0
C3C0
FEE0
3CE0
ENDCHAR
STARTCHAR 02CB
ENCODING 715
SWIDTH 270 0
DWIDTH 6 0
BBX 5 20 1 0
BITMAP
88
D8
70
00
60
60
60
60
60
60
60
60
60
60
60
60
60
60
60
60
ENDCHAR
STARTCHAR 02CC
ENCODING 716
SWIDTH 270 0
DWIDTH 6 0
BBX 6 16 0 0
BITMAP
CC
68
38
00
30
30
30
30
30
30
30
30
30
30
30
30
ENDCHAR
STARTCHAR 02CD
ENCODING 717
SWIDTH 765 0
DWIDTH 17 0
BBX 15 20 1 0
BITMAP
0660
03C0
0180
0000
07E0
1FF8
383C
700C
600E
E006
C006
C006
C006
C006
C006
E00E
700C
3838
1FF0
0FE0
ENDCHAR
STARTCHAR 02CE
ENCODING 718
SWIDTH 540 0
DWIDTH 12 0
BBX 10 16 1 0
BITMAP
1100
1B00
0E00
0000
1F00
7F80
61C0
C0C0
C0C0
C0C0
C0C0
C0C0
C0C0
E1C0
7F80
3E00
ENDCHAR
STARTCHAR 02CF
ENCODING 719
SWIDTH 720 0
DWIDTH 16 0
BBX 12 20 2 0
BITMAP
0880
0D80
0700
0000
C030
C030
C030
C030
C030
C030
C030
C030
C030
C030
C030
C030
E070
70E0
3FE0
1F80
ENDCHAR
STARTCHAR 02D0
ENCODING 720
SWIDTH 540 0
DWIDTH 12 0
BBX 10 16 1 0
BITMAP
1100
1B00
0E00
0000
C0C0
C0C0
C0C0
C0C0
C0C0
C0C0
C0C0
C0C0
C1C0
63C0
7EC0
3CC0
ENDCHAR
STARTCHAR 02D1
ENCODING 721
SWIDTH 720 0
DWIDTH 16 0
BBX 12 22 2 0
BITMAP
1FC0
0000
0D80
0D80
0000
0000
C030
C030
C030
C030
C030
C030
C030
C030
C030
C030
C030
C030
E070
70E0
3FE0
1F80
ENDCHAR
STARTCHAR 02D2
ENCODING 722
SWIDTH 540 0
DWIDTH 12 0
BBX 10 17 1 0
BITMAP
3F80
0000
1B00
1B00
0000
C0C0
C0C0
C0C0
C0C0
C0C0
C0C0
C0C0
C0C0
C1C0
63C0
7EC0
3CC0
ENDCHAR
STARTCHAR 02D3
ENCODING 723
SWIDTH 720 0
DWIDTH 16 0
BBX 12 23 2 0
BITMAP
0180
0300
0600
0000
0D80
0D80
0000
C030
C030
C030
C030
C030
C030
C030
C030
C030
C030
C030
C030
E070
70E0
3FE0
1F80
ENDCHAR
STARTCHAR 02D4
ENCODING 724
SWIDTH 540 0
DWIDTH 12 0
BBX 10 19 1 0
BITMAP
0300
0600
0C00
0000
3300
3300
0000
C0C0
C0C0
C0C0
C0C0
C0C0
C0C0
C0C0
C0C0
C1C0
63C0
7EC0
3CC0
ENDCHAR
STARTCHAR 02D5
ENCODING 725
SWIDTH 720 0
DWIDTH 16 0
BBX 12 23 2 0
BITMAP
1980
0D00
0700
0000
1980
1980
0000
C030
C030
C030
C030
C030
C030
C030
C030
C030
C030
C030
C030
E070
70E0
3FE0
1F80
ENDCHAR
STARTCHAR 02D6
ENCODING 726
SWIDTH 540 0
DWIDTH 12 0
BBX 10 18 1 0
BITMAP
3300
1E00
0E00
3300
3300
0000
C0C0
C0C0
C0C0
C0C0
C0C0
C0C0
C0C0
C0C0
C1C0
63C0
7EC0
3CC0
ENDCHAR
STARTCHAR 02D7
ENCODING 727
SWIDTH 720 0
DWIDTH 16 0
BBX 12 22 2 0
BITMAP
1800
0C00
0600
1980
1980
0000
C030
C030
C030
C030
C030
C030
C030
C030
C030
C030
C030
C030
E070
70E0
3FE0
1F80
ENDCHAR
STARTCHAR 02D8
ENCODING 728
SWIDTH 540 0
DWIDTH 12 0
BBX 10 18 1 0
BITMAP
3000
1800
0C00
3300
3300
0000
C0C0
C0C0
C0C0
C0C0
C0C0
C0C0
C0C0
C0C0
C1C0
63C0
7EC0
3CC0
ENDCHAR
STARTCHAR 02D9
ENCODING 729
SWIDTH 675 0
DWIDTH 15 0
BBX 13 21 1 0
BITMAP
1FC0
0000
0D80
0D80
0000
0700
0700
0D80
0D80
0D80
18C0
18C0
10C0
3060
3FE0
7FF0
6030
6030
C038
C018
C018
ENDCHAR
STARTCHAR 02DA
ENCODING 730
SWIDTH 540 0
DWIDTH 12 0
BBX 11 18 1 0
BITMAP
7F00
0000
3300
3300
0000
0000
1F00
7F80
6180
40C0
00C0
3FC0
7EC0
E0C0
C1C0
C3C0
FEE0
3CE0
ENDCHAR
STARTCHAR 02DB
ENCODING 731
SWIDTH 675 0
DWIDTH 15 0
BBX 13 21 1 0
BITMAP
1FC0
0000
0700
0700
0000
0700
0700
0D80
0D80
0D80
18C0
18C0
10C0
3060
3FE0
7FF0
6030
6030
C038
C018
C018
ENDCHAR
STARTCHAR 02DC
ENCODING 732
SWIDTH 540 0
DWIDTH 12 0
BBX 11 18 1 0
BITMAP
7F00
0000
0C00
0C00
0000
0000
1F00
7F80
6180
40C0
00C0
3FC0
7EC0
E0C0
C1C0
C3C0
FEE0
3CE0
ENDCHAR
STARTCHAR 02DD
ENCODING 733
SWIDTH 990 0
DWIDTH 22 0
BBX 21 18 0 0
BITMAP
003F80
000000
03FFF8
03FFF8
033000
063000
063000
0E3000
0C3000
0C3FF0
1C3FF0
183000
3FF000
3FF000
303000
703000
603FF8
E03FF8
ENDCHAR
STARTCHAR 02DE
ENCODING 734
SWIDTH 900 0
DWIDTH 20 0
BBX 18 14 1 0
BITMAP
07F000
000000
3E1E00
7FFF00
61E380
C0C1C0
0180C0
3FFFC0
7FFFC0
C18000
C1C1C0
C3E180
FE7F00
7C3E00
ENDCHAR
STARTCHAR 02DF
ENCODING 735
SWIDTH 765 0
DWIDTH 17 0
BBX 15 20 1 0
BITMAP
0640
06C0
0380
0000
07E0
1FF8
3838
700C
600C
E000
C000
C000
C0FE
C0FE
E006
600E
700E
383E
1FF6
0FC6
ENDCHAR
STARTCHAR 02E0
ENCODING 736
SWIDTH 540 0
DWIDTH 12 0
BBX 10 21 1 -5
BITMAP
2200
3600
1C00
0000
3CC0
7FC0
E1C0
C0C0
C0C0
C0C0
C0C0
C0C0
C1C0
E1C0
7FC0
3EC0
00C0
00C0
C180
7F80
3E00
ENDCHAR
STARTCHAR 02E1
ENCODING 737
SWIDTH 675 0
DWIDTH 15 0
BBX 12 20 2 0
BITMAP
1980
0B00
0E00
0000
C070
C0E0
C1C0
C380
C700
CE00
DC00
FE00
F600
E700
C380
C180
C1C0
C0E0
C070
C030
ENDCHAR
STARTCHAR 02E2
ENCODING 738
SWIDTH 495 0
DWIDTH 11 0
BBX 10 19 1 0
BITMAP
3300
1E00
0C00
C000
C000
C000
C000
C180
C300
C600
CC00
D800
FC00
EE00
C600
C700
C300
C180
C1C0
ENDCHAR
STARTCHAR 02E3
ENCODING 739
SWIDTH 765 0
DWIDTH 17 0
BBX 15 21 1 -5
BITMAP
07E0
1FF8
383C
700C
600E
E006
C006
C006
C006
C006
C006
E00E
700C
3838
1FF0
0FE0
0300
0600
0600
0780
0780
ENDCHAR
STARTCHAR 02E4
ENCODING 740
SWIDTH 540 0
DWIDTH 12 0
BBX 10 17 1 -5
BITMAP
1F00
7F80
61C0
C0C0
C0C0
C0C0
C0C0
C0C0
C0C0
E1C0
7F80
3E00
0800
1000
3000
3C00
1C00
ENDCHAR
STARTCHAR 02E5
ENCODING 741
SWIDTH 765 0
DWIDTH 17 0
BBX 15 24 1 -5
BITMAP
0FE0
0000
0000
07E0
1FF8
383C
700C
600E
E006
C006
C006
C006
C006
C006
E00E
700C
3838
1FF0
0FE0
0300
0600
0600
0780
0780
ENDCHAR
STARTCHAR 02E6
ENCODING 742
SWIDTH 540 0
DWIDTH 12 0
BBX 10 20 1 -5
BITMAP
7F00
0000
0000
1F00
7F80
61C0
C0C0
C0C0
C0C0
C0C0
C0C0
C0C0
E1C0
7F80
3E00
0800
1000
3000
3C00
1C00
ENDCHAR
STARTCHAR 02E7
ENCODING 743
SWIDTH 225 0
DWIDTH 5 0
BBX 5 21 0 -5
BITMAP
88
D8
70
00
60
60
60
60
60
60
60
60
60
60
60
60
60
60
60
E0
C0
ENDCHAR
STARTCHAR 02E8
ENCODING 744
SWIDTH 1215 0
DWIDTH 27 0
BBX 26 16 1 0
BITMAP
FF83FFC0
FFE3FFC0
C0F00380
C0300300
C0380600
C0180E00
C0181C00
C0183800
C0183000
C0186000
C018E000
C031C000
C0338000
C0E30000
FFE7FFC0
FF87FFC0
ENDCHAR
STARTCHAR 02E9
ENCODING 745
SWIDTH 1125 0
DWIDTH 25 0
BBX 23 16 1 0
BITMAP
FF8000
FFE000
C07000
C03000
C01BFE
C01BFE
C0180E
C0181C
C01838
C01830
C01860
C038C0
C031C0
C07380
FFE3FE
FF83FE
ENDCHAR
STARTCHAR 02EA
ENCODING 746
SWIDTH 990 0
DWIDTH 22 0
BBX 20 16 1 0
BITMAP
00C000
00C000
00C000
00C000
3EDFF0
7FDFF0
E1C070
C0C0E0
C0C0C0
C0C180
C0C300
C0C600
C0CE00
E1DC00
7FDFF0
3CDFF0
ENDCHAR
STARTCHAR 02EB
ENCODING 747
SWIDTH 765 0
DWIDTH 17 0
BBX 15 20 1 0
BITMAP
0180
0180
0300
0000
07E0
1FF8
3838
700C
600C
E000
C000
C000
C0FE
C0FE
E006
600E
700E
383E
1FF6
0FC6
ENDCHAR
STARTCHAR 02EC
ENCODING 748
SWIDTH 720 0
DWIDTH 16 0
BBX 12 19 2 0
BITMAP
0C00
0C00
0600
E030
E030
F030
F030
D830
DC30
CC30
C630
C630
C330
C1B0
C1B0
C0F0
C0F0
C070
C030
ENDCHAR
STARTCHAR 02ED
ENCODING 749
SWIDTH 540 0
DWIDTH 12 0
BBX 10 16 1 0
BITMAP
1800
0C00
0600
0000
CF00
DF80
F1C0
E0C0
C0C0
C0C0
C0C0
C0C0
C0C0
C0C0
C0C0
C0C0
ENDCHAR
STARTCHAR 02EE
ENCODING 750
SWIDTH 675 0
DWIDTH 15 0
BBX 13 25 1 0
BITMAP
01C0
0180
0300
0700
0C80
0880
0C80
0700
0000
0700
0700
0D80
0D80
0D80
18C0
18C0
10C0
3060
3FE0
7FF0
6030
6030
C038
C018
C018
ENDCHAR
STARTCHAR 02EF
ENCODING 751
SWIDTH 540 0
DWIDTH 12 0
BBX 11 20 1 0
BITMAP
0300
0600
0C00
0C00
1200
1200
1200
0C00
1F00
7F80
6180
40C0
00C0
3FC0
7EC0
E0C0
C1C0
C3C0
FEE0
3CE0
ENDCHAR
STARTCHAR 02F0
ENCODING 752
SWIDTH 990 0
DWIDTH 22 0
BBX 21 20 0 0
BITMAP
000600
000C00
000800
000000
03FFF8
03FFF8
033000
063000
063000
0E3000
0C3000
0C3FF0
1C3FF0
183000
3FF000
3FF000
303000
703000
603FF8
E03FF8
ENDCHAR
STARTCHAR 02F1
ENCODING 753
SWIDTH 900 0
DWIDTH 20 0
BBX 18 16 1 0
BITMAP
006000
00C000
018000
000000
3E1E00
7FFF00
61E380
C0C1C0
0180C0
3FFFC0
7FFFC0
C18000
C1C1C0
C3E180
FE7F00
7C3E00
ENDCHAR
STARTCHAR 02F2
ENCODING 754
SWIDTH 765 0
DWIDTH 17 0
BBX 15 20 1 0
BITMAP
01C0
0180
0300
0000
07E2
1FFE
383C
701C
603E
E066
C0C6
C186
C306
C206
C406
E80E
700C
3838
5FF0
8FE0
ENDCHAR
STARTCHAR 02F3
ENCODING 755
SWIDTH 630 0
DWIDTH 14 0
BBX 11 16 1 0
BITMAP
0300
0600
0C00
0000
1F20
3FC0
70C0
60E0
C160
C260
C460
C860
70E0
71C0
7F80
9F00
ENDCHAR
STARTCHAR 02F4
ENCODING 756
SWIDTH 675 0
DWIDTH 15 0
BBX 13 20 1 0
BITMAP
3300
1B00
0980
0000
0700
0700
0D80
0D80
0D80
18C0
18C0
10C0
3060
3FE0
7FF0
6030
6030
C038
C018
C018
ENDCHAR
STARTCHAR 02F5
ENCODING 757
SWIDTH 540 0
DWIDTH 12 0
BBX 11 16 1 0
BITMAP
6E00
3600
3300
0000
1F00
7F80
6180
40C0
00C0
3FC0
7EC0
E0C0
C1C0
C3C0
FEE0
3CE0
ENDCHAR
STARTCHAR 02F6
ENCODING 758
SWIDTH 675 0
DWIDTH 15 0
BBX 13 19 1 0
BITMAP
0F80
1880
1040
0700
0700
0D80
0D80
0D80
18C0
18C0
10C0
3060
3FE0
7FF0
6030
6030
C038
C018
C018
ENDCHAR
STARTCHAR 02F7
ENCODING 759
SWIDTH 540 0
DWIDTH 12 0
BBX 11 16 1 0
BITMAP
1E00
2100
2100
0000
1F00
7F80
6180
40C0
00C0
3FC0
7EC0
E0C0
C1C0
C3C0
FEE0
3CE0
ENDCHAR
STARTCHAR 02F8
ENCODING 760
SWIDTH 675 0
DWIDTH 15 0
BBX 12 20 2 0
BITMAP
3700
1300
1980
0000
FFF0
FFF0
C000
C000
C000
C000
C000
FFE0
FFE0
C000
C000
C000
C000
C000
FFF0
FFF0
ENDCHAR
STARTCHAR 02F9
ENCODING 761
SWIDTH 540 0
DWIDTH 12 0
BBX 10 16 1 0
BITMAP
6600
3600
1300
0000
1F00
7F80
61C0
C0C0
C0C0
FFC0
FFC0
C000
C0C0
61C0
7F80
1F00
ENDCHAR
STARTCHAR 02FA
ENCODING 762
SWIDTH 675 0
DWIDTH 15 0
BBX 12 20 2 0
BITMAP
0F00
1180
3080
0000
FFF0
FFF0
C000
C000
C000
C000
C000
FFE0
FFE0
C000
C000
C000
C000
C000
FFF0
FFF0
ENDCHAR
STARTCHAR 02FB
ENCODING 763
SWIDTH 540 0
DWIDTH 12 0
BBX 10 16 1 0
BITMAP
1E00
3100
2080
0000
1F00
7F80
61C0
C0C0
C0C0
FFC0
FFC0
C000
C0C0
61C0
7F80
1F00
ENDCHAR
STARTCHAR 02FC
ENCODING 764
SWIDTH 270 0
DWIDTH 6 0
BBX 7 20 -1 0
BITMAP
DC
6C
66
00
18
18
18
18
18
18
18
18
18
18
18
18
18
18
18
18
ENDCHAR
STARTCHAR 02FD
ENCODING 765
SWIDTH 225 0
DWIDTH 5 0
BBX 7 16 -2 0
BITMAP
CC
64
26
00
0C
0C
0C
0C
0C
0C
0C
0C
0C
0C
0C
0C
ENDCHAR
STARTCHAR 02FE
ENCODING 766
SWIDTH 270 0
DWIDTH 6 0
BBX 7 20 0 0
BITMAP
78
C4
82
00
30
30
30
30
30
30
30
30
30
30
30
30
30
30
30
30
ENDCHAR
STARTCHAR 02FF
ENCODING 767
SWIDTH 225 0
DWIDTH 5 0
BBX 7 16 -1 0
BITMAP
7C
46
82
00
18
18
18
18
18
18
18
18
18
18
18
18
ENDCHAR
STARTCHAR 0300
ENCODING 768
SWIDTH 765 0
DWIDTH 17 0
BBX 15 21 1 0
BITMAP
1980
0CC0
0440
0000
0000
07E0
1FF8
383C
700C
600E
E006
C006
C006
C006
C006
C006
E00E
700C
3838
1FF0
0FE0
ENDCHAR
STARTCHAR 0301
ENCODING 769
SWIDTH 540 0
DWIDTH 12 0
BBX 10 16 1 0
BITMAP
6600
3600
1300
0000
1F00
7F80
61C0
C0C0
C0C0
C0C0
C0C0
C0C0
C0C0
E1C0
7F80
3E00
ENDCHAR
STARTCHAR 0302
ENCODING 770
SWIDTH 765 0
DWIDTH 17 0
BBX 15 20 1 0
BITMAP
03C0
0460
0820
0000
07E0
1FF8
383C
700C
600E
E006
C006
C006
C006
C006
C006
E00E
700C
3838
1FF0
0FE0
ENDCHAR
STARTCHAR 0303
ENCODING 771
SWIDTH 540 0
DWIDTH 12 0
BBX 10 16 1 0
BITMAP
1E00
2100
2100
0000
1F00
7F80
61C0
C0C0
C0C0
C0C0
C0C0
C0C0
C0C0
E1C0
7F80
3E00
ENDCHAR
STARTCHAR 0304
ENCODING 772
SWIDTH 720 0
DWIDTH 16 0
BBX 13 20 2 0
BITMAP
3700
1300
1980
0000
FFC0
FFF0
C030
C038
C038
C030
C070
FFE0
FFE0
C070
C030
C030
C030
C030
C038
C038
ENDCHAR
STARTCHAR 0305
ENCODING 773
SWIDTH 315 0
DWIDTH 7 0
BBX 7 16 0 0
BITMAP
CC
6C
26
00
66
6E
78
70
60
60
60
60
60
60
60
60
ENDCHAR
STARTCHAR 0306
ENCODING 774
SWIDTH 720 0
DWIDTH 16 0
BBX 13 20 2 0
BITMAP
0F00
1180
2080
0000
FFC0
FFF0
C030
C038
C038
C030
C070
FFE0
FFE0
C070
C030
C030
C030
C030
C038
C038
ENDCHAR
STARTCHAR 0307
ENCODING 775
SWIDTH 315 0
DWIDTH 7 0
BBX 7 16 1 0
BITMAP
78
C4
86
00
CC
DC
F0
E0
C0
C0
C0
C0
C0
C0
C0
C0
ENDCHAR
STARTCHAR 0308
ENCODING 776
SWIDTH 720 0
DWIDTH 16 0
BBX 12 20 2 0
BITMAP
3300
1B00
0980
0000
C030
C030
C030
C030
C030
C030
C030
C030
C030
C030
C030
C030
E070
70E0
3FE0
1F80
ENDCHAR
STARTCHAR 0309
ENCODING 777
SWIDTH 540 0
DWIDTH 12 0
BBX 10 16 1 0
BITMAP
6600
3600
1300
0000
C0C0
C0C0
C0C0
C0C0
C0C0
C0C0
C0C0
C0C0
C1C0
63C0
7EC0
3CC0
ENDCHAR
STARTCHAR 030A
ENCODING 778
SWIDTH 720 0
DWIDTH 16 0
BBX 12 20 2 0
BITMAP
0F00
1080
1080
0000
C030
C030
C030
C030
C030
C030
C030
C030
C030
C030
C030
C030
E070
70E0
3FE0
1F80
ENDCHAR
STARTCHAR 030B
ENCODING 779
SWIDTH 540 0
DWIDTH 12 0
BBX 10 16 1 0
BITMAP
1E00
2100
2100
0000
C0C0
C0C0
C0C0
C0C0
C0C0
C0C0
C0C0
C0C0
C1C0
63C0
7EC0
3CC0
ENDCHAR
STARTCHAR 030C
ENCODING 780
SWIDTH 720 0
DWIDTH 16 0
BBX 12 19 2 0
BITMAP
1980
0D00
0700
C030
C030
C030
C030
C030
C030
C030
FFF0
FFF0
C030
C030
C030
C030
C030
C030
C030
ENDCHAR
STARTCHAR 030D
ENCODING 781
SWIDTH 540 0
DWIDTH 12 0
BBX 10 20 1 0
BITMAP
1100
1B00
0E00
0000
C000
C000
C000
C000
CF00
DF80
F1C0
E0C0
E0C0
C0C0
C0C0
C0C0
C0C0
C0C0
C0C0
C0C0
ENDCHAR
STARTCHAR 030E
ENCODING 782
SWIDTH 675 0
DWIDTH 15 0
BBX 13 20 1 0
BITMAP
0300
0300
0000
0000
0700
0700
0D80
0D80
0D80
18C0
18C0
10C0
3060
3FE0
7FF0
6030
6030
C038
C018
C018
ENDCHAR
STARTCHAR 030F
ENCODING 783
SWIDTH 540 0
DWIDTH 12 0
BBX 11 16 1 0
BITMAP
0C00
0C00
0000
0000
1F00
7F80
6180
40C0
00C0
3FC0
7EC0
E0C0
C1C0
C3C0
FEE0
3CE0
ENDCHAR
STARTCHAR 0310
ENCODING 784
SWIDTH 675 0
DWIDTH 15 0
BBX 12 21 2 -5
BITMAP
FFF0
FFF0
C000
C000
C000
C000
C000
FFE0
FFE0
C000
C000
C000
C000
C000
FFF0
FFF0
0200
0700
0180
0100
0F00
ENDCHAR
STARTCHAR 0311
ENCODING 785
SWIDTH 540 0
DWIDTH 12 0
BBX 10 17 1 -5
BITMAP
1F00
7F80
61C0
C0C0
C0C0
FFC0
FFC0
C000
C0C0
61C0
7F80
1F00
0400
0E00
0300
0300
1E00
ENDCHAR
STARTCHAR 0312
ENCODING 786
SWIDTH 765 0
DWIDTH 17 0
BBX 15 23 1 0
BITMAP
0FE0
0000
0000
06C0
06C0
0000
0000
07E0
1FF8
383C
700C
600E
E006
C006
C006
C006
C006
C006
E00E
700C
3838
1FF0
0FE0
ENDCHAR
STARTCHAR 0313
ENCODING 787
SWIDTH 540 0
DWIDTH 12 0
BBX 10 18 1 0
BITMAP
3F80
0000
3300
3300
0000
0000
1F00
7F80
61C0
C0C0
C0C0
C0C0
C0C0
C0C0
C0C0
E1C0
7F80
3E00
ENDCHAR
STARTCHAR 0314
ENCODING 788
SWIDTH 765 0
DWIDTH 17 0
BBX 15 22 1 0
BITMAP
0FE0
0000
0720
09E0
08C0
0000
07E0
1FF8
383C
700C
600E
E006
C006
C006
C006
C006
C006
E00E
700C
3838
1FF0
0FE0
ENDCHAR
STARTCHAR 0315
ENCODING 789
SWIDTH 540 0
DWIDTH 12 0
BBX 10 18 1 0
BITMAP
3F00
0000
3880
2F80
4300
0000
1F00
7F80
61C0
C0C0
C0C0
C0C0
C0C0
C0C0
C0C0
E1C0
7F80
3E00
ENDCHAR
STARTCHAR 0316
ENCODING 790
SWIDTH 765 0
DWIDTH 17 0
BBX 15 21 1 0
BITMAP
0300
0300
0000
0000
0000
07E0
1FF8
383C
700C
600E
E006
C006
C006
C006
C006
C006
E00E
700C
3838
1FF0
0FE0
ENDCHAR
STARTCHAR 0317
ENCODING 791
SWIDTH 540 0
DWIDTH 12 0
BBX 10 16 1 0
BITMAP
0C00
0C00
0000
0000
1F00
7F80
61C0
C0C0
C0C0
C0C0
C0C0
C0C0
C0C0
E1C0
7F80
3E00
ENDCHAR
STARTCHAR 0318
ENCODING 792
SWIDTH 765 0
DWIDTH 17 0
BBX 15 22 1 0
BITMAP
0FE0
0000
0300
0300
0000
0000
07E0
1FF8
383C
700C
600E
E006
C006
C006
C006
C006
C006
E00E
700C
3838
1FF0
0FE0
ENDCHAR
STARTCHAR 0319
ENCODING 793
SWIDTH 540 0
DWIDTH 12 0
BBX 10 17 1 0
BITMAP
3F80
0C00
0C00
0000
0000
1F00
7F80
61C0
C0C0
C0C0
C0C0
C0C0
C0C0
C0C0
E1C0
7F80
3E00
ENDCHAR
STARTCHAR 031A
ENCODING 794
SWIDTH 675 0
DWIDTH 15 0
BBX 13 18 1 0
BITMAP
1FC0
0000
C018
E038
6030
3070
38E0
18C0
1DC0
0D80
0780
0700
0700
0700
0700
0700
0700
0700
ENDCHAR
STARTCHAR 031B
ENCODING 795
SWIDTH 495 0
DWIDTH 11 0
BBX 11 19 0 -5
BITMAP
3F80
0000
E060
60C0
60C0
70C0
3180
3180
3180
1B00
1B00
1B00
0E00
0E00
0C00
0C00
0C00
7800
7000
ENDCHAR
STARTCHAR 031C
ENCODING 796
SWIDTH 315 0
DWIDTH 7 0
BBX 6 5 1 11
BITMAP
DC
DC
44
4C
98
ENDCHAR
STARTCHAR 031D
ENCODING 797
SWIDTH 270 0
DWIDTH 6 0
BBX 2 16 2 0
BITMAP
C0
C0
C0
C0
C0
C0
C0
C0
C0
C0
C0
C0
C0
C0
C0
C0
ENDCHAR
STARTCHAR 031E
ENCODING 798
SWIDTH 675 0
DWIDTH 15 0
BBX 13 22 1 -6
BITMAP
0700
0700
0D80
0D80
0D80
18C0
18C0
10C0
3060
3FE0
7FF0
6030
6030
C038
C018
C018
0000
0700
0900
0880
0900
0700
ENDCHAR
STARTCHAR 031F
ENCODING 799
SWIDTH 540 0
DWIDTH 12 0
BBX 11 19 1 -7
BITMAP
1F00
7F80
6180
40C0
00C0
3FC0
7EC0
E0C0
C1C0
C3C0
FEE0
3CE0
0000
0000
0C00
1200
1200
1200
0C00
ENDCHAR
STARTCHAR 0320
ENCODING 800
SWIDTH 675 0
DWIDTH 15 0
BBX 12 20 2 0
BITMAP
0C00
0C00
0000
0000
FF80
FFC0
C0E0
C060
C060
C060
C0C0
FF80
FFE0
C060
C030
C030
C030
C060
FFE0
FF80
ENDCHAR
STARTCHAR 0321
ENCODING 801
SWIDTH 540 0
DWIDTH 12 0
BBX 11 19 1 0
BITMAP
0C00
0C00
0000
C000
C000
C000
C000
CF00
DF80
F1C0
E0C0
C0C0
C060
C0C0
C0C0
E0C0
E1C0
DF80
CF00
ENDCHAR
STARTCHAR 0322
ENCODING 802
SWIDTH 675 0
DWIDTH 15 0
BBX 12 19 2 -3
BITMAP
FF80
FFC0
C0E0
C060
C060
C060
C0C0
FF80
FFE0
C060
C030
C030
C030
C060
FFE0
FF80
0000
0C00
0C00
ENDCHAR
STARTCHAR 0323
ENCODING 803
SWIDTH 540 0
DWIDTH 12 0
BBX 11 19 1 -3
BITMAP
C000
C000
C000
C000
CF00
DF80
F1C0
E0C0
C0C0
C060
C0C0
C0C0
E0C0
E1C0
DF80
CF00
0000
0C00
0C00
ENDCHAR
STARTCHAR 0324
ENCODING 804
SWIDTH 675 0
DWIDTH 15 0
BBX 12 18 2 -2
BITMAP
FF80
FFC0
C0E0
C060
C060
C060
C0C0
FF80
FFE0
C060
C030
C030
C030
C060
FFE0
FF80
0000
7F00
ENDCHAR
STARTCHAR 0325
ENCODING 805
SWIDTH 540 0
DWIDTH 12 0
BBX 11 18 1 -2
BITMAP
C000
C000
C000
C000
CF00
DF80
F1C0
E0C0
C0C0
C060
C0C0
C0C0
E0C0
E1C0
DF80
CF00
0000
7F00
ENDCHAR
STARTCHAR 0326
ENCODING 806
SWIDTH 720 0
DWIDTH 16 0
BBX 14 25 1 -5
BITMAP
0380
0300
0600
0000
0FC0
1FF0
3838
701C
600C
E000
C000
C000
C000
C000
C00C
600C
7018
3838
3FF0
0FC0
0200
0780
0180
0180
0700
ENDCHAR
STARTCHAR 0327
ENCODING 807
SWIDTH 495 0
DWIDTH 11 0
BBX 10 21 1 -5
BITMAP
0600
0C00
1800
0000
1E00
7F80
6180
C0C0
C000
C000
C000
C000
C180
E180
7F80
3E00
0800
1C00
0600
0600
3C00
ENDCHAR
STARTCHAR 0328
ENCODING 808
SWIDTH 720 0
DWIDTH 16 0
BBX 13 20 2 0
BITMAP
0C00
0C00
0000
0000
FF80
FFE0
C0E0
C030
C030
C038
C018
C018
C018
C018
C038
C030
C070
C0E0
FFC0
FF80
ENDCHAR
STARTCHAR 0329
ENCODING 809
SWIDTH 540 0
DWIDTH 12 0
BBX 10 19 1 0
BITMAP
0C00
0C00
0000
00C0
00C0
00C0
00C0
3EC0
7FC0
E1C0
C0C0
C0C0
C0C0
C0C0
C0C0
C0C0
E1C0
7FC0
3CC0
ENDCHAR
STARTCHAR 032A
ENCODING 810
SWIDTH 720 0
DWIDTH 16 0
BBX 13 19 2 -3
BITMAP
FF80
FFE0
C0E0
C030
C030
C038
C018
C018
C018
C018
C038
C030
C070
C0E0
FFC0
FF80
0000
0C00
0C00
ENDCHAR
STARTCHAR 032B
ENCODING 811
SWIDTH 540 0
DWIDTH 12 0
BBX 10 19 1 -3
BITMAP
00C0
00C0
00C0
00C0
3EC0
7FC0
E1C0
C0C0
C0C0
C0C0
C0C0
C0C0
C0C0
E1C0
7FC0
3CC0
0000
0C00
0C00
ENDCHAR
STARTCHAR 032C
ENCODING 812
SWIDTH 720 0
DWIDTH 16 0
BBX 13 18 2 -2
BITMAP
FF80
FFE0
C0E0
C030
C030
C038
C018
C018
C018
C018
C038
C030
C070
C0E0
FFC0
FF80
0000
3F80
ENDCHAR
STARTCHAR 032D
ENCODING 813
SWIDTH 540 0
DWIDTH 12 0
BBX 10 19 1 -3
BITMAP
00C0
00C0
00C0
00C0
3EC0
7FC0
E1C0
C0C0
C0C0
C0C0
C0C0
C0C0
C0C0
E1C0
7FC0
3CC0
0000
0000
3F80
ENDCHAR
STARTCHAR 032E
ENCODING 814
SWIDTH 720 0
DWIDTH 16 0
BBX 13 22 2 -6
BITMAP
FF80
FFE0
C0E0
C030
C030
C038
C018
C018
C018
C018
C038
C030
C070
C0E0
FFC0
FF80
0000
0C00
0C00
0400
0400
0800
ENDCHAR
STARTCHAR 032F
ENCODING 815
SWIDTH 540 0
DWIDTH 12 0
BBX 10 23 1 -7
BITMAP
00C0
00C0
00C0
00C0
3EC0
7FC0
E1C0
C0C0
C0C0
C0C0
C0C0
C0C0
C0C0
E1C0
7FC0
3CC0
0000
0000
0C00
0C00
0400
0400
0800
ENDCHAR
STARTCHAR 0330
ENCODING 816
SWIDTH 720 0
DWIDTH 16 0
BBX 13 20 2 -4
BITMAP
FF80
FFE0
C0E0
C030
C030
C038
C018
C018
C018
C018
C038
C030
C070
C0E0
FFC0
FF80
0000
0E00
1B00
1100
ENDCHAR
STARTCHAR 0331
ENCODING 817
SWIDTH 540 0
DWIDTH 12 0
BBX 10 21 1 -5
BITMAP
00C0
00C0
00C0
00C0
3EC0
7FC0
E1C0
C0C0
C0C0
C0C0
C0C0
C0C0
C0C0
E1C0
7FC0
3CC0
0000
0000
1C00
1600
3300
ENDCHAR
STARTCHAR 0332
ENCODING 818
SWIDTH 675 0
DWIDTH 15 0
BBX 12 22 2 0
BITMAP
0C00
0600
0300
0000
3F80
0000
FFF0
FFF0
C000
C000
C000
C000
C000
FFE0
FFE0
C000
C000
C000
C000
C000
FFF0
FFF0
ENDCHAR
STARTCHAR 0333
ENCODING 819
SWIDTH 540 0
DWIDTH 12 0
BBX 10 19 1 0
BITMAP
1800
0C00
0600
0000
0000
3F80
0000
1F00
7F80
61C0
C0C0
C0C0
FFC0
FFC0
C000
C0C0
61C0
7F80
1F00
ENDCHAR
STARTCHAR 0334
ENCODING 820
SWIDTH 675 0
DWIDTH 15 0
BBX 12 22 2 0
BITMAP
0600
0600
0C00
0000
3F80
0000
FFF0
FFF0
C000
C000
C000
C000
C000
FFE0
FFE0
C000
C000
C000
C000
C000
FFF0
FFF0
ENDCHAR
STARTCHAR 0335
ENCODING 821
SWIDTH 540 0
DWIDTH 12 0
BBX 10 18 1 0
BITMAP
0600
0C00
1800
0000
3F80
0000
1F00
7F80
61C0
C0C0
C0C0
FFC0
FFC0
C000
C0C0
61C0
7F80
1F00
ENDCHAR
STARTCHAR 0336
ENCODING 822
SWIDTH 675 0
DWIDTH 15 0
BBX 12 20 2 -4
BITMAP
FFF0
FFF0
C000
C000
C000
C000
C000
FFE0
FFE0
C000
C000
C000
C000
C000
FFF0
FFF0
0000
0E00
1B00
1980
ENDCHAR
STARTCHAR 0337
ENCODING 823
SWIDTH 540 0
DWIDTH 12 0
BBX 10 17 1 -5
BITMAP
1F00
7F80
61C0
C0C0
C0C0
FFC0
FFC0
C000
C0C0
61C0
7F80
1F00
0000
0000
0C00
1E00
3300
ENDCHAR
STARTCHAR 0338
ENCODING 824
SWIDTH 675 0
DWIDTH 15 0
BBX 12 20 2 -4
BITMAP
FFF0
FFF0
C000
C000
C000
C000
C000
FFE0
FFE0
C000
C000
C000
C000
C000
FFF0
FFF0
0000
1C40
17C0
2180
ENDCHAR
STARTCHAR 0339
ENCODING 825
SWIDTH 540 0
DWIDTH 12 0
BBX 10 16 1 -4
BITMAP
1F00
7F80
61C0
C0C0
C0C0
FFC0
FFC0
C000
C0C0
61C0
7F80
1F00
0000
1C80
2780
2300
ENDCHAR
STARTCHAR 033A
ENCODING 826
SWIDTH 675 0
DWIDTH 15 0
BBX 12 25 2 -5
BITMAP
1080
1080
0F00
0000
FFF0
FFF0
C000
C000
C000
C000
C000
FFE0
FFE0
C000
C000
C000
C000
C000
FFF0
FFF0
0200
0700
0180
0100
0F00
ENDCHAR
STARTCHAR 033B
ENCODING 827
SWIDTH 540 0
DWIDTH 12 0
BBX 10 21 1 -5
BITMAP
2180
3100
1E00
0000
1F00
7F80
61C0
C0C0
C0C0
FFC0
FFC0
C000
C0C0
61C0
7F80
1F00
0400
0E00
0300
0300
1E00
ENDCHAR
STARTCHAR 033C
ENCODING 828
SWIDTH 630 0
DWIDTH 14 0
BBX 11 20 2 0
BITMAP
0C00
0C00
0000
0000
FFE0
FFE0
C000
C000
C000
C000
C000
FFC0
FFC0
C000
C000
C000
C000
C000
C000
C000
ENDCHAR
STARTCHAR 033D
ENCODING 829
SWIDTH 270 0
DWIDTH 6 0
BBX 6 20 0 0
BITMAP
30
30
00
00
1C
3C
30
30
FC
FC
30
30
30
30
30
30
30
30
30
30
ENDCHAR
STARTCHAR 033E
ENCODING 830
SWIDTH 765 0
DWIDTH 17 0
BBX 15 19 1 0
BITMAP
0FE0
0000
0000
07E0
1FF8
3838
700C
600C
E000
C000
C000
C0FE
C0FE
E006
600E
700E
383E
1FF6
0FC6
ENDCHAR
STARTCHAR 033F
ENCODING 831
SWIDTH 540 0
DWIDTH 12 0
BBX 10 20 1 -5
BITMAP
3F00
0000
0000
3CC0
7FC0
E1C0
C0C0
C0C0
C0C0
C0C0
C0C0
C1C0
E1C0
7FC0
3EC0
00C0
00C0
C180
7F80
3E00
ENDCHAR
STARTCHAR 0340
ENCODING 832
SWIDTH 720 0
DWIDTH 16 0
BBX 12 19 2 0
BITMAP
0600
0600
0000
C030
C030
C030
C030
C030
C030
C030
FFF0
FFF0
C030
C030
C030
C030
C030
C030
C030
ENDCHAR
STARTCHAR 0341
ENCODING 833
SWIDTH 540 0
DWIDTH 12 0
BBX 10 19 1 0
BITMAP
0C00
0C00
0000
C000
C000
C000
C000
CF00
DF80
F1C0
E0C0
E0C0
C0C0
C0C0
C0C0
C0C0
C0C0
C0C0
C0C0
ENDCHAR
STARTCHAR 0342
ENCODING 834
SWIDTH 720 0
DWIDTH 16 0
BBX 12 19 2 -3
BITMAP
C030
C030
C030
C030
C030
C030
C030
FFF0
FFF0
C030
C030
C030
C030
C030
C030
C030
0000
0600
0600
ENDCHAR
STARTCHAR 0343
ENCODING 835
SWIDTH 540 0
DWIDTH 12 0
BBX 10 19 1 -3
BITMAP
C000
C000
C000
C000
CF00
DF80
F1C0
E0C0
E0C0
C0C0
C0C0
C0C0
C0C0
C0C0
C0C0
C0C0
0000
0C00
0C00
ENDCHAR
STARTCHAR 0344
ENCODING 836
SWIDTH 720 0
DWIDTH 16 0
BBX 12 20 2 0
BITMAP
1980
1980
0000
0000
C030
C030
C030
C030
C030
C030
C030
FFF0
FFF0
C030
C030
C030
C030
C030
C030
C030
ENDCHAR
STARTCHAR 0345
ENCODING 837
SWIDTH 540 0
DWIDTH 12 0
BBX 10 19 1 0
BITMAP
1B00
1B00
0000
C000
C000
C000
C000
CF00
DF80
F1C0
E0C0
E0C0
C0C0
C0C0
C0C0
C0C0
C0C0
C0C0
C0C0
ENDCHAR
STARTCHAR 0346
ENCODING 838
SWIDTH 720 0
DWIDTH 16 0
BBX 13 21 1 -5
BITMAP
6018
6018
6018
6018
6018
6018
6018
7FF8
7FF8
6018
6018
6018
6018
6018
6018
6018
4000
7000
1000
1000
F000
ENDCHAR
STARTCHAR 0347
ENCODING 839
SWIDTH 540 0
DWIDTH 12 0
BBX 11 21 0 -5
BITMAP
6000
6000
6000
6000
6780
6FC0
78E0
7060
7060
6060
6060
6060
6060
6060
6060
6060
2000
7800
1800
1800
F000
ENDCHAR
STARTCHAR 0348
ENCODING 840
SWIDTH 720 0
DWIDTH 16 0
BBX 12 20 2 -4
BITMAP
C030
C030
C030
C030
C030
C030
C030
FFF0
FFF0
C030
C030
C030
C030
C030
C030
C030
0000
10C0
1880
0F00
ENDCHAR
STARTCHAR 0349
ENCODING 841
SWIDTH 540 0
DWIDTH 12 0
BBX 10 20 1 -4
BITMAP
C000
C000
C000
C000
CF00
DF80
F1C0
E0C0
E0C0
C0C0
C0C0
C0C0
C0C0
C0C0
C0C0
C0C0
0000
2080
3100
1E00
ENDCHAR
STARTCHAR 034A
ENCODING 842
SWIDTH 270 0
DWIDTH 6 0
BBX 7 20 0 -4
BITMAP
30
30
30
30
30
30
30
30
30
30
30
30
30
30
30
30
00
72
9E
8C
ENDCHAR
STARTCHAR 034B
ENCODING 843
SWIDTH 225 0
DWIDTH 5 0
BBX 7 20 -1 -4
BITMAP
30
30
00
00
30
30
30
30
30
30
30
30
30
30
30
30
00
72
9E
8C
ENDCHAR
STARTCHAR 034C
ENCODING 844
SWIDTH 270 0
DWIDTH 6 0
BBX 6 23 0 0
BITMAP
1C
18
30
00
CC
CC
00
30
30
30
30
30
30
30
30
30
30
30
30
30
30
30
30
ENDCHAR
STARTCHAR 034D
ENCODING 845
SWIDTH 270 0
DWIDTH 6 0
BBX 6 19 0 0
BITMAP
1C
18
30
00
CC
CC
00
30
30
30
30
30
30
30
30
30
30
30
30
ENDCHAR
STARTCHAR 034E
ENCODING 846
SWIDTH 675 0
DWIDTH 15 0
BBX 12 19 2 0
BITMAP
0600
0C00
0800
C070
C0E0
C1C0
C380
C700
CE00
DC00
FE00
F600
E700
C380
C180
C1C0
C0E0
C070
C030
ENDCHAR
STARTCHAR 034F
ENCODING 847
SWIDTH 495 0
DWIDTH 11 0
BBX 10 19 1 0
BITMAP
0600
0C00
0800
C000
C000
C000
C000
C180
C300
C600
CC00
D800
FC00
EE00
C600
C700
C300
C180
C1C0
ENDCHAR
STARTCHAR 0350
ENCODING 848
SWIDTH 675 0
DWIDTH 15 0
BBX 12 19 2 -3
BITMAP
C070
C0E0
C1C0
C380
C700
CE00
DC00
FE00
F600
E700
C380
C180
C1C0
C0E0
C070
C030
0000
0C00
0C00
ENDCHAR
STARTCHAR 0351
ENCODING 849
SWIDTH 495 0
DWIDTH 11 0
BBX 10 19 1 -3
BITMAP
C000
C000
C000
C000
C180
C300
C600
CC00
D800
FC00
EE00
C600
C700
C300
C180
C1C0
0000
1800
1800
ENDCHAR
STARTCHAR 0352
ENCODING 850
SWIDTH 675 0
DWIDTH 15 0
BBX 12 18 2 -2
BITMAP
C070
C0E0
C1C0
C380
C700
CE00
DC00
FE00
F600
E700
C380
C180
C1C0
C0E0
C070
C030
0000
3F80
ENDCHAR
STARTCHAR 0353
ENCODING 851
SWIDTH 495 0
DWIDTH 11 0
BBX 10 18 1 -2
BITMAP
C000
C000
C000
C000
C180
C300
C600
CC00
D800
FC00
EE00
C600
C700
C300
C180
C1C0
0000
3F80
ENDCHAR
STARTCHAR 0354
ENCODING 852
SWIDTH 540 0
DWIDTH 12 0
BBX 10 19 2 -3
BITMAP
C000
C000
C000
C000
C000
C000
C000
C000
C000
C000
C000
C000
C000
C000
FFC0
FFC0
0000
0C00
0C00
ENDCHAR
STARTCHAR 0355
ENCODING 853
SWIDTH 225 0
DWIDTH 5 0
BBX 3 19 1 -3
BITMAP
C0
C0
C0
C0
C0
C0
C0
C0
C0
C0
C0
C0
C0
C0
C0
C0
00
60
60
ENDCHAR
STARTCHAR 0356
ENCODING 854
SWIDTH 540 0
DWIDTH 12 0
BBX 10 21 2 -3
BITMAP
3F00
0000
C000
C000
C000
C000
C000
C000
C000
C000
C000
C000
C000
C000
C000
C000
FFC0
FFC0
0000
0C00
0C00
ENDCHAR
STARTCHAR 0357
ENCODING 855
SWIDTH 225 0
DWIDTH 5 0
BBX 7 21 -1 -3
BITMAP
FE
00
30
30
30
30
30
30
30
30
30
30
30
30
30
30
30
30
00
38
38
ENDCHAR
STARTCHAR 0358
ENCODING 856
SWIDTH 540 0
DWIDTH 12 0
BBX 10 18 2 -2
BITMAP
C000
C000
C000
C000
C000
C000
C000
C000
C000
C000
C000
C000
C000
C000
FFC0
FFC0
0000
3F00
ENDCHAR
STARTCHAR 0359
ENCODING 857
SWIDTH 225 0
DWIDTH 5 0
BBX 7 18 -1 -2
BITMAP
30
30
30
30
30
30
30
30
30
30
30
30
30
30
30
30
00
FE
ENDCHAR
STARTCHAR 035A
ENCODING 858
SWIDTH 540 0
DWIDTH 12 0
BBX 10 20 2 -4
BITMAP
C000
C000
C000
C000
C000
C000
C000
C000
C000
C000
C000
C000
C000
C000
FFC0
FFC0
0000
1C00
3400
6600
ENDCHAR
STARTCHAR 035B
ENCODING 859
SWIDTH 225 0
DWIDTH 5 0
BBX 5 20 0 -4
BITMAP
60
60
60
60
60
60
60
60
60
60
60
60
60
60
60
60
00
70
D8
88
ENDCHAR
STARTCHAR 035C
ENCODING 860
SWIDTH 855 0
DWIDTH 19 0
BBX 15 20 2 0
BITMAP
0180
0300
0200
0000
E00E
E01E
F01E
F01E
F036
D836
D836
D866
CC66
CC66
CCC6
C6C6
C6C6
C786
C386
C386
ENDCHAR
STARTCHAR 035D
ENCODING 861
SWIDTH 855 0
DWIDTH 19 0
BBX 16 16 1 0
BITMAP
00C0
0180
0100
0000
CF3E
DFFF
F1C3
E1C3
E183
C183
C183
C183
C183
C183
C183
C183
ENDCHAR
STARTCHAR 035E
ENCODING 862
SWIDTH 855 0
DWIDTH 19 0
BBX 15 19 2 0
BITMAP
0180
0180
0000
E00E
E01E
F01E
F01E
F036
D836
D836
D866
CC66
CC66
CCC6
C6C6
C6C6
C786
C386
C386
ENDCHAR
STARTCHAR 035F
ENCODING 863
SWIDTH 855 0
DWIDTH 19 0
BBX 16 16 1 0
BITMAP
01C0
01C0
0000
0000
CF3E
DFFF
F1C3
E1C3
E183
C183
C183
C183
C183
C183
C183
C183
ENDCHAR
STARTCHAR 0360
ENCODING 864
SWIDTH 855 0
DWIDTH 19 0
BBX 15 19 2 -3
BITMAP
E00E
E01E
F01E
F01E
F036
D836
D836
D866
CC66
CC66
CCC6
C6C6
C6C6
C786
C386
C386
0000
0300
0300
ENDCHAR
STARTCHAR 0361
ENCODING 865
SWIDTH 855 0
DWIDTH 19 0
BBX 16 15 1 -3
BITMAP
CF3E
DFFF
F1C3
E1C3
E183
C183
C183
C183
C183
C183
C183
C183
0000
0180
0180
ENDCHAR
STARTCHAR 0362
ENCODING 866
SWIDTH 720 0
DWIDTH 16 0
BBX 12 19 2 0
BITMAP
0600
0600
0000
E030
E030
F030
F030
D830
DC30
CC30
C630
C630
C330
C1B0
C1B0
C0F0
C0F0
C070
C030
ENDCHAR
STARTCHAR 0363
ENCODING 867
SWIDTH 540 0
DWIDTH 12 0
BBX 10 16 1 0
BITMAP
0E00
0E00
0000
0000
CF00
DF80
F1C0
E0C0
C0C0
C0C0
C0C0
C0C0
C0C0
C0C0
C0C0
C0C0
ENDCHAR
STARTCHAR 0364
ENCODING 868
SWIDTH 720 0
DWIDTH 16 0
BBX 12 19 2 -3
BITMAP
E030
E030
F030
F030
D830
DC30
CC30
C630
C630
C330
C1B0
C1B0
C0F0
C0F0
C070
C030
0000
0600
0600
ENDCHAR
STARTCHAR 0365
ENCODING 869
SWIDTH 540 0
DWIDTH 12 0
BBX 10 15 1 -3
BITMAP
CF00
DF80
F1C0
E0C0
C0C0
C0C0
C0C0
C0C0
C0C0
C0C0
C0C0
C0C0
0000
0C00
0C00
ENDCHAR
STARTCHAR 0366
ENCODING 870
SWIDTH 720 0
DWIDTH 16 0
BBX 12 18 2 -2
BITMAP
E030
E030
F030
F030
D830
DC30
CC30
C630
C630
C330
C1B0
C1B0
C0F0
C0F0
C070
C030
0000
1FC0
ENDCHAR
STARTCHAR 0367
ENCODING 871
SWIDTH 540 0
DWIDTH 12 0
BBX 10 14 1 -2
BITMAP
CF00
DF80
F1C0
E0C0
C0C0
C0C0
C0C0
C0C0
C0C0
C0C0
C0C0
C0C0
0000
3F80
ENDCHAR
STARTCHAR 0368
ENCODING 872
SWIDTH 720 0
DWIDTH 16 0
BBX 12 20 2 -4
BITMAP
E030
E030
F030
F030
D830
DC30
CC30
C630
C630
C330
C1B0
C1B0
C0F0
C0F0
C070
C030
0000
0E00
0B00
1980
ENDCHAR
STARTCHAR 0369
ENCODING 873
SWIDTH 540 0
DWIDTH 12 0
BBX 10 16 1 -4
BITMAP
CF00
DF80
F1C0
E0C0
C0C0
C0C0
C0C0
C0C0
C0C0
C0C0
C0C0
C0C0
0000
1C00
1E00
3300
ENDCHAR
STARTCHAR 036A
ENCODING 874
SWIDTH 765 0
DWIDTH 17 0
BBX 15 24 1 0
BITMAP
0180
0300
0200
0000
0720
09E0
08C0
0000
07E0
1FF8
383C
700C
600E
E006
C006
C006
C006
C006
C006
E00E
700C
3838
1FF0
0FE0
ENDCHAR
STARTCHAR 036B
ENCODING 875
SWIDTH 540 0
DWIDTH 12 0
BBX 10 19 1 0
BITMAP
0600
0C00
1800
0000
3880
2F00
4700
1F00
7F80
61C0
C0C0
C0C0
C0C0
C0C0
C0C0
C0C0
E1C0
7F80
3E00
ENDCHAR
STARTCHAR 036C
ENCODING 876
SWIDTH 765 0
DWIDTH 17 0
BBX 15 23 1 0
BITMAP
0EC0
0EC0
0000
0F20
09E0
08C0
0000
07E0
1FF8
383C
700C
600E
E006
C006
C006
C006
C006
C006
E00E
700C
3838
1FF0
0FE0
ENDCHAR
STARTCHAR 036D
ENCODING 877
SWIDTH 540 0
DWIDTH 12 0
BBX 10 19 1 0
BITMAP
3300
3300
0000
0000
3880
2F80
6300
1F00
7F80
61C0
C0C0
C0C0
C0C0
C0C0
C0C0
C0C0
E1C0
7F80
3E00
ENDCHAR
STARTCHAR 036E
ENCODING 878
SWIDTH 765 0
DWIDTH 17 0
BBX 15 22 1 0
BITMAP
0300
0180
0080
0000
0FE0
0000
07E0
1FF8
383C
700C
600E
E006
C006
C006
C006
C006
C006
E00E
700C
3838
1FF0
0FE0
ENDCHAR
STARTCHAR 036F
ENCODING 879
SWIDTH 540 0
DWIDTH 12 0
BBX 10 18 1 0
BITMAP
1800
0C00
0600
0000
7F00
0000
1F00
7F80
61C0
C0C0
C0C0
C0C0
C0C0
C0C0
C0C0
E1C0
7F80
3E00
ENDCHAR
STARTCHAR 0370
ENCODING 880
SWIDTH 765 0
DWIDTH 17 0
BBX 15 22 1 0
BITMAP
0180
0300
0200
0000
0FE0
0000
07E0
1FF8
383C
700C
600E
E006
C006
C006
C006
C006
C006
E00E
700C
3838
1FF0
0FE0
ENDCHAR
STARTCHAR 0371
ENCODING 881
SWIDTH 540 0
DWIDTH 12 0
BBX 10 18 1 0
BITMAP
0600
0C00
1800
0000
7F00
0000
1F00
7F80
61C0
C0C0
C0C0
C0C0
C0C0
C0C0
C0C0
E1C0
7F80
3E00
ENDCHAR
STARTCHAR 0372
ENCODING 882
SWIDTH 675 0
DWIDTH 15 0
BBX 12 20 2 0
BITMAP
0600
0C00
0800
0000
FFC0
FFE0
C060
C070
C030
C070
C060
FFE0
FFC0
C000
C000
C000
C000
C000
C000
C000
ENDCHAR
STARTCHAR 0373
ENCODING 883
SWIDTH 540 0
DWIDTH 12 0
BBX 11 21 1 -5
BITMAP
0600
0C00
0800
0000
CF00
DF80
F1C0
E0C0
C0C0
C060
C0C0
C0C0
E0C0
E1C0
DF80
CF00
C000
C000
C000
C000
C000
ENDCHAR
STARTCHAR 0374
ENCODING 884
SWIDTH 675 0
DWIDTH 15 0
BBX 12 20 2 0
BITMAP
0C00
0C00
0000
0000
FFC0
FFE0
C060
C070
C030
C070
C060
FFE0
FFC0
C000
C000
C000
C000
C000
C000
C000
ENDCHAR
STARTCHAR 0375
ENCODING 885
SWIDTH 540 0
DWIDTH 12 0
BBX 11 21 1 -5
BITMAP
0600
0600
0000
0000
CF00
DF80
F1C0
E0C0
C0C0
C060
C0C0
C0C0
E0C0
E1C0
DF80
CF00
C000
C000
C000
C000
C000
ENDCHAR
STARTCHAR 0376
ENCODING 886
SWIDTH 720 0
DWIDTH 16 0
BBX 13 20 2 0
BITMAP
0600
0600
0000
0000
FFC0
FFF0
C030
C038
C038
C030
C070
FFE0
FFE0
C070
C030
C030
C030
C030
C038
C038
ENDCHAR
STARTCHAR 0377
ENCODING 887
SWIDTH 315 0
DWIDTH 7 0
BBX 6 16 1 0
BITMAP
E0
E0
00
00
CC
DC
F0
E0
C0
C0
C0
C0
C0
C0
C0
C0
ENDCHAR
STARTCHAR 0378
ENCODING 888
SWIDTH 720 0
DWIDTH 16 0
BBX 13 19 2 -3
BITMAP
FFC0
FFF0
C030
C038
C038
C030
C070
FFE0
FFE0
C070
C030
C030
C030
C030
C038
C038
0000
0600
0600
ENDCHAR
STARTCHAR 0379
ENCODING 889
SWIDTH 315 0
DWIDTH 7 0
BBX 6 15 1 -3
BITMAP
CC
DC
F0
E0
C0
C0
C0
C0
C0
C0
C0
C0
00
C0
C0
ENDCHAR
STARTCHAR 037A
ENCODING 890
SWIDTH 720 0
DWIDTH 16 0
BBX 13 21 2 -3
BITMAP
3F80
0000
FFC0
FFF0
C030
C038
C038
C030
C070
FFE0
FFE0
C070
C030
C030
C030
C030
C038
C038
0000
0600
0600
ENDCHAR
STARTCHAR 037B
ENCODING 891
SWIDTH 315 0
DWIDTH 7 0
BBX 7 17 1 -3
BITMAP
FE
00
CC
DC
F0
E0
C0
C0
C0
C0
C0
C0
C0
C0
00
C0
C0
ENDCHAR
STARTCHAR 037C
ENCODING 892
SWIDTH 720 0
DWIDTH 16 0
BBX 13 18 2 -2
BITMAP
FFC0
FFF0
C030
C038
C038
C030
C070
FFE0
FFE0
C070
C030
C030
C030
C030
C038
C038
0000
1FC0
ENDCHAR
STARTCHAR 037D
ENCODING 893
SWIDTH 315 0
DWIDTH 7 0
BBX 7 14 0 -2
BITMAP
66
6E
78
70
60
60
60
60
60
60
60
60
00
FE
ENDCHAR
STARTCHAR 037E
ENCODING 894
SWIDTH 675 0
DWIDTH 15 0
BBX 13 20 1 0
BITMAP
0700
0700
0000
0000
1F80
3FE0
7070
6030
6030
6000
7800
3FC0
0FF0
0070
0038
C018
E038
7070
3FE0
1FC0
ENDCHAR
STARTCHAR 037F
ENCODING 895
SWIDTH 495 0
DWIDTH 11 0
BBX 9 16 1 0
BITMAP
1800
1800
0000
0000
3E00
7F00
C380
C180
E000
7E00
1F80
0180
C180
C180
7F80
3E00
ENDCHAR
STARTCHAR 0380
ENCODING 896
SWIDTH 675 0
DWIDTH 15 0
BBX 13 19 1 -3
BITMAP
1F80
3FE0
7070
6030
6030
6000
7800
3FC0
0FF0
0070
0038
C018
E038
7070
3FE0
1FC0
0000
0600
0600
ENDCHAR
STARTCHAR 0381
ENCODING 897
SWIDTH 495 0
DWIDTH 11 0
BBX 9 15 1 -3
BITMAP
3E00
7F00
C380
C180
E000
7E00
1F80
0180
C180
C180
7F80
3E00
0000
0C00
0C00
ENDCHAR
STARTCHAR 0382
ENCODING 898
SWIDTH 675 0
DWIDTH 15 0
BBX 13 24 1 0
BITMAP
0300
0300
0000
0000
0300
0600
0400
0000
1F80
3FE0
7070
6030
6030
6000
7800
3FC0
0FF0
0070
0038
C018
E038
7070
3FE0
1FC0
ENDCHAR
STARTCHAR 0383
ENCODING 899
SWIDTH 495 0
DWIDTH 11 0
BBX 9 19 1 0
BITMAP
0600
0600
0000
0000
0600
0C00
1800
3E00
7F00
C380
C180
E000
7E00
1F80
0180
C180
C180
7F80
3E00
ENDCHAR
STARTCHAR 0384
ENCODING 900
SWIDTH 675 0
DWIDTH 15 0
BBX 13 24 1 0
BITMAP
0300
0300
0000
0000
0880
0D80
0700
0000
1F80
3FE0
7070
6030
6030
6000
7800
3FC0
0FF0
0070
0038
C018
E038
7070
3FE0
1FC0
ENDCHAR
STARTCHAR 0385
ENCODING 901
SWIDTH 495 0
DWIDTH 11 0
BBX 9 19 1 0
BITMAP
0C00
0C00
0000
3300
1600
1C00
0000
3E00
7F00
C380
C180
E000
7E00
1F80
0180
C180
C180
7F80
3E00
ENDCHAR
STARTCHAR 0386
ENCODING 902
SWIDTH 675 0
DWIDTH 15 0
BBX 13 23 1 -3
BITMAP
0300
0300
0000
0000
1F80
3FE0
7070
6030
6030
6000
7800
3FC0
0FF0
0070
0038
C018
E038
7070
3FE0
1FC0
0000
0300
0300
ENDCHAR
STARTCHAR 0387
ENCODING 903
SWIDTH 495 0
DWIDTH 11 0
BBX 9 19 1 -3
BITMAP
0C00
0C00
0000
0000
3E00
7F00
C380
C180
E000
7E00
1F80
0180
C180
C180
7F80
3E00
0000
0C00
0C00
ENDCHAR
STARTCHAR 0388
ENCODING 904
SWIDTH 630 0
DWIDTH 14 0
BBX 13 20 0 0
BITMAP
0300
0300
0000
0000
FFF8
FFF8
0300
0300
0300
0300
0300
0300
0300
0300
0300
0300
0300
0300
0300
0300
ENDCHAR
STARTCHAR 0389
ENCODING 905
SWIDTH 270 0
DWIDTH 6 0
BBX 6 19 0 0
BITMAP
30
30
00
00
30
30
30
FC
FC
30
30
30
30
30
30
30
30
3C
3C
ENDCHAR
STARTCHAR 038A
ENCODING 906
SWIDTH 630 0
DWIDTH 14 0
BBX 13 19 0 -3
BITMAP
FFF8
FFF8
0300
0300
0300
0300
0300
0300
0300
0300
0300
0300
0300
0300
0300
0300
0000
0300
0300
ENDCHAR
STARTCHAR 038B
ENCODING 907
SWIDTH 270 0
DWIDTH 6 0
BBX 6 18 0 -3
BITMAP
30
30
30
FC
FC
30
30
30
30
30
30
30
30
3C
3C
00
30
30
ENDCHAR
STARTCHAR 038C
ENCODING 908
SWIDTH 630 0
DWIDTH 14 0
BBX 13 18 0 -2
BITMAP
FFF8
FFF8
0300
0300
0300
0300
0300
0300
0300
0300
0300
0300
0300
0300
0300
0300
0000
0FC0
ENDCHAR
STARTCHAR 038D
ENCODING 909
SWIDTH 270 0
DWIDTH 6 0
BBX 7 17 0 -2
BITMAP
30
30
30
FC
FC
30
30
30
30
30
30
30
30
3C
3C
00
FE
ENDCHAR
STARTCHAR 038E
ENCODING 910
SWIDTH 630 0
DWIDTH 14 0
BBX 13 20 0 -4
BITMAP
FFF8
FFF8
0300
0300
0300
0300
0300
0300
0300
0300
0300
0300
0300
0300
0300
0300
0000
0700
0580
0CC0
ENDCHAR
STARTCHAR 038F
ENCODING 911
SWIDTH 270 0
DWIDTH 6 0
BBX 6 20 0 -5
BITMAP
30
30
30
FC
FC
30
30
30
30
30
30
30
30
3C
3C
00
00
30
78
CC
ENDCHAR
STARTCHAR 0390
ENCODING 912
SWIDTH 720 0
DWIDTH 16 0
BBX 12 19 2 -3
BITMAP
C030
C030
C030
C030
C030
C030
C030
C030
C030
C030
C030
C030
E070
70E0
3FE0
1F80
0000
0D80
0D80
ENDCHAR
STARTCHAR 0391
ENCODING 913
SWIDTH 540 0
DWIDTH 12 0
BBX 10 15 1 -3
BITMAP
C0C0
C0C0
C0C0
C0C0
C0C0
C0C0
C0C0
C0C0
C1C0
63C0
7EC0
3CC0
0000
1B00
1B00
ENDCHAR
STARTCHAR 0392
ENCODING 914
SWIDTH 720 0
DWIDTH 16 0
BBX 12 20 2 -4
BITMAP
C030
C030
C030
C030
C030
C030
C030
C030
C030
C030
C030
C030
E070
70E0
3FE0
1F80
0000
0E40
13C0
1180
ENDCHAR
STARTCHAR 0393
ENCODING 915
SWIDTH 540 0
DWIDTH 12 0
BBX 10 16 1 -4
BITMAP
C0C0
C0C0
C0C0
C0C0
C0C0
C0C0
C0C0
C0C0
C1C0
63C0
7EC0
3CC0
0000
1C80
2780
2300
ENDCHAR
STARTCHAR 0394
ENCODING 916
SWIDTH 720 0
DWIDTH 16 0
BBX 12 21 2 -5
BITMAP
C030
C030
C030
C030
C030
C030
C030
C030
C030
C030
C030
C030
E070
70E0
3FE0
1F80
0000
0000
0E00
0B00
1980
ENDCHAR
STARTCHAR 0395
ENCODING 917
SWIDTH 540 0
DWIDTH 12 0
BBX 10 17 1 -5
BITMAP
C0C0
C0C0
C0C0
C0C0
C0C0
C0C0
C0C0
C0C0
C1C0
63C0
7EC0
3CC0
0000
0000
1C00
1600
3300
ENDCHAR
STARTCHAR 0396
ENCODING 918
SWIDTH 720 0
DWIDTH 16 0
BBX 12 23 2 0
BITMAP
0300
0600
0C00
1C40
17C0
2180
0000
C030
C030
C030
C030
C030
C030
C030
C030
C030
C030
C030
C030
E070
70E0
3FE0
1F80
ENDCHAR
STARTCHAR 0397
ENCODING 919
SWIDTH 540 0
DWIDTH 12 0
BBX 10 19 1 0
BITMAP
0600
0C00
0800
0000
3880
2F80
6300
C0C0
C0C0
C0C0
C0C0
C0C0
C0C0
C0C0
C0C0
C1C0
63C0
7EC0
3CC0
ENDCHAR
STARTCHAR 0398
ENCODING 920
SWIDTH 720 0
DWIDTH 16 0
BBX 12 21 2 0
BITMAP
0D80
0D80
0000
1FC0
0000
C030
C030
C030
C030
C030
C030
C030
C030
C030
C030
C030
C030
E070
70E0
3FE0
1F80
ENDCHAR
STARTCHAR 0399
ENCODING 921
SWIDTH 540 0
DWIDTH 12 0
BBX 10 18 1 0
BITMAP
3300
3300
0000
0000
3F80
0000
C0C0
C0C0
C0C0
C0C0
C0C0
C0C0
C0C0
C0C0
C1C0
63C0
7EC0
3CC0
ENDCHAR
STARTCHAR 039A
ENCODING 922
SWIDTH 675 0
DWIDTH 15 0
BBX 13 19 1 0
BITMAP
0E40
13C0
1180
C018
C018
E038
6030
7070
3060
3060
38E0
18C0
18C0
1DC0
0D80
0D80
0F80
0700
0700
ENDCHAR
STARTCHAR 039B
ENCODING 923
SWIDTH 495 0
DWIDTH 11 0
BBX 11 16 0 0
BITMAP
1CC0
2780
2380
0000
E060
60C0
60C0
60C0
3180
3180
3100
1B00
1B00
0A00
0E00
0E00
ENDCHAR
STARTCHAR 039C
ENCODING 924
SWIDTH 675 0
DWIDTH 15 0
BBX 13 19 1 -3
BITMAP
C018
C018
E038
6030
7070
3060
3060
38E0
18C0
18C0
1DC0
0D80
0D80
0F80
0700
0700
0000
0600
0600
ENDCHAR
STARTCHAR 039D
ENCODING 925
SWIDTH 495 0
DWIDTH 11 0
BBX 11 15 0 -3
BITMAP
E060
60C0
60C0
60C0
3180
3180
3100
1B00
1B00
0A00
0E00
0E00
0000
0C00
0C00
ENDCHAR
STARTCHAR 039E
ENCODING 926
SWIDTH 945 0
DWIDTH 21 0
BBX 20 20 1 0
BITMAP
018000
00C000
006000
000000
C0E070
C0E060
C0E060
E1B0E0
61B0C0
61B0C0
6398C0
7319C0
331980
331980
360D80
3E0F80
1E0F00
1E0700
1C0700
1C0700
ENDCHAR
STARTCHAR 039F
ENCODING 927
SWIDTH 720 0
DWIDTH 16 0
BBX 16 16 0 0
BITMAP
0700
0300
0180
0000
C183
6386
63C6
63C6
62C4
324C
366C
366C
1468
1C38
1C38
1C30
ENDCHAR
STARTCHAR 03A0
ENCODING 928
SWIDTH 945 0
DWIDTH 21 0
BBX 20 20 1 0
BITMAP
003000
006000
004000
000000
C0E070
C0E060
C0E060
E1B0E0
61B0C0
61B0C0
6398C0
7319C0
331980
331980
360D80
3E0F80
1E0F00
1E0700
1C0700
1C0700
ENDCHAR
STARTCHAR 03A1
ENCODING 929
SWIDTH 720 0
DWIDTH 16 0
BBX 16 16 0 0
BITMAP
00E0
00C0
0180
0000
C183
6386
63C6
63C6
62C4
324C
366C
366C
1468
1C38
1C38
1C30
ENDCHAR
STARTCHAR 03A2
ENCODING 930
SWIDTH 945 0
DWIDTH 21 0
BBX 20 19 1 0
BITMAP
01B000
01B000
000000
C0E070
C0E060
C0E060
E1B0E0
61B0C0
61B0C0
6398C0
7319C0
331980
331980
360D80
3E0F80
1E0F00
1E0700
1C0700
1C0700
ENDCHAR
STARTCHAR 03A3
ENCODING 931
SWIDTH 720 0
DWIDTH 16 0
BBX 16 16 0 0
BITMAP
0660
0660
0000
0000
C183
6386
63C6
63C6
62C4
324C
366C
366C
1468
1C38
1C38
1C30
ENDCHAR
STARTCHAR 03A4
ENCODING 932
SWIDTH 945 0
DWIDTH 21 0
BBX 20 19 1 0
BITMAP
00E000
00E000
000000
C0E070
C0E060
C0E060
E1B0E0
61B0C0
61B0C0
6398C0
7319C0
331980
331980
360D80
3E0F80
1E0F00
1E0700
1C0700
1C0700
ENDCHAR
STARTCHAR 03A5
ENCODING 933
SWIDTH 720 0
DWIDTH 16 0
BBX 16 16 0 0
BITMAP
0180
0180
0000
0000
C183
6386
63C6
63C6
62C4
324C
366C
366C
1468
1C38
1C38
1C30
ENDCHAR
STARTCHAR 03A6
ENCODING 934
SWIDTH 945 0
DWIDTH 21 0
BBX 20 19 1 -3
BITMAP
C0E070
C0E060
C0E060
E1B0E0
61B0C0
61B0C0
6398C0
7319C0
331980
331980
360D80
3E0F80
1E0F00
1E0700
1C0700
1C0700
000000
006000
006000
ENDCHAR
STARTCHAR 03A7
ENCODING 935
SWIDTH 720 0
DWIDTH 16 0
BBX 16 15 0 -3
BITMAP
C183
6386
63C6
63C6
62C4
324C
366C
366C
1468
1C38
1C38
1C30
0000
0180
0180
ENDCHAR
STARTCHAR 03A8
ENCODING 936
SWIDTH 675 0
DWIDTH 15 0
BBX 13 19 1 0
BITMAP
0300
0300
0000
E038
7030
3060
38E0
1CC0
0D80
0F80
0700
0700
0D80
1DC0
18C0
30E0
7070
E030
C038
ENDCHAR
STARTCHAR 03A9
ENCODING 937
SWIDTH 495 0
DWIDTH 11 0
BBX 10 16 0 0
BITMAP
0E00
0E00
0000
0000
60C0
71C0
3180
1B00
1F00
0E00
0E00
1F00
3B00
3180
71C0
E0C0
ENDCHAR
STARTCHAR 03AA
ENCODING 938
SWIDTH 675 0
DWIDTH 15 0
BBX 13 19 1 0
BITMAP
0D80
0D80
0000
E038
7030
3060
38E0
1CC0
0D80
0F80
0700
0700
0D80
1DC0
18C0
30E0
7070
E030
C038
ENDCHAR
STARTCHAR 03AB
ENCODING 939
SWIDTH 495 0
DWIDTH 11 0
BBX 10 16 0 0
BITMAP
1B00
1B00
0000
0000
60C0
71C0
3180
1B00
1F00
0E00
0E00
1F00
3B00
3180
71C0
E0C0
ENDCHAR
STARTCHAR 03AC
ENCODING 940
SWIDTH 675 0
DWIDTH 15 0
BBX 13 19 1 0
BITMAP
0300
0300
0000
C018
E038
6030
3070
38E0
18C0
1DC0
0D80
0780
0700
0700
0700
0700
0700
0700
0700
ENDCHAR
STARTCHAR 03AD
ENCODING 941
SWIDTH 495 0
DWIDTH 11 0
BBX 11 21 0 -5
BITMAP
0600
0600
0000
0000
E060
60C0
60C0
70C0
3180
3180
3180
1B00
1B00
1B00
0E00
0E00
0C00
0C00
0C00
7800
7000
ENDCHAR
STARTCHAR 03AE
ENCODING 942
SWIDTH 630 0
DWIDTH 14 0
BBX 12 20 1 0
BITMAP
0E00
0B00
1980
0000
FFF0
FFF0
0070
00E0
01C0
0380
0300
0700
0E00
1C00
3800
3000
6000
E000
FFF0
FFF0
ENDCHAR
STARTCHAR 03AF
ENCODING 943
SWIDTH 495 0
DWIDTH 11 0
BBX 9 16 1 0
BITMAP
1C00
3600
2200
0000
FF80
FF80
0380
0700
0E00
0C00
1800
3000
6000
E000
FF80
FF80
ENDCHAR
STARTCHAR 03B0
ENCODING 944
SWIDTH 630 0
DWIDTH 14 0
BBX 12 19 1 -3
BITMAP
FFF0
FFF0
0070
00E0
01C0
0380
0300
0700
0E00
1C00
3800
3000
6000
E000
FFF0
FFF0
0000
0600
0600
ENDCHAR
STARTCHAR 03B1
ENCODING 945
SWIDTH 495 0
DWIDTH 11 0
BBX 9 15 1 -3
BITMAP
FF80
FF80
0380
0700
0E00
0C00
1800
3000
6000
E000
FF80
FF80
0000
0C00
0C00
ENDCHAR
STARTCHAR 03B2
ENCODING 946
SWIDTH 630 0
DWIDTH 14 0
BBX 12 18 1 -2
BITMAP
FFF0
FFF0
0070
00E0
01C0
0380
0300
0700
0E00
1C00
3800
3000
6000
E000
FFF0
FFF0
0000
3F80
ENDCHAR
STARTCHAR 03B3
ENCODING 947
SWIDTH 495 0
DWIDTH 11 0
BBX 9 14 1 -2
BITMAP
FF80
FF80
0380
0700
0E00
0C00
1800
3000
6000
E000
FF80
FF80
0000
7F00
ENDCHAR
STARTCHAR 03B4
ENCODING 948
SWIDTH 540 0
DWIDTH 12 0
BBX 10 18 1 -2
BITMAP
C000
C000
C000
C000
CF00
DF80
F1C0
E0C0
E0C0
C0C0
C0C0
C0C0
C0C0
C0C0
C0C0
C0C0
0000
3F80
ENDCHAR
STARTCHAR 03B5
ENCODING 949
SWIDTH 270 0
DWIDTH 6 0
BBX 6 19 0 0
BITMAP
CC
CC
00
00
30
30
30
FC
FC
30
30
30
30
30
30
30
30
3C
3C
ENDCHAR
STARTCHAR 03B6
ENCODING 950
SWIDTH 720 0
DWIDTH 16 0
BBX 16 18 0 0
BITMAP
0180
0240
0240
0240
0180
0000
C183
6386
63C6
63C6
62C4
324C
366C
366C
1468
1C38
1C38
1C30
ENDCHAR
STARTCHAR 03B7
ENCODING 951
SWIDTH 495 0
DWIDTH 11 0
BBX 11 22 0 -5
BITMAP
0E00
0900
1100
0900
0E00
E060
60C0
60C0
70C0
3180
3180
3180
1B00
1B00
1B00
0E00
0E00
0C00
0C00
0C00
7800
7000
ENDCHAR
STARTCHAR 03B8
ENCODING 952
SWIDTH 270 0
DWIDTH 6 0
BBX 6 20 0 0
BITMAP
30
30
00
00
1C
3C
30
30
F0
F0
30
30
30
30
30
30
30
30
30
30
ENDCHAR
STARTCHAR 03B9
ENCODING 953
SWIDTH 675 0
DWIDTH 15 0
BBX 13 19 1 -3
BITMAP
0700
0700
0D80
0D80
0D80
18C0
18C0
10C0
3060
3FE0
7FF0
6030
6030
C038
C018
C018
0000
0600
0600
ENDCHAR
STARTCHAR 03BA
ENCODING 954
SWIDTH 540 0
DWIDTH 12 0
BBX 11 15 1 -3
BITMAP
1F00
7F80
6180
40C0
00C0
3FC0
7EC0
E0C0
C1C0
C3C0
FEE0
3CE0
0000
0600
0600
ENDCHAR
STARTCHAR 03BB
ENCODING 955
SWIDTH 675 0
DWIDTH 15 0
BBX 13 21 1 0
BITMAP
0700
0100
0100
0200
0000
0700
0700
0D80
0D80
0D80
18C0
18C0
10C0
3060
3FE0
7FF0
6030
6030
C038
C018
C018
ENDCHAR
STARTCHAR 03BC
ENCODING 956
SWIDTH 540 0
DWIDTH 12 0
BBX 11 17 1 0
BITMAP
0E00
0200
0200
0400
0000
1F00
7F80
6180
40C0
00C0
3FC0
7EC0
E0C0
C1C0
C3C0
FEE0
3CE0
ENDCHAR
STARTCHAR 03BD
ENCODING 957
SWIDTH 675 0
DWIDTH 15 0
BBX 13 22 1 0
BITMAP
0030
0060
0040
0700
0D80
0880
0700
0700
0D80
0D80
0D80
18C0
18C0
10C0
3060
3FE0
7FF0
6030
6030
C038
C018
C018
ENDCHAR
STARTCHAR 03BE
ENCODING 958
SWIDTH 540 0
DWIDTH 12 0
BBX 11 18 1 0
BITMAP
00C0
0180
0F00
1E00
3300
0000
1F00
7F80
6180
40C0
00C0
3FC0
7EC0
E0C0
C1C0
C3C0
FEE0
3CE0
ENDCHAR
STARTCHAR 03BF
ENCODING 959
SWIDTH 675 0
DWIDTH 15 0
BBX 13 21 1 0
BITMAP
C000
6000
2700
0D00
1980
0700
0700
0D80
0D80
0D80
18C0
18C0
10C0
3060
3FE0
7FF0
6030
6030
C038
C018
C018
ENDCHAR
STARTCHAR 03C0
ENCODING 960
SWIDTH 540 0
DWIDTH 12 0
BBX 12 18 0 0
BITMAP
C000
6000
2600
0F00
1980
0000
0F80
3FC0
30C0
2060
0060
1FE0
3F60
7060
60E0
61E0
7F70
1E70
ENDCHAR
STARTCHAR 03C1
ENCODING 961
SWIDTH 675 0
DWIDTH 15 0
BBX 13 23 1 0
BITMAP
00E0
0020
0020
0040
0700
0D80
0880
0700
0700
0D80
0D80
0D80
18C0
18C0
10C0
3060
3FE0
7FF0
6030
6030
C038
C018
C018
ENDCHAR
STARTCHAR 03C2
ENCODING 962
SWIDTH 540 0
DWIDTH 12 0
BBX 11 19 1 0
BITMAP
0180
00C0
0080
1D00
1E00
3300
0000
1F00
7F80
6180
40C0
00C0
3FC0
7EC0
E0C0
C1C0
C3C0
FEE0
3CE0
ENDCHAR
STARTCHAR 03C3
ENCODING 963
SWIDTH 675 0
DWIDTH 15 0
BBX 13 23 1 0
BITMAP
0E40
13C0
1180
0700
0D00
1980
0000
0700
0700
0D80
0D80
0D80
18C0
18C0
10C0
3060
3FE0
7FF0
6030
6030
C038
C018
C018
ENDCHAR
STARTCHAR 03C4
ENCODING 964
SWIDTH 540 0
DWIDTH 12 0
BBX 11 19 1 0
BITMAP
3980
6F00
4700
0000
0C00
1E00
3300
1F00
7F80
6180
40C0
00C0
3FC0
7EC0
E0C0
C1C0
C3C0
FEE0
3CE0
ENDCHAR
STARTCHAR 03C5
ENCODING 965
SWIDTH 675 0
DWIDTH 15 0
BBX 13 23 1 -3
BITMAP
0700
0D00
1980
0000
0700
0700
0D80
0D80
0D80
18C0
18C0
10C0
3060
3FE0
7FF0
6030
6030
C038
C018
C018
0000
0300
0300
ENDCHAR
STARTCHAR 03C6
ENCODING 966
SWIDTH 540 0
DWIDTH 12 0
BBX 11 19 1 -3
BITMAP
0E00
1A00
3300
0000
1F00
7F80
6180
40C0
00C0
3FC0
7EC0
E0C0
C1C0
C3C0
FEE0
3CE0
0000
0C00
0C00
ENDCHAR
STARTCHAR 03C7
ENCODING 967
SWIDTH 675 0
DWIDTH 15 0
BBX 13 22 1 0
BITMAP
0180
0180
0300
1840
08C0
0780
0700
0700
0D80
0D80
0D80
18C0
18C0
10C0
3060
3FE0
7FF0
6030
6030
C038
C018
C018
ENDCHAR
STARTCHAR 03C8
ENCODING 968
SWIDTH 540 0
DWIDTH 12 0
BBX 11 19 1 0
BITMAP
0300
0600
0400
2080
1100
1F00
0000
1F00
7F80
6180
40C0
00C0
3FC0
7EC0
E0C0
C1C0
C3C0
FEE0
3CE0
ENDCHAR
STARTCHAR 03C9
ENCODING 969
SWIDTH 675 0
DWIDTH 15 0
BBX 13 23 1 0
BITMAP
0C00
0600
0200
1040
08C0
0F80
0000
0700
0700
0D80
0D80
0D80
18C0
18C0
10C0
3060
3FE0
7FF0
6030
6030
C038
C018
C018
ENDCHAR
STARTCHAR 03CA
ENCODING 970
SWIDTH 540 0
DWIDTH 12 0
BBX 11 19 1 0
BITMAP
1800
0C00
0400
2080
1100
1F00
0000
1F00
7F80
6180
40C0
00C0
3FC0
7EC0
E0C0
C1C0
C3C0
FEE0
3CE0
ENDCHAR
STARTCHAR 03CB
ENCODING 971
SWIDTH 675 0
DWIDTH 15 0
BBX 13 24 1 0
BITMAP
0700
0100
0100
0200
0000
1040
08C0
0F80
0700
0700
0D80
0D80
0D80
18C0
18C0
10C0
3060
3FE0
7FF0
6030
6030
C038
C018
C018
ENDCHAR
STARTCHAR 03CC
ENCODING 972
SWIDTH 540 0
DWIDTH 12 0
BBX 11 21 1 0
BITMAP
0E00
0200
0200
0400
0000
2080
1100
1F00
0000
1F00
7F80
6180
40C0
00C0
3FC0
7EC0
E0C0
C1C0
C3C0
FEE0
3CE0
ENDCHAR
STARTCHAR 03CD
ENCODING 973
SWIDTH 675 0
DWIDTH 15 0
BBX 13 23 1 0
BITMAP
0E60
0BC0
11C0
1040
08C0
0F80
0000
0700
0700
0D80
0D80
0D80
18C0
18C0
10C0
3060
3FE0
7FF0
6030
6030
C038
C018
C018
ENDCHAR
STARTCHAR 03CE
ENCODING 974
SWIDTH 540 0
DWIDTH 12 0
BBX 11 19 1 0
BITMAP
1C80
2780
2300
2080
1100
1F00
0000
1F00
7F80
6180
40C0
00C0
3FC0
7EC0
E0C0
C1C0
C3C0
FEE0
3CE0
ENDCHAR
STARTCHAR 03CF
ENCODING 975
SWIDTH 675 0
DWIDTH 15 0
BBX 13 23 1 -3
BITMAP
1040
08C0
0F80
0000
0700
0700
0D80
0D80
0D80
18C0
18C0
10C0
3060
3FE0
7FF0
6030
6030
C038
C018
C018
0000
0300
0300
ENDCHAR
STARTCHAR 03D0
ENCODING 976
SWIDTH 540 0
DWIDTH 12 0
BBX 11 19 1 -3
BITMAP
2080
1100
1F00
0000
1F00
7F80
6180
40C0
00C0
3FC0
7EC0
E0C0
C1C0
C3C0
FEE0
3CE0
0000
0600
0600
ENDCHAR
STARTCHAR 03D1
ENCODING 977
SWIDTH 675 0
DWIDTH 15 0
BBX 12 19 2 -3
BITMAP
FFF0
FFF0
C000
C000
C000
C000
C000
FFE0
FFE0
C000
C000
C000
C000
C000
FFF0
FFF0
0000
0600
0600
ENDCHAR
STARTCHAR 03D2
ENCODING 978
SWIDTH 540 0
DWIDTH 12 0
BBX 10 15 1 -3
BITMAP
1F00
7F80
61C0
C0C0
C0C0
FFC0
FFC0
C000
C0C0
61C0
7F80
1F00
0000
0C00
0C00
ENDCHAR
STARTCHAR 03D3
ENCODING 979
SWIDTH 675 0
DWIDTH 15 0
BBX 12 21 2 0
BITMAP
0E00
0200
0200
0400
0000
FFF0
FFF0
C000
C000
C000
C000
C000
FFE0
FFE0
C000
C000
C000
C000
C000
FFF0
FFF0
ENDCHAR
STARTCHAR 03D4
ENCODING 980
SWIDTH 540 0
DWIDTH 12 0
BBX 10 17 1 0
BITMAP
0C00
0200
0600
0800
0000
1F00
7F80
61C0
C0C0
C0C0
FFC0
FFC0
C000
C0C0
61C0
7F80
1F00
ENDCHAR
STARTCHAR 03D5
ENCODING 981
SWIDTH 675 0
DWIDTH 15 0
BBX 12 20 2 0
BITMAP
1C40
17C0
2180
0000
FFF0
FFF0
C000
C000
C000
C000
C000
FFE0
FFE0
C000
C000
C000
C000
C000
FFF0
FFF0
ENDCHAR
STARTCHAR 03D6
ENCODING 982
SWIDTH 540 0
DWIDTH 12 0
BBX 10 16 1 0
BITMAP
1C80
2780
2300
0000
1F00
7F80
61C0
C0C0
C0C0
FFC0
FFC0
C000
C0C0
61C0
7F80
1F00
ENDCHAR
STARTCHAR 03D7
ENCODING 983
SWIDTH 675 0
DWIDTH 15 0
BBX 12 22 2 0
BITMAP
0060
00C0
0E80
0B00
1980
0000
FFF0
FFF0
C000
C000
C000
C000
C000
FFE0
FFE0
C000
C000
C000
C000
C000
FFF0
FFF0
ENDCHAR
STARTCHAR 03D8
ENCODING 984
SWIDTH 540 0
DWIDTH 12 0
BBX 10 18 1 0
BITMAP
00C0
0080
1D80
1E00
3300
0000
1F00
7F80
61C0
C0C0
C0C0
FFC0
FFC0
C000
C0C0
61C0
7F80
1F00
ENDCHAR
STARTCHAR 03D9
ENCODING 985
SWIDTH 675 0
DWIDTH 15 0
BBX 12 22 2 0
BITMAP
C000
6000
3700
0D80
0880
0000
FFF0
FFF0
C000
C000
C000
C000
C000
FFE0
FFE0
C000
C000
C000
C000
C000
FFF0
FFF0
ENDCHAR
STARTCHAR 03DA
ENCODING 986
SWIDTH 540 0
DWIDTH 12 0
BBX 11 18 0 0
BITMAP
E000
6000
3700
0D00
1980
0000
0F80
3FC0
30E0
6060
6060
7FE0
7FE0
6000
6060
30E0
3FC0
0F80
ENDCHAR
STARTCHAR 03DB
ENCODING 987
SWIDTH 675 0
DWIDTH 15 0
BBX 12 23 2 0
BITMAP
01C0
0040
0040
0E80
0B00
1980
0000
FFF0
FFF0
C000
C000
C000
C000
C000
FFE0
FFE0
C000
C000
C000
C000
C000
FFF0
FFF0
ENDCHAR
STARTCHAR 03DC
ENCODING 988
SWIDTH 540 0
DWIDTH 12 0
BBX 10 19 1 0
BITMAP
0180
0040
0040
0E80
1A00
3300
0000
1F00
7F80
61C0
C0C0
C0C0
FFC0
FFC0
C000
C0C0
61C0
7F80
1F00
ENDCHAR
STARTCHAR 03DD
ENCODING 989
SWIDTH 675 0
DWIDTH 15 0
BBX 12 23 2 0
BITMAP
1C40
17C0
2180
0E00
1B00
1100
0000
FFF0
FFF0
C000
C000
C000
C000
C000
FFE0
FFE0
C000
C000
C000
C000
C000
FFF0
FFF0
ENDCHAR
STARTCHAR 03DE
ENCODING 990
SWIDTH 540 0
DWIDTH 12 0
BBX 10 19 1 0
BITMAP
3880
2F80
4300
0000
0E00
1E00
3300
1F00
7F80
61C0
C0C0
C0C0
FFC0
FFC0
C000
C0C0
61C0
7F80
1F00
ENDCHAR
STARTCHAR 03DF
ENCODING 991
SWIDTH 675 0
DWIDTH 15 0
BBX 12 23 2 -3
BITMAP
0E00
1B00
1100
0000
FFF0
FFF0
C000
C000
C000
C000
C000
FFE0
FFE0
C000
C000
C000
C000
C000
FFF0
FFF0
0000
0600
0600
ENDCHAR
STARTCHAR 03E0
ENCODING 992
SWIDTH 540 0
DWIDTH 12 0
BBX 10 19 1 -3
BITMAP
1C00
1600
3300
0000
1F00
7F80
61C0
C0C0
C0C0
FFC0
FFC0
C000
C0C0
61C0
7F80
1F00
0000
0C00
0C00
ENDCHAR
STARTCHAR 03E1
ENCODING 993
SWIDTH 270 0
DWIDTH 6 0
BBX 3 21 2 0
BITMAP
C0
20
20
C0
00
C0
C0
C0
C0
C0
C0
C0
C0
C0
C0
C0
C0
C0
C0
C0
C0
ENDCHAR
STARTCHAR 03E2
ENCODING 994
SWIDTH 270 0
DWIDTH 6 0
BBX 3 17 2 0
BITMAP
C0
20
60
80
00
C0
C0
C0
C0
C0
C0
C0
C0
C0
C0
C0
C0
ENDCHAR
STARTCHAR 03E3
ENCODING 995
SWIDTH 270 0
DWIDTH 6 0
BBX 2 19 2 -3
BITMAP
C0
C0
C0
C0
C0
C0
C0
C0
C0
C0
C0
C0
C0
C0
C0
C0
00
C0
C0
ENDCHAR
STARTCHAR 03E4
ENCODING 996
SWIDTH 225 0
DWIDTH 5 0
BBX 3 19 1 -3
BITMAP
C0
C0
00
00
C0
C0
C0
C0
C0
C0
C0
C0
C0
C0
C0
C0
00
E0
E0
ENDCHAR
STARTCHAR 03E5
ENCODING 997
SWIDTH 765 0
DWIDTH 17 0
BBX 15 19 1 -3
BITMAP
07E0
1FF8
383C
700C
600E
E006
C006
C006
C006
C006
C006
E00E
700C
3838
1FF0
0FE0
0000
0180
0180
ENDCHAR
STARTCHAR 03E6
ENCODING 998
SWIDTH 540 0
DWIDTH 12 0
BBX 10 15 1 -3
BITMAP
1F00
7F80
61C0
C0C0
C0C0
C0C0
C0C0
C0C0
C0C0
E1C0
7F80
3E00
0000
0C00
0C00
ENDCHAR
STARTCHAR 03E7
ENCODING 999
SWIDTH 765 0
DWIDTH 17 0
BBX 15 22 1 0
BITMAP
0380
0080
0080
0100
0000
0000
07E0
1FF8
383C
700C
600E
E006
C006
C006
C006
C006
C006
E00E
700C
3838
1FF0
0FE0
ENDCHAR
STARTCHAR 03E8
ENCODING 1000
SWIDTH 540 0
DWIDTH 12 0
BBX 10 17 1 0
BITMAP
0C00
0200
0600
0800
0000
1F00
7F80
61C0
C0C0
C0C0
C0C0
C0C0
C0C0
C0C0
E1C0
7F80
3E00
ENDCHAR
STARTCHAR 03E9
ENCODING 1001
SWIDTH 765 0
DWIDTH 17 0
BBX 15 22 1 0
BITMAP
0018
0018
03B0
02C0
0660
0000
07E0
1FF8
383C
700C
600E
E006
C006
C006
C006
C006
C006
E00E
700C
3838
1FF0
0FE0
ENDCHAR
STARTCHAR 03EA
ENCODING 1002
SWIDTH 540 0
DWIDTH 12 0
BBX 11 18 1 0
BITMAP
0060
00C0
0F80
1A00
3300
0000
1F00
7F80
61C0
C0C0
C0C0
C0C0
C0C0
C0C0
C0C0
E1C0
7F80
3E00
ENDCHAR
STARTCHAR 03EB
ENCODING 1003
SWIDTH 765 0
DWIDTH 17 0
BBX 15 22 1 0
BITMAP
7000
3000
1B80
06C0
0440
0000
07E0
1FF8
383C
700C
600E
E006
C006
C006
C006
C006
C006
E00E
700C
3838
1FF0
0FE0
ENDCHAR
STARTCHAR 03EC
ENCODING 1004
SWIDTH 540 0
DWIDTH 12 0
BBX 11 18 0 0
BITMAP
C000
6000
3600
0F00
1980
0000
0F80
3FC0
30E0
6060
6060
6060
6060
6060
6060
70E0
3FC0
1F00
ENDCHAR
STARTCHAR 03ED
ENCODING 1005
SWIDTH 765 0
DWIDTH 17 0
BBX 15 23 1 0
BITMAP
0030
0018
0018
01A0
03C0
0660
0000
07E0
1FF8
383C
700C
600E
E006
C006
C006
C006
C006
C006
E00E
700C
3838
1FF0
0FE0
ENDCHAR
STARTCHAR 03EE
ENCODING 1006
SWIDTH 540 0
DWIDTH 12 0
BBX 10 19 1 0
BITMAP
0180
0040
0040
0F80
1A00
3300
0000
1F00
7F80
61C0
C0C0
C0C0
C0C0
C0C0
C0C0
C0C0
E1C0
7F80
3E00
ENDCHAR
STARTCHAR 03EF
ENCODING 1007
SWIDTH 765 0
DWIDTH 17 0
BBX 15 23 1 0
BITMAP
0790
04F0
0460
01C0
0340
0660
0000
07E0
1FF8
383C
700C
600E
E006
C006
C006
C006
C006
C006
E00E
700C
3838
1FF0
0FE0
ENDCHAR
STARTCHAR 03F0
ENCODING 1008
SWIDTH 540 0
DWIDTH 12 0
BBX 10 19 1 0
BITMAP
3880
2F00
4700
0000
0C00
1E00
3300
1F00
7F80
61C0
C0C0
C0C0
C0C0
C0C0
C0C0
C0C0
E1C0
7F80
3E00
ENDCHAR
STARTCHAR 03F1
ENCODING 1009
SWIDTH 765 0
DWIDTH 17 0
BBX 15 23 1 -3
BITMAP
0380
06C0
0640
0000
07E0
1FF8
383C
700C
600E
E006
C006
C006
C006
C006
C006
E00E
700C
3838
1FF0
0FE0
0000
0180
0180
ENDCHAR
STARTCHAR 03F2
ENCODING 1010
SWIDTH 540 0
DWIDTH 12 0
BBX 10 19 1 -3
BITMAP
0E00
1A00
3300
0000
1F00
7F80
61C0
C0C0
C0C0
C0C0
C0C0
C0C0
C0C0
E1C0
7F80
3E00
0000
0C00
0C00
ENDCHAR
STARTCHAR 03F3
ENCODING 1011
SWIDTH 900 0
DWIDTH 20 0
BBX 18 20 1 0
BITMAP
00C000
018000
010000
000000
07E080
1FF9C0
383F80
700C00
600E00
E00600
C00600
C00600
C00600
C00600
C00600
E00E00
700C00
383800
1FF000
0FE000
ENDCHAR
STARTCHAR 03F4
ENCODING 1012
SWIDTH 675 0
DWIDTH 15 0
BBX 13 17 1 -1
BITMAP
0700
0600
0C00
0000
1E18
7F98
61F8
C0C0
C0C0
C0C0
C0C0
C0C0
C0C0
C0C0
61C0
7F80
1E00
ENDCHAR
STARTCHAR 03F5
ENCODING 1013
SWIDTH 900 0
DWIDTH 20 0
BBX 18 20 1 0
BITMAP
070000
030000
018000
000000
07E080
1FF9C0
383F80
700C00
600E00
E00600
C00600
C00600
C00600
C00600
C00600
E00E00
700C00
383800
1FF000
0FE000
ENDCHAR
STARTCHAR 03F6
ENCODING 1014
SWIDTH 675 0
DWIDTH 15 0
BBX 13 17 1 -1
BITMAP
1800
0C00
0600
0000
1E18
7F98
61F8
C0C0
C0C0
C0C0
C0C0
C0C0
C0C0
C0C0
61C0
7F80
1E00
ENDCHAR
STARTCHAR 03F7
ENCODING 1015
SWIDTH 900 0
DWIDTH 20 0
BBX 18 22 1 0
BITMAP
038000
008000
008000
010000
000000
000000
07E080
1FF9C0
383F80
700C00
600E00
E00600
C00600
C00600
C00600
C00600
C00600
E00E00
700C00
383800
1FF000
0FE000
ENDCHAR
STARTCHAR 03F8
ENCODING 1016
SWIDTH 675 0
DWIDTH 15 0
BBX 13 18 1 -1
BITMAP
0C00
0200
0200
0C00
0000
1E18
7F98
61F8
C0C0
C0C0
C0C0
C0C0
C0C0
C0C0
C0C0
61C0
7F80
1E00
ENDCHAR
STARTCHAR 03F9
ENCODING 1017
SWIDTH 900 0
DWIDTH 20 0
BBX 18 21 1 0
BITMAP
073000
0DE000
08E000
000000
000000
07E080
1FF9C0
383F80
700C00
600E00
E00600
C00600
C00600
C00600
C00600
C00600
E00E00
700C00
383800
1FF000
0FE000
ENDCHAR
STARTCHAR 03FA
ENCODING 1018
SWIDTH 675 0
DWIDTH 15 0
BBX 13 17 1 -1
BITMAP
1C80
2780
2300
0000
1E18
7F98
61F8
C0C0
C0C0
C0C0
C0C0
C0C0
C0C0
C0C0
61C0
7F80
1E00
ENDCHAR
STARTCHAR 03FB
ENCODING 1019
SWIDTH 900 0
DWIDTH 20 0
BBX 18 19 1 -3
BITMAP
07E080
1FF9C0
383F80
700C00
600E00
E00600
C00600
C00600
C00600
C00600
C00600
E00E00
700C00
383800
1FF000
0FE000
000000
018000
018000
ENDCHAR
STARTCHAR 03FC
ENCODING 1020
SWIDTH 675 0
DWIDTH 15 0
BBX 13 15 1 -3
BITMAP
1E18
7F98
61F8
C0C0
C0C0
C0C0
C0C0
C0C0
C0C0
C0C0
61C0
7F80
1E00
0C00
0C00
ENDCHAR
STARTCHAR 03FD
ENCODING 1021
SWIDTH 720 0
DWIDTH 16 0
BBX 12 19 2 -3
BITMAP
C030
C030
C030
C030
C030
C030
C030
C030
C030
C030
C030
C030
E070
70E0
3FE0
1F80
0000
0600
0600
ENDCHAR
STARTCHAR 03FE
ENCODING 1022
SWIDTH 540 0
DWIDTH 12 0
BBX 10 15 1 -3
BITMAP
C0C0
C0C0
C0C0
C0C0
C0C0
C0C0
C0C0
C0C0
C1C0
63C0
7EC0
3CC0
0000
0C00
0C00
ENDCHAR
STARTCHAR 03FF
ENCODING 1023
SWIDTH 720 0
DWIDTH 16 0
BBX 12 21 2 0
BITMAP
0600
0100
0300
0400
0000
C030
C030
C030
C030
C030
C030
C030
C030
C030
C030
C030
C030
E070
70E0
3FE0
1F80
ENDCHAR
STARTCHAR 0400
ENCODING 1024
SWIDTH 540 0
DWIDTH 12 0
BBX 10 17 1 0
BITMAP
0C00
0200
0600
0800
0000
C0C0
C0C0
C0C0
C0C0
C0C0
C0C0
C0C0
C0C0
C1C0
63C0
7EC0
3CC0
ENDCHAR
STARTCHAR 0401
ENCODING 1025
SWIDTH 855 0
DWIDTH 19 0
BBX 16 20 2 0
BITMAP
0300
0300
0600
0003
C033
C03F
C030
C030
C030
C030
C030
C030
C030
C030
C030
C030
E070
70E0
3FE0
1F80
ENDCHAR
STARTCHAR 0402
ENCODING 1026
SWIDTH 720 0
DWIDTH 16 0
BBX 14 16 1 0
BITMAP
0600
0C00
0800
0000
C008
C0DC
C0F8
C0C0
C0C0
C0C0
C0C0
C0C0
E1C0
63C0
7FC0
3CC0
ENDCHAR
STARTCHAR 0403
ENCODING 1027
SWIDTH 855 0
DWIDTH 19 0
BBX 16 20 2 0
BITMAP
0C00
0600
0300
0003
C033
C03F
C030
C030
C030
C030
C030
C030
C030
C030
C030
C030
E070
70E0
3FE0
1F80
ENDCHAR
STARTCHAR 0404
ENCODING 1028
SWIDTH 720 0
DWIDTH 16 0
BBX 14 16 1 0
BITMAP
1800
0C00
0600
0000
C008
C0DC
C0F8
C0C0
C0C0
C0C0
C0C0
C0C0
E1C0
63C0
7FC0
3CC0
ENDCHAR
STARTCHAR 0405
ENCODING 1029
SWIDTH 855 0
DWIDTH 19 0
BBX 16 21 2 0
BITMAP
0700
0100
0100
0200
0003
C033
C03F
C030
C030
C030
C030
C030
C030
C030
C030
C030
C030
E070
70E0
3FE0
1F80
ENDCHAR
STARTCHAR 0406
ENCODING 1030
SWIDTH 720 0
DWIDTH 16 0
BBX 14 16 1 0
BITMAP
0C00
0200
0200
0C00
C008
C0DC
C0F8
C0C0
C0C0
C0C0
C0C0
C0C0
E1C0
63C0
7FC0
3CC0
ENDCHAR
STARTCHAR 0407
ENCODING 1031
SWIDTH 855 0
DWIDTH 19 0
BBX 16 20 2 0
BITMAP
0E40
13C0
1180
0003
C033
C03F
C030
C030
C030
C030
C030
C030
C030
C030
C030
C030
E070
70E0
3FE0
1F80
ENDCHAR
STARTCHAR 0408
ENCODING 1032
SWIDTH 720 0
DWIDTH 16 0
BBX 14 16 1 0
BITMAP
3980
2F00
4700
0000
C008
C0DC
C0F8
C0C0
C0C0
C0C0
C0C0
C0C0
E1C0
63C0
7FC0
3CC0
ENDCHAR
STARTCHAR 0409
ENCODING 1033
SWIDTH 855 0
DWIDTH 19 0
BBX 16 20 2 -3
BITMAP
0003
C033
C03F
C030
C030
C030
C030
C030
C030
C030
C030
C030
C030
E070
70E0
3FE0
1F80
0000
0600
0600
ENDCHAR
STARTCHAR 040A
ENCODING 1034
SWIDTH 720 0
DWIDTH 16 0
BBX 14 15 1 -3
BITMAP
C008
C0DC
C0F8
C0C0
C0C0
C0C0
C0C0
C0C0
E1C0
63C0
7FC0
3CC0
0000
0C00
0C00
ENDCHAR
STARTCHAR 040B
ENCODING 1035
SWIDTH 675 0
DWIDTH 15 0
BBX 13 19 1 0
BITMAP
0E00
0600
0300
C018
E038
6030
3070
38E0
18C0
1DC0
0D80
0780
0700
0700
0700
0700
0700
0700
0700
ENDCHAR
STARTCHAR 040C
ENCODING 1036
SWIDTH 495 0
DWIDTH 11 0
BBX 11 21 0 -5
BITMAP
1C00
0C00
0600
0000
E060
60C0
60C0
70C0
3180
3180
3180
1B00
1B00
1B00
0E00
0E00
0C00
0C00
0C00
7800
7000
ENDCHAR
STARTCHAR 040D
ENCODING 1037
SWIDTH 675 0
DWIDTH 15 0
BBX 13 19 1 -3
BITMAP
C018
E038
6030
3070
38E0
18C0
1DC0
0D80
0780
0700
0700
0700
0700
0700
0700
0700
0000
0700
0700
ENDCHAR
STARTCHAR 040E
ENCODING 1038
SWIDTH 495 0
DWIDTH 11 0
BBX 11 19 0 -7
BITMAP
E060
60C0
60C0
70C0
3180
3180
3180
1B00
1B00
1B00
0E00
0E00
0C00
0C00
0C00
7800
7000
0600
0600
ENDCHAR
STARTCHAR 040F
ENCODING 1039
SWIDTH 675 0
DWIDTH 15 0
BBX 13 21 1 0
BITMAP
0700
0100
0100
0200
0000
C018
E038
6030
3070
38E0
18C0
1DC0
0D80
0780
0700
0700
0700
0700
0700
0700
0700
ENDCHAR
STARTCHAR 0410
ENCODING 1040
SWIDTH 495 0
DWIDTH 11 0
BBX 11 21 0 -5
BITMAP
0E00
0200
0200
0400
E060
60C0
60C0
70C0
3180
3180
3180
1B00
1B00
1B00
0E00
0E00
0C00
0C00
0C00
7800
7000
ENDCHAR
STARTCHAR 0411
ENCODING 1041
SWIDTH 675 0
DWIDTH 15 0
BBX 13 20 1 0
BITMAP
0E60
13C0
11C0
0000
C018
E038
6030
3070
38E0
18C0
1DC0
0D80
0780
0700
0700
0700
0700
0700
0700
0700
ENDCHAR
STARTCHAR 0412
ENCODING 1042
SWIDTH 495 0
DWIDTH 11 0
BBX 11 21 0 -5
BITMAP
1C80
2780
2380
0000
E060
60C0
60C0
70C0
3180
3180
3180
1B00
1B00
1B00
0E00
0E00
0C00
0C00
0C00
7800
7000
ENDCHAR
STARTCHAR 0413
ENCODING 1043
SWIDTH 675 0
DWIDTH 15 0
BBX 12 22 2 0
BITMAP
3F80
0000
0E00
1B00
1100
0000
FFF0
FFF0
C000
C000
C000
C000
C000
FFE0
FFE0
C000
C000
C000
C000
C000
FFF0
FFF0
ENDCHAR
STARTCHAR 0414
ENCODING 1044
SWIDTH 540 0
DWIDTH 12 0
BBX 10 18 1 0
BITMAP
3F80
0000
0000
0E00
1A00
3300
1F00
7F80
61C0
C0C0
C0C0
FFC0
FFC0
C000
C0C0
61C0
7F80
1F00
ENDCHAR
STARTCHAR 0415
ENCODING 1045
SWIDTH 675 0
DWIDTH 15 0
BBX 12 24 2 0
BITMAP
1100
1B00
0E00
0000
0E00
1B00
1100
0000
FFF0
FFF0
C000
C000
C000
C000
C000
FFE0
FFE0
C000
C000
C000
C000
C000
FFF0
FFF0
ENDCHAR
STARTCHAR 0416
ENCODING 1046
SWIDTH 540 0
DWIDTH 12 0
BBX 10 19 1 0
BITMAP
1100
1B00
0E00
0E00
1B00
1100
0000
1F00
7F80
61C0
C0C0
C0C0
FFC0
FFC0
C000
C0C0
61C0
7F80
1F00
ENDCHAR
STARTCHAR 0417
ENCODING 1047
SWIDTH 675 0
DWIDTH 15 0
BBX 12 20 1 0
BITMAP
0C00
0600
0300
0000
FFF0
FFF0
C000
C000
C000
C000
C000
FFE0
FFE0
C000
C000
C000
C000
C000
FFF0
FFF0
ENDCHAR
STARTCHAR 0418
ENCODING 1048
SWIDTH 720 0
DWIDTH 16 0
BBX 12 20 2 0
BITMAP
0C00
0600
0200
0000
C030
C070
C0F0
C0F0
C1B0
C3B0
C330
C630
C630
CC30
DC30
D830
F030
F030
E030
C030
ENDCHAR
STARTCHAR 0419
ENCODING 1049
SWIDTH 585 0
DWIDTH 13 0
BBX 11 16 1 0
BITMAP
1800
0C00
0600
0000
1F00
3F80
61C0
C0C0
C0C0
FFC0
FFE0
C000
C0C0
61C0
7F80
1F00
ENDCHAR
STARTCHAR 041A
ENCODING 1050
SWIDTH 585 0
DWIDTH 13 0
BBX 11 16 1 0
BITMAP
1800
0C00
0600
0000
C0E0
C1E0
C1E0
C3E0
C6E0
C6E0
CCE0
CCE0
D8E0
F0E0
F0E0
E0E0
ENDCHAR
STARTCHAR 041B
ENCODING 1051
SWIDTH 900 0
DWIDTH 20 0
BBX 21 20 1 0
BITMAP
010C00
018800
00F000
000000
C06038
E06070
7060E0
3861C0
1C6180
0C6300
066600
07FE00
07FE00
0E6700
1C6380
1C6380
3861C0
7060E0
E06070
C06038
ENDCHAR
STARTCHAR 041C
ENCODING 1052
SWIDTH 675 0
DWIDTH 15 0
BBX 16 16 1 0
BITMAP
0C20
0460
03C0
0000
C187
618E
718C
3998
19B0
0FE0
1FF0
19B8
3198
718C
E18E
C187
ENDCHAR
STARTCHAR 041D
ENCODING 1053
SWIDTH 675 0
DWIDTH 15 0
BBX 14 20 1 0
BITMAP
1040
08C0
0780
0000
0700
0780
0D80
0D80
0CC0
18C0
18C0
1860
3060
3FE0
7FF0
6030
6030
E018
C018
C01C
ENDCHAR
STARTCHAR 041E
ENCODING 1054
SWIDTH 585 0
DWIDTH 13 0
BBX 11 17 1 -1
BITMAP
2100
3100
1E00
0000
3F00
7F80
E180
C180
0180
0380
7F80
E180
C180
C180
C380
FEE0
7CE0
ENDCHAR
STARTCHAR 041F
ENCODING 1055
SWIDTH 675 0
DWIDTH 15 0
BBX 14 20 1 0
BITMAP
0D80
0D80
0000
0000
0700
0780
0D80
0D80
0CC0
18C0
18C0
1860
3060
3FE0
7FF0
6030
6030
E018
C018
C01C
ENDCHAR
STARTCHAR 0420
ENCODING 1056
SWIDTH 585 0
DWIDTH 13 0
BBX 11 17 1 -1
BITMAP
3300
3300
0000
0000
3F00
7F80
E180
C180
0180
0380
7F80
E180
C180
C180
C380
FEE0
7CE0
ENDCHAR
STARTCHAR 0421
ENCODING 1057
SWIDTH 675 0
DWIDTH 15 0
BBX 12 20 1 0
BITMAP
0840
0C40
0780
0000
FFF0
FFF0
C000
C000
C000
C000
C000
FFE0
FFE0
C000
C000
C000
C000
C000
FFF0
FFF0
ENDCHAR
STARTCHAR 0422
ENCODING 1058
SWIDTH 585 0
DWIDTH 13 0
BBX 11 16 1 0
BITMAP
2080
3100
1E00
0000
1F00
3F80
61C0
C0C0
C0C0
FFC0
FFE0
C000
C0C0
61C0
7F80
1F00
ENDCHAR
STARTCHAR 0423
ENCODING 1059
SWIDTH 1125 0
DWIDTH 25 0
BBX 21 20 1 0
BITMAP
01D800
01D800
000000
000000
C06038
606070
7060E0
3861C0
1C6180
0C6300
066700
03FE00
07FE00
0E6700
0C6380
1C61C0
3861C0
7060E0
E06070
C06038
ENDCHAR
STARTCHAR 0424
ENCODING 1060
SWIDTH 855 0
DWIDTH 19 0
BBX 16 15 1 0
BITMAP
06E0
06E0
0000
C186
618E
718C
3198
19B0
0FE0
1FF0
19B8
3198
718C
E18E
C187
ENDCHAR
STARTCHAR 0425
ENCODING 1061
SWIDTH 675 0
DWIDTH 15 0
BBX 13 20 1 0
BITMAP
0D80
0D80
0000
0000
1FC0
3FE0
7070
E030
C030
0030
0070
07E0
07F0
0030
0018
C018
C038
F070
7FE0
1FC0
ENDCHAR
STARTCHAR 0426
ENCODING 1062
SWIDTH 495 0
DWIDTH 11 0
BBX 9 16 1 0
BITMAP
3600
3600
0000
0000
3E00
7F00
E380
C180
0380
1F00
1F80
0180
C180
C180
7F00
3E00
ENDCHAR
STARTCHAR 0427
ENCODING 1063
SWIDTH 720 0
DWIDTH 16 0
BBX 12 18 2 0
BITMAP
1FC0
0000
C030
C070
C0F0
C0F0
C1B0
C3B0
C330
C630
C630
CC30
DC30
D830
F030
F030
E030
C030
ENDCHAR
STARTCHAR 0428
ENCODING 1064
SWIDTH 585 0
DWIDTH 13 0
BBX 11 14 1 0
BITMAP
3F80
0000
C0E0
C1E0
C1E0
C3E0
C6E0
C6E0
CCE0
CCE0
D8E0
F0E0
F0E0
E0E0
ENDCHAR
STARTCHAR 0429
ENCODING 1065
SWIDTH 720 0
DWIDTH 16 0
BBX 12 20 2 0
BITMAP
1980
1980
0000
0000
C030
C070
C0F0
C0F0
C1B0
C3B0
C330
C630
C630
CC30
DC30
D830
F030
F030
E030
C030
ENDCHAR
STARTCHAR 042A
ENCODING 1066
SWIDTH 585 0
DWIDTH 13 0
BBX 11 15 1 0
BITMAP
1B00
1B00
0000
C0E0
C1E0
C1E0
C3E0
C6E0
C6E0
CCE0
CCE0
D8E0
F0E0
F0E0
E0E0
ENDCHAR
STARTCHAR 042B
ENCODING 1067
SWIDTH 810 0
DWIDTH 18 0
BBX 15 20 1 0
BITMAP
0660
0660
0000
0000
07E0
1FF8
383C
700C
E00E
C006
C006
C006
C006
C006
C006
600E
700C
383C
1FF0
07E0
ENDCHAR
STARTCHAR 042C
ENCODING 1068
SWIDTH 585 0
DWIDTH 13 0
BBX 11 16 1 0
BITMAP
3300
3300
0000
0000
1F00
7F80
61C0
C0C0
C060
C060
C060
C0E0
C0C0
61C0
7F80
1F00
ENDCHAR
STARTCHAR 042D
ENCODING 1069
SWIDTH 720 0
DWIDTH 16 0
BBX 14 20 1 0
BITMAP
0CC0
0CC0
0000
0000
0FC0
3FF0
7078
6018
C01C
000C
000C
03FC
03FC
000C
C00C
E01C
6018
7870
3FE0
0F80
ENDCHAR
STARTCHAR 042E
ENCODING 1070
SWIDTH 495 0
DWIDTH 11 0
BBX 10 16 1 0
BITMAP
3600
3600
0000
0000
3E00
7F00
E380
C180
01C0
0FC0
0FC0
01C0
C180
E380
7F00
3E00
ENDCHAR
STARTCHAR 042F
ENCODING 1071
SWIDTH 675 0
DWIDTH 15 0
BBX 14 18 0 0
BITMAP
0FE0
0000
E00C
601C
7018
3018
1830
1830
0C70
0C60
0660
06C0
03C0
0380
0180
0300
1F00
1E00
ENDCHAR
STARTCHAR 0430
ENCODING 1072
SWIDTH 495 0
DWIDTH 11 0
BBX 11 19 0 -5
BITMAP
3F80
0000
E060
60C0
60C0
70C0
3180
3180
1980
1B00
1B00
0F00
0E00
0E00
0C00
0C00
0C00
7800
7000
ENDCHAR
STARTCHAR 0431
ENCODING 1073
SWIDTH 675 0
DWIDTH 15 0
BBX 14 20 0 0
BITMAP
06C0
06C0
0000
0000
E00C
601C
7018
3018
1830
1830
0C70
0C60
0660
06C0
03C0
0380
0180
0300
1F00
1E00
ENDCHAR
STARTCHAR 0432
ENCODING 1074
SWIDTH 495 0
DWIDTH 11 0
BBX 11 20 0 -5
BITMAP
1B00
1B00
0000
E060
60C0
60C0
70C0
3180
3180
1980
1B00
1B00
0F00
0E00
0E00
0C00
0C00
0C00
7800
7000
ENDCHAR
STARTCHAR 0433
ENCODING 1075
SWIDTH 675 0
DWIDTH 15 0
BBX 14 20 0 0
BITMAP
0330
0660
0440
0000
E00C
601C
7018
3018
1830
1830
0C70
0C60
0660
06C0
03C0
0380
0180
0300
1F00
1E00
ENDCHAR
STARTCHAR 0434
ENCODING 1076
SWIDTH 495 0
DWIDTH 11 0
BBX 11 21 0 -5
BITMAP
0DC0
1980
1300
0000
E060
60C0
60C0
70C0
3180
3180
1980
1B00
1B00
0F00
0E00
0E00
0C00
0C00
0C00
7800
7000
ENDCHAR
STARTCHAR 0435
ENCODING 1077
SWIDTH 720 0
DWIDTH 16 0
BBX 12 20 1 0
BITMAP
0D80
0D80
0000
0000
C030
C030
C030
C030
C030
C030
C030
E070
7FF0
1FB0
0030
0030
0030
0030
0030
0030
ENDCHAR
STARTCHAR 0436
ENCODING 1078
SWIDTH 540 0
DWIDTH 12 0
BBX 10 15 1 0
BITMAP
3300
3300
0000
C0C0
C0C0
C0C0
C0C0
C0C0
E0C0
7FC0
3FC0
00C0
00C0
00C0
00C0
ENDCHAR
STARTCHAR 0437
ENCODING 1079
SWIDTH 900 0
DWIDTH 20 0
BBX 16 20 2 0
BITMAP
0760
0760
0000
0000
C003
C003
C003
C003
C003
C003
C003
FF83
FFE3
C0E3
C073
C073
C073
C0E3
FFE3
FF83
ENDCHAR
STARTCHAR 0438
ENCODING 1080
SWIDTH 765 0
DWIDTH 17 0
BBX 13 15 2 0
BITMAP
0D80
0D80
0000
C018
C018
C018
C018
C018
FE18
FF18
C198
C198
C198
FF18
FE18
ENDCHAR
STARTCHAR 0439
ENCODING 1081
SWIDTH 990 0
DWIDTH 22 0
BBX 21 16 0 0
BITMAP
03FFF8
03FFF8
033000
063000
063000
0E3000
0C3000
0C3FF0
1C3FF0
183000
3FF000
3FF000
303000
703000
603FF8
E03FF8
ENDCHAR
STARTCHAR 043A
ENCODING 1082
SWIDTH 900 0
DWIDTH 20 0
BBX 18 12 1 0
BITMAP
3E1E00
7FFF00
61E380
C0C1C0
0180C0
3FFFC0
7FFFC0
C18000
C1C1C0
C3E180
FE7F00
7C3E00
ENDCHAR
STARTCHAR 043B
ENCODING 1083
SWIDTH 855 0
DWIDTH 19 0
BBX 15 19 2 0
BITMAP
0600
0300
0100
E00E
E01E
F01E
F01E
F036
D836
D836
D866
CC66
CC66
CCC6
C6C6
C6C6
C786
C386
C386
ENDCHAR
STARTCHAR 043C
ENCODING 1084
SWIDTH 855 0
DWIDTH 19 0
BBX 16 16 1 0
BITMAP
0300
0180
00C0
0000
CF3E
DFFF
F1C3
E1C3
E183
C183
C183
C183
C183
C183
C183
C183
ENDCHAR
STARTCHAR 043D
ENCODING 1085
SWIDTH 720 0
DWIDTH 16 0
BBX 13 20 2 0
BITMAP
1080
1880
0F00
0000
FFC0
FFF0
C030
C038
C038
C030
C070
FFE0
FFE0
C070
C030
C030
C030
C030
C038
C038
ENDCHAR
STARTCHAR 043E
ENCODING 1086
SWIDTH 315 0
DWIDTH 7 0
BBX 7 16 1 0
BITMAP
86
C4
78
00
CC
DC
F0
E0
C0
C0
C0
C0
C0
C0
C0
C0
ENDCHAR
STARTCHAR 043F
ENCODING 1087
SWIDTH 270 0
DWIDTH 6 0
BBX 7 5 -1 13
BITMAP
3C
46
C2
24
24
ENDCHAR
STARTCHAR 0440
ENCODING 1088
SWIDTH 675 0
DWIDTH 15 0
BBX 14 16 0 0
BITMAP
0380
0380
06C0
06C0
06C0
0C60
0C60
0C60
1830
1FF0
3FF8
3018
3018
601C
600C
E00C
ENDCHAR
STARTCHAR 0441
ENCODING 1089
SWIDTH 720 0
DWIDTH 16 0
BBX 13 16 2 0
BITMAP
FFC0
FFE0
C070
C030
C030
C030
C060
FFC0
FFE0
C070
C030
C038
C030
C070
FFE0
FFC0
ENDCHAR
STARTCHAR 0442
ENCODING 1090
SWIDTH 630 0
DWIDTH 14 0
BBX 11 16 2 0
BITMAP
FFE0
FFE0
C000
C000
C000
C000
C000
C000
C000
C000
C000
C000
C000
C000
C000
C000
ENDCHAR
STARTCHAR 0443
ENCODING 1091
SWIDTH 720 0
DWIDTH 16 0
BBX 14 16 1 0
BITMAP
0300
0780
0780
0DC0
0CC0
0CC0
1860
1860
3030
3030
3030
6018
6018
C00C
FFFC
FFFC
ENDCHAR
STARTCHAR 0444
ENCODING 1092
SWIDTH 675 0
DWIDTH 15 0
BBX 11 16 2 0
BITMAP
FFE0
FFE0
C000
C000
C000
C000
C000
FFE0
FFE0
C000
C000
C000
C000
C000
FFE0
FFE0
ENDCHAR
STARTCHAR 0445
ENCODING 1093
SWIDTH 630 0
DWIDTH 14 0
BBX 12 16 1 0
BITMAP
FFF0
FFF0
0060
00C0
01C0
0380
0300
0600
0E00
1C00
3800
3000
6000
E000
FFF0
FFF0
ENDCHAR
STARTCHAR 0446
ENCODING 1094
SWIDTH 720 0
DWIDTH 16 0
BBX 12 16 2 0
BITMAP
C030
C030
C030
C030
C030
C030
C030
FFF0
FFF0
C030
C030
C030
C030
C030
C030
C030
ENDCHAR
STARTCHAR 0447
ENCODING 1095
SWIDTH 765 0
DWIDTH 17 0
BBX 15 16 1 0
BITMAP
07E0
1FF0
3838
700C
600C
6006
C006
CFE6
CFE6
C006
E006
600C
701C
3838
1FF0
07E0
ENDCHAR
STARTCHAR 0448
ENCODING 1096
SWIDTH 270 0
DWIDTH 6 0
BBX 2 16 2 0
BITMAP
C0
C0
C0
C0
C0
C0
C0
C0
C0
C0
C0
C0
C0
C0
C0
C0
ENDCHAR
STARTCHAR 0449
ENCODING 1097
SWIDTH 675 0
DWIDTH 15 0
BBX 12 16 2 0
BITMAP
C070
C0E0
C1C0
C380
C700
CE00
DC00
FE00
F600
E700
C380
C180
C1C0
C0E0
C070
C030
ENDCHAR
STARTCHAR 044A
ENCODING 1098
SWIDTH 675 0
DWIDTH 15 0
BBX 13 16 1 0
BITMAP
0700
0700
0F00
0D80
0D80
19C0
18C0
18C0
30E0
3060
7060
6070
6030
E030
C038
C018
ENDCHAR
STARTCHAR 044B
ENCODING 1099
SWIDTH 900 0
DWIDTH 20 0
BBX 16 16 2 0
BITMAP
E007
F00F
F00F
F00B
D81B
D81B
D833
CC33
CC33
C463
C663
C643
C2C3
C3C3
C383
C183
ENDCHAR
STARTCHAR 044C
ENCODING 1100
SWIDTH 720 0
DWIDTH 16 0
BBX 12 16 2 0
BITMAP
E030
E030
F030
F030
D830
DC30
CC30
C630
C630
C330
C1B0
C1B0
C0F0
C0F0
C070
C030
ENDCHAR
STARTCHAR 044D
ENCODING 1101
SWIDTH 630 0
DWIDTH 14 0
BBX 12 16 1 0
BITMAP
FFE0
FFE0
0000
0000
0000
0000
0000
7FE0
7FE0
0000
0000
0000
0000
0000
FFF0
FFF0
ENDCHAR
STARTCHAR 044E
ENCODING 1102
SWIDTH 765 0
DWIDTH 17 0
BBX 15 16 1 0
BITMAP
07E0
1FF0
3838
700C
600C
6006
C006
C006
C006
C006
E006
600C
701C
3838
1FF0
07E0
ENDCHAR
STARTCHAR 044F
ENCODING 1103
SWIDTH 720 0
DWIDTH 16 0
BBX 12 16 2 0
BITMAP
FFF0
FFF0
C030
C030
C030
C030
C030
C030
C030
C030
C030
C030
C030
C030
C030
C030
ENDCHAR
STARTCHAR 0450
ENCODING 1104
SWIDTH 675 0
DWIDTH 15 0
BBX 12 16 2 0
BITMAP
FF80
FFE0
C060
C070
C030
C030
C070
C0E0
FFE0
FF80
C000
C000
C000
C000
C000
C000
ENDCHAR
STARTCHAR 0451
ENCODING 1105
SWIDTH 630 0
DWIDTH 14 0
BBX 12 16 1 0
BITMAP
FFE0
FFE0
6000
3000
1800
0C00
0600
0300
0300
0600
0C00
1800
3000
6000
FFF0
FFF0
ENDCHAR
STARTCHAR 0452
ENCODING 1106
SWIDTH 630 0
DWIDTH 14 0
BBX 12 16 1 0
BITMAP
FFF0
FFF0
0600
0600
0600
0600
0600
0600
0600
0600
0600
0600
0600
0600
0600
0600
ENDCHAR
STARTCHAR 0453
ENCODING 1107
SWIDTH 675 0
DWIDTH 15 0
BBX 13 16 1 0
BITMAP
C018
E030
7070
3060
38E0
18C0
0D80
0F80
0700
0300
0300
0300
0300
0300
0300
0300
ENDCHAR
STARTCHAR 0454
ENCODING 1108
SWIDTH 720 0
DWIDTH 16 0
BBX 14 16 1 0
BITMAP
0300
0300
1FE0
3FF0
7338
E31C
C30C
C30C
C30C
C30C
E31C
7338
3FF0
1FE0
0300
0300
ENDCHAR
STARTCHAR 0455
ENCODING 1109
SWIDTH 675 0
DWIDTH 15 0
BBX 13 16 1 0
BITMAP
E038
7070
3060
38E0
19C0
0D80
0F80
0700
0700
0F80
1DC0
18C0
30E0
7070
6030
E038
ENDCHAR
STARTCHAR 0456
ENCODING 1110
SWIDTH 810 0
DWIDTH 18 0
BBX 16 16 1 0
BITMAP
E183
E183
E183
E183
E183
E183
E183
E183
6183
6187
798E
3FFC
0FF0
0180
0180
0180
ENDCHAR
STARTCHAR 0457
ENCODING 1111
SWIDTH 765 0
DWIDTH 17 0
BBX 15 16 1 0
BITMAP
07E0
1FF8
383C
700C
600E
E006
C006
C006
C006
E006
600E
600C
3018
1830
FC7E
FC7E
ENDCHAR
STARTCHAR 0458
ENCODING 1112
SWIDTH 270 0
DWIDTH 6 0
BBX 6 19 0 0
BITMAP
CC
CC
00
30
30
30
30
30
30
30
30
30
30
30
30
30
30
30
30
ENDCHAR
STARTCHAR 0459
ENCODING 1113
SWIDTH 675 0
DWIDTH 15 0
BBX 13 19 1 0
BITMAP
1980
1980
0000
C018
E038
6030
3060
38E0
18C0
0D80
0F80
0700
0300
0300
0300
0300
0300
0300
0300
ENDCHAR
STARTCHAR 045A
ENCODING 1114
SWIDTH 630 0
DWIDTH 14 0
BBX 12 12 1 0
BITMAP
1E60
7F60
61E0
E0E0
C0E0
C060
C060
C0E0
E0E0
71E0
7F70
1E70
ENDCHAR
STARTCHAR 045B
ENCODING 1115
SWIDTH 630 0
DWIDTH 14 0
BBX 10 20 2 -4
BITMAP
3E00
7F80
E180
C1C0
C0C0
C180
C180
CF00
CF80
C1C0
C0C0
C0C0
C0C0
E1C0
FF80
DF00
C000
C000
C000
C000
ENDCHAR
STARTCHAR 045C
ENCODING 1116
SWIDTH 540 0
DWIDTH 12 0
BBX 12 16 0 -4
BITMAP
E030
E060
3060
30E0
18C0
18C0
1D80
0D80
0F00
0700
0700
0600
0600
0600
0600
0600
ENDCHAR
STARTCHAR 045D
ENCODING 1117
SWIDTH 630 0
DWIDTH 14 0
BBX 11 16 1 0
BITMAP
7FC0
7FC0
3800
0C00
0700
1F80
30C0
6060
C060
C060
C060
C060
E060
70E0
3FC0
1F00
ENDCHAR
STARTCHAR 045E
ENCODING 1118
SWIDTH 540 0
DWIDTH 12 0
BBX 10 12 1 0
BITMAP
1E00
7F80
6180
60C0
6000
3C00
7C00
6000
C0C0
E1C0
7F80
3E00
ENDCHAR
STARTCHAR 045F
ENCODING 1119
SWIDTH 450 0
DWIDTH 10 0
BBX 9 20 1 -4
BITMAP
7F80
7F00
0600
0C00
1800
3000
6000
6000
C000
C000
C000
C000
C000
E000
7F00
3F80
0180
0180
0100
0300
ENDCHAR
STARTCHAR 0460
ENCODING 1120
SWIDTH 630 0
DWIDTH 14 0
BBX 11 16 1 -4
BITMAP
C780
FFC0
70C0
70E0
6060
6060
6060
6060
6060
6060
6060
6060
0060
0060
0060
0060
ENDCHAR
STARTCHAR 0461
ENCODING 1121
SWIDTH 630 0
DWIDTH 14 0
BBX 10 16 2 0
BITMAP
1E00
7F00
6180
C180
C0C0
C0C0
C0C0
FFC0
FFC0
C0C0
C0C0
C0C0
C1C0
E180
7F00
3E00
ENDCHAR
STARTCHAR 0462
ENCODING 1122
SWIDTH 270 0
DWIDTH 6 0
BBX 4 12 2 0
BITMAP
C0
C0
C0
C0
C0
C0
C0
C0
C0
C0
F0
70
ENDCHAR
STARTCHAR 0463
ENCODING 1123
SWIDTH 540 0
DWIDTH 12 0
BBX 10 12 2 0
BITMAP
C380
C700
CE00
DC00
F800
FC00
EC00
C600
C700
C300
C180
C1C0
ENDCHAR
STARTCHAR 0464
ENCODING 1124
SWIDTH 540 0
DWIDTH 12 0
BBX 11 16 1 0
BITMAP
7000
7800
1800
1800
0C00
0C00
1E00
1E00
3600
3300
3300
6180
6180
E180
C0E0
C0E0
ENDCHAR
STARTCHAR 0465
ENCODING 1125
SWIDTH 630 0
DWIDTH 14 0
BBX 11 16 2 -4
BITMAP
C0C0
C0C0
C0C0
C0C0
C0C0
C0C0
C0C0
C0C0
C1C0
E1C0
FFE0
DEE0
C000
C000
C000
C000
ENDCHAR
STARTCHAR 0466
ENCODING 1126
SWIDTH 540 0
DWIDTH 12 0
BBX 10 12 1 0
BITMAP
C0C0
C0C0
60C0
6180
7180
3180
3300
1B00
1B00
1E00
0E00
0C00
ENDCHAR
STARTCHAR 0467
ENCODING 1127
SWIDTH 495 0
DWIDTH 11 0
BBX 10 20 1 -4
BITMAP
7F80
7F80
3000
2000
6000
6000
3000
1F80
3F80
6000
C000
C000
C000
6000
7F80
1FC0
00C0
00C0
0080
0180
ENDCHAR
STARTCHAR 0468
ENCODING 1128
SWIDTH 630 0
DWIDTH 14 0
BBX 11 12 1 0
BITMAP
1F00
3FC0
70C0
6060
E060
C060
C060
E060
6060
70C0
3FC0
1F00
ENDCHAR
STARTCHAR 0469
ENCODING 1129
SWIDTH 630 0
DWIDTH 14 0
BBX 10 16 2 -4
BITMAP
1F00
7F80
61C0
C0C0
C0C0
C0C0
C0C0
C0C0
C0C0
E1C0
FF80
DE00
C000
C000
C000
C000
ENDCHAR
STARTCHAR 046A
ENCODING 1130
SWIDTH 540 0
DWIDTH 12 0
BBX 10 16 1 -4
BITMAP
1F00
7F80
61C0
E0C0
C0C0
C000
C000
C000
E000
7800
1F80
03C0
00C0
0080
0180
0180
ENDCHAR
STARTCHAR 046B
ENCODING 1131
SWIDTH 630 0
DWIDTH 14 0
BBX 12 12 1 0
BITMAP
1FF0
3FF0
70C0
6060
E060
C060
C060
E060
6060
70E0
3FC0
1F00
ENDCHAR
STARTCHAR 046C
ENCODING 1132
SWIDTH 495 0
DWIDTH 11 0
BBX 9 12 1 0
BITMAP
FF80
FF80
0C00
0C00
0C00
0C00
0C00
0C00
0C00
0C00
0E00
0E00
ENDCHAR
STARTCHAR 046D
ENCODING 1133
SWIDTH 630 0
DWIDTH 14 0
BBX 10 12 2 0
BITMAP
C0C0
C0C0
C0C0
C0C0
C0C0
C0C0
C0C0
C0C0
C180
E180
7F80
3E00
ENDCHAR
STARTCHAR 046E
ENCODING 1134
SWIDTH 720 0
DWIDTH 16 0
BBX 14 18 1 -4
BITMAP
0300
0300
0FC0
3FF0
7338
6318
C30C
C30C
C30C
C30C
6318
7338
3FF0
0FC0
0300
0300
0300
0300
ENDCHAR
STARTCHAR 046F
ENCODING 1135
SWIDTH 540 0
DWIDTH 12 0
BBX 12 16 0 -4
BITMAP
E060
F060
30C0
39C0
1980
0F80
0F00
0600
0600
0F00
1F80
1980
30C0
30C0
6070
E030
ENDCHAR
STARTCHAR 0470
ENCODING 1136
SWIDTH 720 0
DWIDTH 16 0
BBX 12 18 2 -4
BITMAP
0600
0600
0600
C630
C630
C630
C630
C630
C630
C630
C630
E630
7FE0
1F80
0600
0600
0600
0600
ENDCHAR
STARTCHAR 0471
ENCODING 1137
SWIDTH 765 0
DWIDTH 17 0
BBX 15 12 1 0
BITMAP
3030
3018
600C
630C
C30C
C306
C306
C306
E38C
638C
7EFC
3C70
ENDCHAR
STARTCHAR 0472
ENCODING 1138
SWIDTH 270 0
DWIDTH 6 0
BBX 6 15 0 0
BITMAP
CC
CC
00
30
30
30
30
30
30
30
30
30
30
3C
3C
ENDCHAR
STARTCHAR 0473
ENCODING 1139
SWIDTH 630 0
DWIDTH 14 0
BBX 10 15 2 0
BITMAP
3300
3300
0000
C0C0
C0C0
C0C0
C0C0
C0C0
C0C0
C0C0
C0C0
C180
E180
7F80
3E00
ENDCHAR
STARTCHAR 0474
ENCODING 1140
SWIDTH 270 0
DWIDTH 6 0
BBX 3 3 2 5
BITMAP
C0
E0
C0
ENDCHAR
STARTCHAR 0475
ENCODING 1141
SWIDTH 270 0
DWIDTH 6 0
BBX 7 3 0 13
BITMAP
3C
46
82
ENDCHAR
STARTCHAR 0476
ENCODING 1142
SWIDTH 0 0
DWIDTH 0 0
BBX 4 5 -8 -5
BITMAP
C0
C0
C0
C0
F0
ENDCHAR
STARTCHAR 0477
ENCODING 1143
SWIDTH 270 0
DWIDTH 6 0
BBX 4 5 2 -5
BITMAP
C0
C0
C0
C0
F0
ENDCHAR
STARTCHAR 0478
ENCODING 1144
SWIDTH 180 0
DWIDTH 4 0
BBX 2 4 1 11
BITMAP
C0
C0
40
C0
ENDCHAR
STARTCHAR 0479
ENCODING 1145
SWIDTH 180 0
DWIDTH 4 0
BBX 2 4 1 11
BITMAP
C0
C0
40
C0
ENDCHAR
STARTCHAR 047A
ENCODING 1146
SWIDTH 0 0
DWIDTH 0 0
BBX 4 3 -8 13
BITMAP
C0
60
30
ENDCHAR
STARTCHAR 047B
ENCODING 1147
SWIDTH 0 0
DWIDTH 0 0
BBX 4 3 -8 13
BITMAP
70
60
C0
ENDCHAR
STARTCHAR 047C
ENCODING 1148
SWIDTH 180 0
DWIDTH 4 0
BBX 2 4 1 11
BITMAP
C0
C0
80
40
ENDCHAR
STARTCHAR 047D
ENCODING 1149
SWIDTH 360 0
DWIDTH 8 0
BBX 7 6 0 13
BITMAP
0C
0C
08
10
C6
C6
ENDCHAR
STARTCHAR 047E
ENCODING 1150
SWIDTH 360 0
DWIDTH 8 0
BBX 7 6 0 13
BITMAP
60
20
30
10
C6
C6
ENDCHAR
STARTCHAR 047F
ENCODING 1151
SWIDTH 360 0
DWIDTH 8 0
BBX 7 4 1 11
BITMAP
C6
CC
48
D8
ENDCHAR
STARTCHAR 0480
ENCODING 1152
SWIDTH 405 0
DWIDTH 9 0
BBX 7 4 1 11
BITMAP
C6
CC
88
58
ENDCHAR
STARTCHAR 0481
ENCODING 1153
SWIDTH 270 0
DWIDTH 6 0
BBX 3 4 1 11
BITMAP
C0
C0
40
20
ENDCHAR
STARTCHAR 0482
ENCODING 1154
SWIDTH 270 0
DWIDTH 6 0
BBX 3 4 1 11
BITMAP
60
40
C0
80
ENDCHAR
STARTCHAR 0483
ENCODING 1155
SWIDTH 405 0
DWIDTH 9 0
BBX 7 4 1 11
BITMAP
C8
CC
44
C6
ENDCHAR
STARTCHAR 0484
ENCODING 1156
SWIDTH 405 0
DWIDTH 9 0
BBX 7 6 1 11
BITMAP
3C
46
9A
18
10
10
ENDCHAR
STARTCHAR 0485
ENCODING 1157
SWIDTH 405 0
DWIDTH 9 0
BBX 7 4 1 11
BITMAP
CC
CC
84
42
ENDCHAR
STARTCHAR 0486
ENCODING 1158
SWIDTH 405 0
DWIDTH 9 0
BBX 7 6 1 11
BITMAP
3C
46
92
10
10
08
ENDCHAR
STARTCHAR 0487
ENCODING 1159
SWIDTH 900 0
DWIDTH 20 0
BBX 18 16 1 0
BITMAP
E06000
E06000
F06000
F06000
D86000
D86780
CC6480
CC6CC0
C66840
C66840
C36CC0
C36480
C1E780
C0E000
C0E000
C06FC0
ENDCHAR
STARTCHAR 0488
ENCODING 1160
SWIDTH 765 0
DWIDTH 17 0
BBX 15 16 1 0
BITMAP
FC7E
FC7E
1C30
3018
600C
600E
E006
C006
C006
C006
E006
600E
700C
383C
1FF8
07E0
ENDCHAR
STARTCHAR 0489
ENCODING 1161
SWIDTH 765 0
DWIDTH 17 0
BBX 17 15 0 0
BITMAP
07E080
1FFD80
781F00
600700
E00700
C00F00
C00980
C00180
C00180
C00300
E00300
600700
381E00
1FFC00
07F000
ENDCHAR
STARTCHAR 048A
ENCODING 1162
SWIDTH 225 0
DWIDTH 5 0
BBX 3 6 1 10
BITMAP
20
40
40
E0
E0
E0
ENDCHAR
STARTCHAR 048B
ENCODING 1163
SWIDTH 225 0
DWIDTH 5 0
BBX 2 6 2 10
BITMAP
C0
C0
C0
40
40
80
ENDCHAR
STARTCHAR 048C
ENCODING 1164
SWIDTH 540 0
DWIDTH 12 0
BBX 8 16 3 0
BITMAP
C3
C3
C3
C3
C3
C3
C3
C3
C3
83
83
82
00
00
C3
C3
ENDCHAR
STARTCHAR 048D
ENCODING 1165
SWIDTH 855 0
DWIDTH 19 0
BBX 15 16 2 0
BITMAP
3E06
7F06
E386
C186
C186
0186
0386
0706
0E06
0C06
1806
1806
0000
0000
1C06
1C06
ENDCHAR
STARTCHAR 048E
ENCODING 1166
SWIDTH 855 0
DWIDTH 19 0
BBX 15 16 3 0
BITMAP
C1F0
C3FC
C70C
C60C
C60E
C00C
C01C
C038
C070
8060
8060
8060
0000
0000
C060
C060
ENDCHAR
STARTCHAR 048F
ENCODING 1167
SWIDTH 540 0
DWIDTH 12 0
BBX 10 18 1 0
BITMAP
7F00
0000
0C00
1E00
3300
0000
1F00
7F80
61C0
C0C0
C0C0
FFC0
FFC0
C000
C0C0
61C0
7F80
1F00
ENDCHAR
STARTCHAR 0490
ENCODING 1168
SWIDTH 540 0
DWIDTH 12 0
BBX 10 20 1 0
BITMAP
3300
1E00
0C00
0000
0E00
1E00
3300
0000
1F00
7F80
61C0
C0C0
C0C0
FFC0
FFC0
C000
C0C0
61C0
7F80
1F00
ENDCHAR
STARTCHAR 0491
ENCODING 1169
SWIDTH 675 0
DWIDTH 15 0
BBX 13 22 1 0
BITMAP
0C00
0600
0200
0000
1FC0
0000
0700
0700
0D80
0D80
0D80
18C0
18C0
10C0
3060
3FE0
7FF0
6030
6030
C038
C018
C018
ENDCHAR
STARTCHAR 0492
ENCODING 1170
SWIDTH 540 0
DWIDTH 12 0
BBX 11 18 1 0
BITMAP
1800
0800
0C00
0000
3F80
0000
1F00
7F80
6180
40C0
00C0
3FC0
7EC0
E0C0
C1C0
C3C0
FEE0
3CE0
ENDCHAR
STARTCHAR 0493
ENCODING 1171
SWIDTH 540 0
DWIDTH 12 0
BBX 11 21 1 -5
BITMAP
0700
0600
0C00
0000
1F00
7F80
6180
40C0
00C0
3FC0
7EC0
E0C0
C1C0
C3C0
FEE0
3CE0
0040
0180
0180
01E0
00E0
ENDCHAR
STARTCHAR 0494
ENCODING 1172
SWIDTH 675 0
DWIDTH 15 0
BBX 12 21 2 -5
BITMAP
FFF0
FFF0
C000
C000
C000
C000
C000
FFE0
FFE0
C000
C000
C000
C000
C000
FFF0
FFF0
0000
0000
0400
0400
0400
ENDCHAR
STARTCHAR 0495
ENCODING 1173
SWIDTH 540 0
DWIDTH 12 0
BBX 10 17 1 -5
BITMAP
1F00
7F80
61C0
C0C0
C0C0
FFC0
FFC0
C000
C0C0
61C0
7F80
1F00
0000
0000
0C00
0C00
0C00
ENDCHAR
STARTCHAR 0496
ENCODING 1174
SWIDTH 675 0
DWIDTH 15 0
BBX 12 24 2 -4
BITMAP
1800
0C00
0600
0000
FFF0
FFF0
C000
C000
C000
C000
C000
FFE0
FFE0
C000
C000
C000
C000
C000
FFF0
FFF0
0000
0600
0600
0600
ENDCHAR
STARTCHAR 0497
ENCODING 1175
SWIDTH 540 0
DWIDTH 12 0
BBX 10 21 1 -5
BITMAP
3800
1800
0C00
0000
1F00
7F80
61C0
C0C0
C0C0
FFC0
FFC0
C000
C0C0
61C0
7F80
1F00
0000
0000
0400
0400
0400
ENDCHAR
STARTCHAR 0498
ENCODING 1176
SWIDTH 675 0
DWIDTH 15 0
BBX 12 25 2 -5
BITMAP
0300
0600
0400
0000
FFF0
FFF0
C000
C000
C000
C000
C000
FFE0
FFE0
C000
C000
C000
C000
C000
FFF0
FFF0
0000
0000
0400
0400
0400
ENDCHAR
STARTCHAR 0499
ENCODING 1177
SWIDTH 540 0
DWIDTH 12 0
BBX 10 21 1 -5
BITMAP
0700
0600
0C00
0000
1F00
7F80
61C0
C0C0
C0C0
FFC0
FFC0
C000
C0C0
61C0
7F80
1F00
0000
0000
0C00
0C00
0C00
ENDCHAR
STARTCHAR 049A
ENCODING 1178
SWIDTH 270 0
DWIDTH 6 0
BBX 7 22 0 0
BITMAP
60
30
10
00
FE
00
30
30
30
30
30
30
30
30
30
30
30
30
30
30
30
30
ENDCHAR
STARTCHAR 049B
ENCODING 1179
SWIDTH 270 0
DWIDTH 6 0
BBX 7 18 0 0
BITMAP
E0
60
30
00
FE
00
30
30
30
30
30
30
30
30
30
30
30
30
ENDCHAR
STARTCHAR 049C
ENCODING 1180
SWIDTH 225 0
DWIDTH 5 0
BBX 4 20 1 0
BITMAP
30
60
40
00
C0
C0
00
00
C0
C0
C0
C0
C0
C0
C0
C0
C0
C0
C0
C0
ENDCHAR
STARTCHAR 049D
ENCODING 1181
SWIDTH 765 0
DWIDTH 17 0
BBX 15 21 1 -5
BITMAP
07E0
1FF8
383C
700C
600E
E006
C006
C006
C006
C006
C006
E00E
700C
3838
1FF0
0FE0
0000
0000
0100
0100
0100
ENDCHAR
STARTCHAR 049E
ENCODING 1182
SWIDTH 540 0
DWIDTH 12 0
BBX 10 17 1 -5
BITMAP
1F00
7F80
61C0
C0C0
C0C0
C0C0
C0C0
C0C0
C0C0
E1C0
7F80
3E00
0000
0000
0C00
0C00
0C00
ENDCHAR
STARTCHAR 049F
ENCODING 1183
SWIDTH 765 0
DWIDTH 17 0
BBX 15 25 1 -5
BITMAP
0600
0300
0100
0000
07E0
1FF8
383C
700C
600E
E006
C006
C006
C006
C006
C006
E00E
700C
3838
1FF0
0FE0
0000
0000
0100
0100
0100
ENDCHAR
STARTCHAR 04A0
ENCODING 1184
SWIDTH 540 0
DWIDTH 12 0
BBX 10 21 1 -5
BITMAP
3800
1800
0C00
0000
1F00
7F80
61C0
C0C0
C0C0
C0C0
C0C0
C0C0
C0C0
E1C0
7F80
3E00
0000
0000
0C00
0C00
0C00
ENDCHAR
STARTCHAR 04A1
ENCODING 1185
SWIDTH 765 0
DWIDTH 17 0
BBX 15 25 1 -5
BITMAP
00C0
0180
0100
0000
07E0
1FF8
383C
700C
600E
E006
C006
C006
C006
C006
C006
E00E
700C
3838
1FF0
0FE0
0000
0000
0100
0100
0100
ENDCHAR
STARTCHAR 04A2
ENCODING 1186
SWIDTH 540 0
DWIDTH 12 0
BBX 10 21 1 -5
BITMAP
0600
0400
0C00
0000
1F00
7F80
61C0
C0C0
C0C0
C0C0
C0C0
C0C0
C0C0
E1C0
7F80
3E00
0000
0000
0C00
0C00
0C00
ENDCHAR
STARTCHAR 04A3
ENCODING 1187
SWIDTH 675 0
DWIDTH 15 0
BBX 13 21 1 -5
BITMAP
1F80
3FE0
7070
6030
6030
6000
7800
3FC0
0FF0
0070
0038
C018
E038
7070
3FE0
1FC0
0000
0000
0200
0200
0200
ENDCHAR
STARTCHAR 04A4
ENCODING 1188
SWIDTH 495 0
DWIDTH 11 0
BBX 9 17 1 -5
BITMAP
3E00
7F00
C380
C180
E000
7E00
1F80
0180
C180
C180
7F80
3E00
0000
0000
0800
0800
0800
ENDCHAR
STARTCHAR 04A5
ENCODING 1189
SWIDTH 720 0
DWIDTH 16 0
BBX 12 22 2 0
BITMAP
1C00
0C00
0600
0000
1FC0
0000
C030
C030
C030
C030
C030
C030
C030
C030
C030
C030
C030
C030
E070
70E0
3FE0
1F80
ENDCHAR
STARTCHAR 04A6
ENCODING 1190
SWIDTH 540 0
DWIDTH 12 0
BBX 10 18 1 0
BITMAP
3800
1800
0C00
0000
3F80
0000
C0C0
C0C0
C0C0
C0C0
C0C0
C0C0
C0C0
C0C0
C1C0
63C0
7EC0
3CC0
ENDCHAR
STARTCHAR 04A7
ENCODING 1191
SWIDTH 495 0
DWIDTH 11 0
BBX 10 15 0 -3
BITMAP
60C0
71C0
3180
1B00
1F00
0E00
0E00
1F00
3B00
3180
71C0
E0C0
0000
0C00
0C00
ENDCHAR
STARTCHAR 04A8
ENCODING 1192
SWIDTH 855 0
DWIDTH 19 0
BBX 16 20 2 0
BITMAP
1080
1880
0F00
0003
C033
C03F
C030
C030
C030
C030
C030
C030
C030
C030
C030
C030
E070
70E0
3FE0
1F80
ENDCHAR
STARTCHAR 04A9
ENCODING 1193
SWIDTH 720 0
DWIDTH 16 0
BBX 14 16 1 0
BITMAP
2100
3100
1E00
0000
C008
C0DC
C0F8
C0C0
C0C0
C0C0
C0C0
C0C0
E1C0
63C0
7FC0
3CC0
ENDCHAR
STARTCHAR 04AA
ENCODING 1194
SWIDTH 765 0
DWIDTH 17 0
BBX 14 17 1 -1
BITMAP
07C0
1FF0
3878
7018
601C
C00C
000C
000C
FFFC
C00C
C00C
E01C
601C
7038
3870
1FE0
0FC0
ENDCHAR
STARTCHAR 04AB
ENCODING 1195
SWIDTH 540 0
DWIDTH 12 0
BBX 11 17 0 -5
BITMAP
6780
6FC0
78E0
7060
6060
6060
6060
6060
6060
6060
6060
6060
6000
6000
6000
E000
C000
ENDCHAR
STARTCHAR 04AC
ENCODING 1196
SWIDTH 720 0
DWIDTH 16 0
BBX 14 21 0 -5
BITMAP
380C
380C
3C0C
3C0C
360C
370C
330C
318C
318C
30CC
30EC
306C
303C
303C
301C
300C
3000
3000
3000
E000
E000
ENDCHAR
STARTCHAR 04AD
ENCODING 1197
SWIDTH 540 0
DWIDTH 12 0
BBX 10 16 1 -4
BITMAP
CF00
DF80
F1C0
E0C0
C0C0
C0C0
C0C0
C0C0
C0C0
C0C0
C0C0
C0C0
00C0
00C0
00C0
00C0
ENDCHAR
STARTCHAR 04AE
ENCODING 1198
SWIDTH 855 0
DWIDTH 19 0
BBX 16 17 1 -5
BITMAP
CF3E
DFFE
F1C3
E1C3
E183
C183
C183
C183
C183
C183
C183
C183
0003
0003
0003
000F
000E
ENDCHAR
STARTCHAR 04AF
ENCODING 1199
SWIDTH 495 0
DWIDTH 11 0
BBX 8 12 2 0
BITMAP
C0
C0
C0
C0
C0
C0
C0
C0
C0
C0
FF
FF
ENDCHAR
STARTCHAR 04B0
ENCODING 1200
SWIDTH 540 0
DWIDTH 12 0
BBX 9 16 2 0
BITMAP
0080
0080
0080
0080
0080
0080
3F80
7F80
C080
C080
8080
8080
C080
C080
7F80
3F80
ENDCHAR
STARTCHAR 04B1
ENCODING 1201
SWIDTH 450 0
DWIDTH 10 0
BBX 9 17 1 0
BITMAP
0180
0180
0180
0180
0180
3D80
7F80
6380
C380
C180
C180
C180
C180
C180
4380
6380
3D80
ENDCHAR
STARTCHAR 04B2
ENCODING 1202
SWIDTH 495 0
DWIDTH 11 0
BBX 11 16 0 0
BITMAP
3FE0
3FE0
2000
2000
2000
2000
2000
FC00
FC00
2000
2000
2000
2000
2000
2000
2000
ENDCHAR
STARTCHAR 04B3
ENCODING 1203
SWIDTH 360 0
DWIDTH 8 0
BBX 7 11 0 0
BITMAP
7E
60
60
60
F8
F8
60
60
60
60
60
ENDCHAR
STARTCHAR 04B4
ENCODING 1204
SWIDTH 540 0
DWIDTH 12 0
BBX 10 18 1 -1
BITMAP
1E00
3F00
6180
4080
C0C0
C000
4000
6000
3C00
7C00
E000
C000
C000
C0C0
C0C0
6180
7F80
1E00
ENDCHAR
STARTCHAR 04B5
ENCODING 1205
SWIDTH 765 0
DWIDTH 17 0
BBX 14 17 1 -1
BITMAP
07C0
1FF0
3878
7018
601C
C00C
000C
000C
FFFC
C00C
C00C
E01C
601C
7038
3870
1FE0
0FC0
ENDCHAR
STARTCHAR 04B6
ENCODING 1206
SWIDTH 540 0
DWIDTH 12 0
BBX 10 12 1 0
BITMAP
1F00
7F80
61C0
C0C0
00C0
FFC0
FFC0
C0C0
C0C0
61C0
7F80
1E00
ENDCHAR
STARTCHAR 04B7
ENCODING 1207
SWIDTH 810 0
DWIDTH 18 0
BBX 16 18 1 -1
BITMAP
07E0
1FF8
383C
700C
600E
E006
C006
C003
FFFF
FFFF
C003
C006
E006
600E
700C
383C
1FF0
07E0
ENDCHAR
STARTCHAR 04B8
ENCODING 1208
SWIDTH 585 0
DWIDTH 13 0
BBX 11 13 1 -1
BITMAP
1F00
7F80
61C0
C0C0
C0C0
FFC0
FFE0
C0C0
C0C0
E0C0
71C0
7F80
1F00
ENDCHAR
STARTCHAR 04B9
ENCODING 1209
SWIDTH 765 0
DWIDTH 17 0
BBX 15 16 1 0
BITMAP
07E0
1FF8
383C
700C
600E
C006
C006
FFFE
FFFE
C006
C006
E00E
700C
3838
1FF0
0FE0
ENDCHAR
STARTCHAR 04BA
ENCODING 1210
SWIDTH 315 0
DWIDTH 7 0
BBX 5 3 1 -4
BITMAP
70
D8
88
ENDCHAR
STARTCHAR 04BB
ENCODING 1211
SWIDTH 990 0
DWIDTH 22 0
BBX 21 5 0 -3
BITMAP
800008
600038
3C01E0
0FFF80
01FE00
ENDCHAR
STARTCHAR 04BC
ENCODING 1212
SWIDTH 990 0
DWIDTH 22 0
BBX 21 5 0 12
BITMAP
01FE00
0FFF80
3C01E0
600038
800008
ENDCHAR
STARTCHAR 04BD
ENCODING 1213
SWIDTH 1125 0
DWIDTH 25 0
BBX 25 23 0 -5
BITMAP
1FE00380
7FFE0700
F03FFE00
C003FC00
00000000
00000000
6780F600
6FC1FE00
78E30E00
70670600
60660600
60660600
60660600
60660600
60660600
60630E00
6063FE00
6060F600
00000600
00000600
00070E00
0003FC00
0001F800
ENDCHAR
STARTCHAR 04BE
ENCODING 1214
SWIDTH 0 0
DWIDTH 0 0
BBX 26 4 -19 14
BITMAP
1FE001C0
3FFE0380
703FFF00
E001FC00
ENDCHAR
STARTCHAR 04BF
ENCODING 1215
SWIDTH 0 0
DWIDTH 0 0
BBX 21 5 -17 12
BITMAP
01FE00
0FFF80
3C01E0
600038
800008
ENDCHAR
STARTCHAR 04C0
ENCODING 1216
SWIDTH 0 0
DWIDTH 0 0
BBX 21 5 -17 12
BITMAP
800008
700038
3C01E0
0FFF80
01FE00
ENDCHAR
STARTCHAR 04C1
ENCODING 1217
SWIDTH 0 0
DWIDTH 0 0
BBX 21 1 -17 14
BITMAP
FFFFF8
ENDCHAR
STARTCHAR 04C2
ENCODING 1218
SWIDTH 0 0
DWIDTH 0 0
BBX 21 1 -17 -3
BITMAP
FFFFF8
ENDCHAR
STARTCHAR 04C3
ENCODING 1219
SWIDTH 765 0
DWIDTH 17 0
BBX 14 21 1 -1
BITMAP
0CC0
0CC0
0000
0000
07C0
1FF0
3878
7018
601C
C00C
000C
000C
FFFC
C00C
C00C
E01C
601C
7038
3870
1FE0
0FC0
ENDCHAR
STARTCHAR 04C4
ENCODING 1220
SWIDTH 540 0
DWIDTH 12 0
BBX 10 16 1 0
BITMAP
3300
3300
0000
0000
1F00
7F80
61C0
C0C0
00C0
FFC0
FFC0
C0C0
C0C0
61C0
7F80
1E00
ENDCHAR
STARTCHAR 04C5
ENCODING 1221
SWIDTH 810 0
DWIDTH 18 0
BBX 16 21 1 -1
BITMAP
0660
0660
0000
07E0
1FF8
383C
700C
600E
E006
C006
C003
FFFF
FFFF
C003
C006
E006
600E
700C
383C
1FF0
07E0
ENDCHAR
STARTCHAR 04C6
ENCODING 1222
SWIDTH 585 0
DWIDTH 13 0
BBX 11 17 1 -1
BITMAP
3300
3300
0000
0000
1F00
7F80
61C0
C0C0
C0C0
FFC0
FFE0
C0C0
C0C0
E0C0
71C0
7F80
1F00
ENDCHAR
STARTCHAR 04C7
ENCODING 1223
SWIDTH 270 0
DWIDTH 6 0
BBX 3 4 1 11
BITMAP
60
40
C0
80
ENDCHAR
STARTCHAR 04C8
ENCODING 1224
SWIDTH 360 0
DWIDTH 8 0
BBX 7 6 0 13
BITMAP
0C
0C
08
10
C6
C6
ENDCHAR
STARTCHAR 04C9
ENCODING 1225
SWIDTH 540 0
DWIDTH 12 0
BBX 11 16 1 0
BITMAP
7000
7000
1B00
3C00
EC00
0C00
1E00
1E00
1600
3300
3300
6180
6180
E180
C0E0
C0E0
ENDCHAR
STARTCHAR 04CA
ENCODING 1226
SWIDTH 630 0
DWIDTH 14 0
BBX 12 16 1 0
BITMAP
FFF0
FFF0
0070
00E0
01C0
0180
0380
3FC0
0E00
1C00
1800
3000
7000
E000
FFF0
FFF0
ENDCHAR
STARTCHAR 04CB
ENCODING 1227
SWIDTH 495 0
DWIDTH 11 0
BBX 9 12 1 0
BITMAP
FF80
FF80
0300
0700
0E00
7F00
1800
3000
6000
E000
FF80
FF80
ENDCHAR
STARTCHAR 04CC
ENCODING 1228
SWIDTH 540 0
DWIDTH 12 0
BBX 10 13 1 -1
BITMAP
1E00
7F80
61C0
C0C0
C0C0
C0C0
FFC0
C0C0
C0C0
C0C0
6180
7F80
1E00
ENDCHAR
STARTCHAR 04CD
ENCODING 1229
SWIDTH 585 0
DWIDTH 13 0
BBX 12 17 1 -5
BITMAP
CF00
DF80
F1C0
E0C0
C0C0
C0C0
C0C0
C0C0
C0C0
C0C0
C0C0
C0C0
00C0
00C0
00C0
00F0
0070
ENDCHAR
STARTCHAR 04CE
ENCODING 1230
SWIDTH 630 0
DWIDTH 14 0
BBX 12 21 1 -5
BITMAP
00C0
00C0
00C0
00C0
3EC0
7FC0
61C0
C0C0
C0C0
C0C0
C0C0
C0C0
C0C0
C1C0
61C0
7FC0
3CC0
00C0
00C0
00F0
0070
ENDCHAR
STARTCHAR 04CF
ENCODING 1231
SWIDTH 540 0
DWIDTH 12 0
BBX 11 17 1 -1
BITMAP
7000
F000
C000
C000
CF00
DF80
F1C0
E0C0
C0C0
C0C0
C060
C0C0
C0C0
E0C0
F1C0
FF80
DF00
ENDCHAR
STARTCHAR 04D0
ENCODING 1232
SWIDTH 585 0
DWIDTH 13 0
BBX 12 17 1 -1
BITMAP
0070
00F0
00C0
00C0
3EC0
7FC0
61C0
C0C0
C0C0
C0C0
C0C0
C0C0
C0C0
C1C0
61C0
7FC0
3EC0
ENDCHAR
STARTCHAR 04D1
ENCODING 1233
SWIDTH 585 0
DWIDTH 13 0
BBX 12 19 1 -5
BITMAP
0070
00F0
3EC0
7FC0
E1C0
C0C0
C0C0
C0C0
C0C0
C0C0
C1C0
E1C0
7FC0
3EC0
00C0
00C0
C180
7F80
3E00
ENDCHAR
STARTCHAR 04D2
ENCODING 1234
SWIDTH 540 0
DWIDTH 12 0
BBX 10 17 1 0
BITMAP
7000
7000
C000
C000
C000
CF00
DF80
F1C0
E0C0
E0C0
C0C0
C0C0
C0C0
C0C0
C0C0
C0C0
C0C0
ENDCHAR
STARTCHAR 04D3
ENCODING 1235
SWIDTH 585 0
DWIDTH 13 0
BBX 12 22 1 -5
BITMAP
7000
7000
C000
C000
C000
CF00
DF80
F1C0
E0C0
E0C0
C0C0
C0C0
C0C0
C0C0
C0C0
C0C0
C0C0
00C0
00C0
00C0
00F0
0070
ENDCHAR
STARTCHAR 04D4
ENCODING 1236
SWIDTH 270 0
DWIDTH 6 0
BBX 4 21 1 -5
BITMAP
C0
C0
C0
C0
C0
C0
C0
C0
C0
C0
C0
C0
C0
C0
C0
C0
C0
C0
C0
70
70
ENDCHAR
STARTCHAR 04D5
ENCODING 1237
SWIDTH 945 0
DWIDTH 21 0
BBX 19 12 1 0
BITMAP
1F0F00
7FBF80
61F0C0
C0E060
C0E060
C07FE0
C07FE0
C0C000
C0E060
61F0C0
7FBF80
1E1F00
ENDCHAR
STARTCHAR 04D6
ENCODING 1238
SWIDTH 450 0
DWIDTH 10 0
BBX 8 17 1 -5
BITMAP
0C
0C
0C
0C
0C
0C
0C
0C
0C
1C
FC
EC
0C
0C
0C
0F
07
ENDCHAR
STARTCHAR 04D7
ENCODING 1239
SWIDTH 315 0
DWIDTH 7 0
BBX 6 17 1 -5
BITMAP
CC
DC
F0
E0
E0
C0
C0
C0
C0
C0
C0
C0
C0
C0
C0
70
70
ENDCHAR
STARTCHAR 04D8
ENCODING 1240
SWIDTH 585 0
DWIDTH 13 0
BBX 12 20 1 -5
BITMAP
0070
00F0
00C0
1EC0
7FC0
61C0
C1C0
C0C0
C0C0
C0C0
C0C0
C0C0
C1C0
E1C0
7FC0
3CC0
00C0
00C0
00C0
00C0
ENDCHAR
STARTCHAR 04D9
ENCODING 1241
SWIDTH 585 0
DWIDTH 13 0
BBX 11 19 1 -5
BITMAP
C000
E000
6000
6060
6060
6060
6060
6060
6060
6060
6060
70E0
31E0
3FE0
1E60
0060
0060
0060
0060
ENDCHAR
STARTCHAR 04DA
ENCODING 1242
SWIDTH 630 0
DWIDTH 14 0
BBX 13 19 1 -5
BITMAP
C000
E000
6000
6060
6060
6060
6060
6060
6060
6060
6060
70E0
31E0
3FE0
1E60
0060
0060
0078
0038
ENDCHAR
STARTCHAR 04DB
ENCODING 1243
SWIDTH 945 0
DWIDTH 21 0
BBX 19 17 1 -1
BITMAP
00C000
00C000
00C000
00C000
3EFFE0
7FFFE0
73C0C0
C1C180
C0C300
C0C700
C0CE00
C0CC00
C0D800
C1F000
61FFE0
7EFFE0
3C0000
ENDCHAR
STARTCHAR 04DC
ENCODING 1244
SWIDTH 675 0
DWIDTH 15 0
BBX 14 16 0 -1
BITMAP
3000
3000
3000
31F0
FFF8
361C
360C
3600
37C0
31F8
301C
360C
360C
3F1C
3FF8
01F0
ENDCHAR
STARTCHAR 04DD
ENCODING 1245
SWIDTH 540 0
DWIDTH 12 0
BBX 11 22 0 -5
BITMAP
00E0
01E0
3180
3300
3300
FF00
FF00
3300
3300
3300
3300
3300
3300
3300
3300
3F00
3E00
0600
0600
0600
3C00
3800
ENDCHAR
STARTCHAR 04DE
ENCODING 1246
SWIDTH 720 0
DWIDTH 16 0
BBX 15 21 0 -5
BITMAP
1C00
3C00
3000
3000
FF78
FFFC
338E
3306
3306
3306
3306
3306
3306
3306
3306
3306
0006
0006
0006
001E
001C
ENDCHAR
STARTCHAR 04DF
ENCODING 1247
SWIDTH 585 0
DWIDTH 13 0
BBX 11 17 1 -1
BITMAP
C000
C000
C000
C000
CF80
DFC0
F8E0
F060
F000
DE00
CFC0
C0E0
C060
F060
F860
DFE0
CF80
ENDCHAR
STARTCHAR 04E0
ENCODING 1248
SWIDTH 585 0
DWIDTH 13 0
BBX 11 16 1 0
BITMAP
C000
C000
C000
C000
FFE0
FFE0
C0C0
C1C0
C380
C300
C600
CC00
D800
F800
FFE0
FFE0
ENDCHAR
STARTCHAR 04E1
ENCODING 1249
SWIDTH 225 0
DWIDTH 5 0
BBX 3 5 1 13
BITMAP
C0
20
20
20
C0
ENDCHAR
STARTCHAR 04E2
ENCODING 1250
SWIDTH 225 0
DWIDTH 5 0
BBX 3 5 1 13
BITMAP
60
40
80
40
60
ENDCHAR
STARTCHAR 04E3
ENCODING 1251
SWIDTH 225 0
DWIDTH 5 0
BBX 2 6 2 10
BITMAP
C0
C0
C0
80
80
40
ENDCHAR
STARTCHAR 04E4
ENCODING 1252
SWIDTH 180 0
DWIDTH 4 0
BBX 1 4 1 12
BITMAP
80
80
80
80
ENDCHAR
STARTCHAR 04E5
ENCODING 1253
SWIDTH 315 0
DWIDTH 7 0
BBX 7 1 0 14
BITMAP
FE
ENDCHAR
STARTCHAR 04E6
ENCODING 1254
SWIDTH 315 0
DWIDTH 7 0
BBX 4 3 2 13
BITMAP
30
60
C0
ENDCHAR
STARTCHAR 04E7
ENCODING 1255
SWIDTH 315 0
DWIDTH 7 0
BBX 4 3 1 13
BITMAP
C0
60
30
ENDCHAR
STARTCHAR 04E8
ENCODING 1256
SWIDTH 180 0
DWIDTH 4 0
BBX 1 3 1 -5
BITMAP
80
80
80
ENDCHAR
STARTCHAR 04E9
ENCODING 1257
SWIDTH 315 0
DWIDTH 7 0
BBX 7 1 0 -3
BITMAP
FE
ENDCHAR
STARTCHAR 04EA
ENCODING 1258
SWIDTH 315 0
DWIDTH 7 0
BBX 4 3 2 -4
BITMAP
30
60
C0
ENDCHAR
STARTCHAR 04EB
ENCODING 1259
SWIDTH 315 0
DWIDTH 7 0
BBX 4 3 1 -4
BITMAP
C0
60
30
ENDCHAR
STARTCHAR 04EC
ENCODING 1260
SWIDTH 225 0
DWIDTH 5 0
BBX 3 5 1 4
BITMAP
C0
20
20
20
C0
ENDCHAR
STARTCHAR 04ED
ENCODING 1261
SWIDTH 225 0
DWIDTH 5 0
BBX 3 5 1 4
BITMAP
60
40
80
40
60
ENDCHAR
STARTCHAR 04EE
ENCODING 1262
SWIDTH 315 0
DWIDTH 7 0
BBX 5 3 1 -4
BITMAP
88
D8
70
ENDCHAR
STARTCHAR 04EF
ENCODING 1263
SWIDTH 315 0
DWIDTH 7 0
BBX 8 3 0 12
BITMAP
FF
00
FF
ENDCHAR
STARTCHAR 04F0
ENCODING 1264
SWIDTH 270 0
DWIDTH 6 0
BBX 4 8 1 8
BITMAP
80
80
F0
90
90
90
90
90
ENDCHAR
STARTCHAR 04F1
ENCODING 1265
SWIDTH 270 0
DWIDTH 6 0
BBX 4 8 1 8
BITMAP
C0
80
F0
90
90
90
90
90
ENDCHAR
STARTCHAR 04F2
ENCODING 1266
SWIDTH 90 0
DWIDTH 2 0
BBX 2 10 0 6
BITMAP
40
00
40
40
40
40
40
40
40
80
ENDCHAR
STARTCHAR 04F3
ENCODING 1267
SWIDTH 180 0
DWIDTH 4 0
BBX 3 6 1 8
BITMAP
E0
80
80
80
80
80
ENDCHAR
STARTCHAR 04F4
ENCODING 1268
SWIDTH 180 0
DWIDTH 4 0
BBX 3 6 1 8
BITMAP
20
20
20
20
60
A0
ENDCHAR
STARTCHAR 04F5
ENCODING 1269
SWIDTH 225 0
DWIDTH 5 0
BBX 3 8 1 6
BITMAP
20
20
20
20
60
A0
20
20
ENDCHAR
STARTCHAR 04F6
ENCODING 1270
SWIDTH 360 0
DWIDTH 8 0
BBX 8 6 0 8
BITMAP
99
5A
5A
6A
66
24
ENDCHAR
STARTCHAR 04F7
ENCODING 1271
SWIDTH 270 0
DWIDTH 6 0
BBX 5 8 0 6
BITMAP
88
48
58
50
30
20
20
40
ENDCHAR
STARTCHAR 04F8
ENCODING 1272
SWIDTH 270 0
DWIDTH 6 0
BBX 5 8 1 8
BITMAP
70
98
88
10
20
20
20
20
ENDCHAR
STARTCHAR 04F9
ENCODING 1273
SWIDTH 270 0
DWIDTH 6 0
BBX 5 8 1 8
BITMAP
70
90
88
C0
40
20
20
20
ENDCHAR
STARTCHAR 04FA
ENCODING 1274
SWIDTH 270 0
DWIDTH 6 0
BBX 7 6 0 8
BITMAP
06
18
E0
E0
18
06
ENDCHAR
STARTCHAR 04FB
ENCODING 1275
SWIDTH 270 0
DWIDTH 6 0
BBX 6 6 0 8
BITMAP
80
70
0C
0C
70
80
ENDCHAR
STARTCHAR 04FC
ENCODING 1276
SWIDTH 270 0
DWIDTH 6 0
BBX 5 6 1 8
BITMAP
20
60
50
90
88
88
ENDCHAR
STARTCHAR 04FD
ENCODING 1277
SWIDTH 270 0
DWIDTH 6 0
BBX 5 6 1 8
BITMAP
88
88
90
50
60
20
ENDCHAR
STARTCHAR 04FE
ENCODING 1278
SWIDTH 315 0
DWIDTH 7 0
BBX 5 1 1 5
BITMAP
F8
ENDCHAR
STARTCHAR 04FF
ENCODING 1279
SWIDTH 270 0
DWIDTH 6 0
BBX 6 6 0 0
BITMAP
10
10
10
FC
10
10
ENDCHAR
STARTCHAR 0500
ENCODING 1280
SWIDTH 270 0
DWIDTH 6 0
BBX 6 6 0 0
BITMAP
10
10
10
10
10
FC
ENDCHAR
STARTCHAR 0501
ENCODING 1281
SWIDTH 270 0
DWIDTH 6 0
BBX 6 6 0 0
BITMAP
FC
10
10
10
10
10
ENDCHAR
STARTCHAR 0502
ENCODING 1282
SWIDTH 270 0
DWIDTH 6 0
BBX 5 6 0 8
BITMAP
70
48
40
38
C8
78
ENDCHAR
STARTCHAR 0503
ENCODING 1283
SWIDTH 270 0
DWIDTH 6 0
BBX 5 6 0 8
BITMAP
C8
50
30
30
50
C8
ENDCHAR
STARTCHAR 0504
ENCODING 1284
SWIDTH 90 0
DWIDTH 2 0
BBX 1 8 1 8
BITMAP
80
80
80
80
80
80
80
80
ENDCHAR
STARTCHAR 0505
ENCODING 1285
SWIDTH 270 0
DWIDTH 6 0
BBX 5 5 1 8
BITMAP
88
50
20
50
88
ENDCHAR
STARTCHAR 0506
ENCODING 1286
SWIDTH 270 0
DWIDTH 6 0
BBX 6 8 0 6
BITMAP
C4
48
48
28
30
10
10
10
ENDCHAR
STARTCHAR 0507
ENCODING 1287
SWIDTH 270 0
DWIDTH 6 0
BBX 5 6 1 -5
BITMAP
88
88
90
50
60
20
ENDCHAR
STARTCHAR 0508
ENCODING 1288
SWIDTH 270 0
DWIDTH 6 0
BBX 5 6 1 -5
BITMAP
20
60
50
90
88
88
ENDCHAR
STARTCHAR 0509
ENCODING 1289
SWIDTH 270 0
DWIDTH 6 0
BBX 7 6 0 -5
BITMAP
06
18
E0
E0
18
06
ENDCHAR
STARTCHAR 050A
ENCODING 1290
SWIDTH 270 0
DWIDTH 6 0
BBX 6 6 0 -5
BITMAP
80
70
0C
0C
70
80
ENDCHAR
STARTCHAR 050B
ENCODING 1291
SWIDTH 315 0
DWIDTH 7 0
BBX 5 4 1 -4
BITMAP
70
88
88
70
ENDCHAR
STARTCHAR 050C
ENCODING 1292
SWIDTH 270 0
DWIDTH 6 0
BBX 5 8 1 8
BITMAP
70
90
88
C0
40
20
20
20
ENDCHAR
STARTCHAR 050D
ENCODING 1293
SWIDTH 0 0
DWIDTH 0 0
BBX 5 5 -9 -5
BITMAP
88
58
20
58
88
ENDCHAR
STARTCHAR 050E
ENCODING 1294
SWIDTH 0 0
DWIDTH 0 0
BBX 6 6 -9 -5
BITMAP
04
38
C0
C0
38
04
ENDCHAR
STARTCHAR 050F
ENCODING 1295
SWIDTH 0 0
DWIDTH 0 0
BBX 6 6 -9 -5
BITMAP
80
60
1C
1C
60
80
ENDCHAR
STARTCHAR 0510
ENCODING 1296
SWIDTH 0 0
DWIDTH 0 0
BBX 2 5 -7 -5
BITMAP
40
40
40
40
C0
ENDCHAR
STARTCHAR 0511
ENCODING 1297
SWIDTH 0 0
DWIDTH 0 0
BBX 2 5 -7 -5
BITMAP
80
80
80
80
C0
ENDCHAR
STARTCHAR 0512
ENCODING 1298
SWIDTH 0 0
DWIDTH 0 0
BBX 8 3 -10 -3
BITMAP
FF
81
81
ENDCHAR
STARTCHAR 0513
ENCODING 1299
SWIDTH 0 0
DWIDTH 0 0
BBX 8 3 -10 14
BITMAP
FF
81
81
ENDCHAR
STARTCHAR 0514
ENCODING 1300
SWIDTH 0 0
DWIDTH 0 0
BBX 12 6 -12 -5
BITMAP
80C0
60C0
1D40
0D20
7120
8210
ENDCHAR
STARTCHAR 0515
ENCODING 1301
SWIDTH 0 0
DWIDTH 0 0
BBX 6 6 -9 8
BITMAP
80
60
1C
1C
60
80
ENDCHAR
STARTCHAR 0516
ENCODING 1302
SWIDTH 0 0
DWIDTH 0 0
BBX 8 3 -10 -3
BITMAP
81
81
FF
ENDCHAR
STARTCHAR 0517
ENCODING 1303
SWIDTH 0 0
DWIDTH 0 0
BBX 5 6 -9 12
BITMAP
88
58
30
30
58
88
ENDCHAR
STARTCHAR 0518
ENCODING 1304
SWIDTH 0 0
DWIDTH 0 0
BBX 6 4 -9 13
BITMAP
E4
18
E4
18
ENDCHAR
STARTCHAR 0519
ENCODING 1305
SWIDTH 0 0
DWIDTH 0 0
BBX 6 3 -9 12
BITMAP
FC
04
04
ENDCHAR
STARTCHAR 051A
ENCODING 1306
SWIDTH 0 0
DWIDTH 0 0
BBX 0 0 0 0
BITMAP
ENDCHAR
ENDFONT
